<?xml version="1.0" standalone="no"?>
<!DOCTYPE svg PUBLIC "-//W3C//DTD SVG 1.1//EN" "http://www.w3.org/Graphics/SVG/1.1/DTD/svg11.dtd" >
<svg xmlns="http://www.w3.org/2000/svg">
<metadata>
Created by FontPrep 20130207 at Wed Mar  5 12:52:32 2014
 By Gilberto Lenzi
Copyright (c) 2013 by Toni Hurme. All rights reserved.
</metadata>
<defs>
<font id="14a57e2466226699d674322611eb77ef" horiz-adv-x='1024' >
  <font-face 
    font-family="NOTHSSansNo2-Regular"
    font-weight="400"
    font-stretch="normal"
    units-per-em="2048"
    panose-1="2 11 5 0 2 0 0 0 0 0"
    ascent="1653"
    descent="-395"
    x-height="1032"
    cap-height="1427"
    bbox="-102 -451 2339 2154"
    underline-thickness="102"
    underline-position="-286"
    unicode-range="U+000D-FB04"
  />
<missing-glyph horiz-adv-x="1540" 
d="M309 334l379 379l-379 379l82 82l379 -379l379 379l82 -82l-379 -379l379 -379l-82 -82l-379 379l-379 -379zM164 123h1212v1182h-1212v-1182zM41 0v1427h1458v-1427h-1458z" />
    <glyph glyph-name="ff" unicode="ff" horiz-adv-x="1200" 
d="M270 0v891h-166v141h166v86q0 212 105 283q85 57 207 57q47 0 80 -8v-143q-39 10 -106 10q-66 0 -100 -41t-34 -137v-107h328v86q0 213 104 283q85 57 207 57q47 0 80 -8v-143q-39 10 -106 10t-101 -41t-33 -137v-107h195v-141h-195v-891h-151v891h-328v-891h-152z" />
    <glyph glyph-name="fi" unicode="fi" horiz-adv-x="1060" 
d="M270 0v891h-166v141h166v86q0 199 101 281q82 59 252 59q59 0 100 -8v-143q-45 10 -129 10t-128 -41t-44 -137v-107h479v-1032h-151v891h-328v-891h-152z" />
    <glyph glyph-name="ffi" unicode="ffi" horiz-adv-x="1540" 
d="M270 0v891h-166v141h166v86q0 212 105 283q85 57 207 57q47 0 80 -8v-143q-39 10 -106 10q-66 0 -100 -41t-34 -137v-107h328v86q0 199 100 281q82 59 252 59q59 0 100 -8v-143q-45 10 -129 10t-128 -41t-44 -137v-107h479v-1032h-151v891h-328v-891h-151v891h-328v-891
h-152z" />
    <glyph glyph-name="fj" unicode="fj" horiz-adv-x="1058" 
d="M270 0v891h-166v141h166v86q0 199 101 281q82 59 252 59q59 0 100 -8v-143q-45 10 -129 10t-128 -41t-44 -137v-107h479v-1138q0 -319 -311 -320q-31 0 -55 4v143q35 -6 71 -6q76 0 110 41t34 138v997h-328v-891h-152z" />
    <glyph glyph-name="ffj" unicode="ffj" horiz-adv-x="1538" 
d="M270 0v891h-166v141h166v86q0 212 105 283q85 57 207 57q47 0 80 -8v-143q-39 10 -106 10q-66 0 -100 -41t-34 -137v-107h328v86q0 199 100 281q82 59 252 59q59 0 100 -8v-143q-45 10 -129 10t-128 -41t-44 -137v-107h479v-1138q0 -319 -311 -320q-31 0 -55 4v143
q35 -6 71 -6q76 0 110 41t34 138v997h-328v-891h-151v891h-328v-891h-152z" />
    <glyph glyph-name=".notdef" horiz-adv-x="1540" 
d="M309 334l379 379l-379 379l82 82l379 -379l379 379l82 -82l-379 -379l379 -379l-82 -82l-379 379l-379 -379zM164 123h1212v1182h-1212v-1182zM41 0v1427h1458v-1427h-1458z" />
    <glyph glyph-name=".null" horiz-adv-x="0" 
 />
    <glyph glyph-name=".null" horiz-adv-x="0" 
 />
    <glyph glyph-name="nonmarkingreturn" horiz-adv-x="681" 
 />
    <glyph glyph-name="CR" unicode="&#xd;" horiz-adv-x="0" 
 />
    <glyph glyph-name="space" unicode=" " horiz-adv-x="716" 
 />
    <glyph glyph-name="exclam" unicode="!" horiz-adv-x="573" 
d="M184 72q0 42 31 72t72 30t71 -30t31 -72q0 -42 -31 -73q-32 -30 -72 -30t-71 30t-31 73zM223 317l-33 1110h193l-33 -1110h-127z" />
    <glyph glyph-name="quotedbl" unicode="&#x22;" horiz-adv-x="673" 
d="M156 911l-25 516h154l-25 -516h-104zM414 911l-25 516h154l-25 -516h-104z" />
    <glyph glyph-name="numbersign" unicode="#" horiz-adv-x="1202" 
d="M449 586h241l64 241h-244zM96 459v127h213l62 241h-183v127h215l56 220h141l-57 -220h241l58 220h139l-55 -220h180v-127h-213l-62 -241h185v-127h-215l-58 -221h-141l57 221h-241l-58 -221h-141l57 221h-180z" />
    <glyph glyph-name="dollar" unicode="$" horiz-adv-x="1196" 
d="M676 125q239 19 239 260q0 89 -56 149t-183 119v-528zM369 1112q0 -84 43 -135t133 -96v428q-80 -9 -128 -61t-48 -136zM209 1106q0 144 94 240t242 110v197h131v-201q205 -31 303 -217l-135 -70q-57 109 -168 135v-479q215 -96 307 -189t92 -260t-104 -275t-295 -120
v-196h-131v201q-299 40 -412 335l150 70q78 -213 262 -256v582q-170 78 -253 163t-83 230z" />
    <glyph glyph-name="percent" unicode="%" horiz-adv-x="1583" 
d="M965 288q0 -81 53 -137q53 -57 130 -57t131 56t54 138q0 81 -54 138t-130 57t-130 -57t-54 -138zM829 289q-1 133 93 226t227 93t226 -93t93 -226t-93 -227t-226 -93q-133 -1 -227 93t-93 227zM250 1138q0 -82 53 -138t130 -56t131 56t54 138t-54 138q-54 57 -130 57
t-130 -57t-54 -138zM254 0l924 1427h157l-923 -1427h-158zM434 819q-131 0 -225 94q-94 93 -94 225t94 226t225 94t225 -94q95 -94 95 -225t-94 -225t-226 -95z" />
    <glyph glyph-name="ampersand" unicode="&#x26;" horiz-adv-x="1595" 
d="M287 457q0 -158 97 -249t265 -91q203 0 301 139q-190 211 -279 306t-108 117q-18 23 -28 35t-37 46q-211 -94 -211 -303zM1061 727v78h-305v98q70 17 114 73t43 138q0 82 -57 137t-139 55q-81 0 -143 -52q-62 -54 -62 -156t90 -226q33 -42 94 -110l326 -359
q39 129 39 324zM127 457q0 295 285 430q-59 109 -60 217q0 152 100 251t259 99q158 0 256 -93t98 -217t-68 -192h500v-147h-276v-78q0 -281 -80 -455l245 -272h-204l-125 139q-153 -170 -397 -170t-389 135q-144 136 -144 353z" />
    <glyph glyph-name="quotesingle" unicode="'" horiz-adv-x="415" 
d="M156 911l-25 516h154l-25 -516h-104z" />
    <glyph glyph-name="parenleft" unicode="(" horiz-adv-x="684" 
d="M137 633q0 575 463 983l76 -82q-387 -381 -387 -901t387 -901l-76 -82q-463 408 -463 983z" />
    <glyph glyph-name="parenright" unicode=")" horiz-adv-x="684" 
d="M395 633q0 520 -387 901l76 82q463 -408 463 -983t-463 -983l-76 82q387 381 387 901z" />
    <glyph glyph-name="asterisk" unicode="*" horiz-adv-x="876" 
d="M299 850l-94 74l153 176l-225 69l43 115l213 -90l-10 233h121l-13 -233l215 90l41 -115l-225 -69l156 -176l-96 -74l-140 192z" />
    <glyph glyph-name="plus" unicode="+" horiz-adv-x="868" 
d="M356 389v252h-229v141h229v254h156v-254h229v-141h-229v-252h-156z" />
    <glyph glyph-name="comma" unicode="," horiz-adv-x="475" 
d="M152 227h202l-258 -489h-129z" />
    <glyph glyph-name="hyphen" unicode="-" horiz-adv-x="868" 
d="M127 469v141h614v-141h-614z" />
    <glyph glyph-name="period" unicode="." horiz-adv-x="466" 
d="M131 88q0 43 31 73q32 29 72 29t71 -30t31 -72q0 -43 -31 -73q-31 -29 -72 -29t-71 30t-31 72z" />
    <glyph glyph-name="slash" unicode="/" horiz-adv-x="946" 
d="M43 -279l639 1760h145l-643 -1760h-141z" />
    <glyph glyph-name="zero" unicode="0" horiz-adv-x="1216" 
d="M608 121q129 0 222 84t106 213q6 59 6 296t-6 296q-12 129 -106 213t-222 84q-129 0 -222 -84t-105 -213q-6 -59 -6 -296t6 -296q12 -129 105 -213t222 -84zM123 714q0 238 6 306q17 186 155 312t324 126t324 -126t155 -312q7 -68 7 -306t-7 -306q-18 -186 -155 -312
q-138 -126 -324 -127q-186 1 -324 127t-155 312q-6 68 -6 306z" />
    <glyph glyph-name="one" unicode="1" horiz-adv-x="698" 
d="M315 0v1280h-196v147h356v-1427h-160z" />
    <glyph glyph-name="two" unicode="2" horiz-adv-x="1110" 
d="M549 1307q-104 0 -178 -75t-74 -179h-158q0 169 121 287t291 118t291 -119t121 -286q-1 -51 -7 -88q-19 -107 -122 -234l-480 -584h643v-147h-970l671 821q104 125 104 231t-74 181q-75 74 -179 74z" />
    <glyph glyph-name="three" unicode="3" horiz-adv-x="1230" 
d="M594 121q152 0 256 93q104 92 104 238t-106 243t-265 97t-268 -40l453 528h-571v147h897l-441 -507h2q183 0 317 -136t134 -340t-148 -340t-378 -135q-184 0 -324 83t-193 224l142 54q37 -96 137 -152t252 -57z" />
    <glyph glyph-name="four" unicode="4" horiz-adv-x="1251" 
d="M895 465v311h160v-776h-160v317h-782l532 1110h172l-455 -962h533z" />
    <glyph glyph-name="five" unicode="5" horiz-adv-x="1208" 
d="M569 121q150 0 256 104q107 103 107 249t-106 250t-257 105q-236 0 -368 -137l131 735h661v-147h-526l-57 -324q78 25 159 25q215 0 365 -150q150 -149 150 -359t-152 -356t-363 -147q-152 0 -280 80t-191 211l138 66q45 -94 135 -150t198 -55z" />
    <glyph glyph-name="six" unicode="6" horiz-adv-x="1234" 
d="M285 465q0 -147 97 -245q96 -98 238 -99q142 0 243 101q101 100 101 242t-100 242q-102 100 -245 101q-143 0 -239 -97q-95 -98 -95 -245zM123 471q0 101 46 195t101 174t389 587h191l-328 -487q55 12 117 12q189 0 333 -140t144 -346t-145 -351t-350 -145t-351 146
t-147 355z" />
    <glyph glyph-name="seven" unicode="7" horiz-adv-x="1204" 
d="M115 1280v147h1018l-689 -1427h-176l617 1280h-770z" />
    <glyph glyph-name="eight" unicode="8" horiz-adv-x="1191" 
d="M279 432q0 -129 93 -220t224 -91t224 91t93 220t-93 220t-224 91t-224 -91t-93 -220zM596 872q88 0 149 64t61 154t-60 153q-62 63 -150 63t-150 -62q-62 -64 -61 -154q-1 -90 61 -154t150 -64zM119 432q0 145 71 247q72 101 183 146q-145 101 -145 259t108 266t260 108
t260 -108t109 -266q0 -158 -146 -259q111 -45 183 -146t71 -247q0 -190 -139 -326t-338 -137q-199 1 -338 137t-139 326z" />
    <glyph glyph-name="nine" unicode="9" horiz-adv-x="1212" 
d="M614 639q148 0 237 95q89 96 89 236t-97 238t-237 98t-236 -98q-98 -98 -98 -235t98 -235q96 -98 244 -99zM592 498q-184 0 -328 133q-143 133 -143 337t142 347t348 143t343 -141t138 -344q0 -78 -32 -163t-67 -142t-110 -172l-328 -496h-190l350 516q-63 -18 -123 -18z
" />
    <glyph glyph-name="colon" unicode=":" horiz-adv-x="466" 
d="M233 131q-41 0 -71 30q-30 31 -31 73q0 42 31 72q32 30 72 30t71 -30t31 -73t-31 -73t-72 -29zM233 696q-41 0 -71 30t-31 73q0 43 31 73q32 30 72 29q40 0 71 -30q31 -31 31 -73t-31 -72t-72 -30z" />
    <glyph glyph-name="semicolon" unicode=";" horiz-adv-x="548" 
d="M10 -229l172 456h203l-240 -456h-135zM274 696q-42 0 -72 30t-30 73t31 73t71 29q40 0 72 -30q31 -31 31 -73t-31 -72t-72 -30z" />
    <glyph glyph-name="less" unicode="&#x3c;" horiz-adv-x="929" 
d="M63 729l719 457v-160l-467 -297l467 -295v-160z" />
    <glyph glyph-name="equal" unicode="=" horiz-adv-x="954" 
d="M127 487v142h700v-142h-700zM127 823v142h700v-142h-700z" />
    <glyph glyph-name="greater" unicode="&#x3e;" horiz-adv-x="927" 
d="M147 274v160l465 297l-465 297v158l717 -455z" />
    <glyph glyph-name="question" unicode="?" horiz-adv-x="1191" 
d="M457 72q1 42 31 72t71 30t72 -30t31 -72t-31 -73q-31 -30 -72 -30t-72 30q-30 30 -30 73zM147 1038q0 174 127 297q128 123 316 123t313 -122t125 -296t-75 -265q-39 -50 -67 -76q-28 -27 -85 -71t-88 -75t-59 -89t-27 -130v-8h-160v14q0 173 77 264q42 51 69 77
q28 26 84 71q56 46 85 72t58 83t28 127q0 115 -78 196q-79 81 -202 81t-203 -81t-80 -192h-158z" />
    <glyph glyph-name="at" unicode="@" horiz-adv-x="1726" 
d="M641 589q0 -97 60 -161q61 -64 153 -63q92 0 155 64q62 65 62 161t-61 160q-60 64 -154 63q-94 0 -155 -63q-60 -64 -60 -161zM119 588q0 200 93 370t266 278t384 107q301 -1 523 -205t223 -505q0 -209 -83 -321t-237 -112t-207 138q-90 -109 -231 -109q-142 1 -244 103
t-102 256t102 256t240 102t215 -90v72h139v-469q0 -91 39 -114q25 -15 55 -15q123 0 157 133q17 68 17 170q0 241 -178 411t-428 170t-427 -181t-177 -435t177 -434t427 -180q147 0 283 79l65 -122q-160 -86 -349 -86t-358 93t-277 266q-107 174 -107 374z" />
    <glyph glyph-name="A" unicode="A" horiz-adv-x="1517" 
d="M498 500h516l-258 606zM113 0l645 1479l647 -1479h-174l-154 352h-643l-153 -352h-168z" />
    <glyph glyph-name="B" unicode="B" horiz-adv-x="1273" 
d="M389 147h299q123 0 204 78t81 195q0 116 -81 192t-206 76h-297v-541zM389 831h246q100 0 167 65t66 161q0 96 -65 160q-66 63 -166 63h-248v-449zM229 0v1427h416q162 0 273 -103t110 -261q0 -102 -48 -177t-134 -110q139 -29 213 -123t74 -231q0 -182 -124 -302
t-311 -120h-469z" />
    <glyph glyph-name="C" unicode="C" horiz-adv-x="1538" 
d="M137 713q0 317 216 529t537 212t535 -242l-108 -98q-166 193 -427 193t-427 -169t-166 -425t166 -425t430 -169t430 200l109 -98q-214 -250 -538 -250t-541 212q-216 213 -216 530z" />
    <glyph glyph-name="D" unicode="D" horiz-adv-x="1568" 
d="M389 147h289q288 0 438 154t150 413q0 258 -150 412t-440 154h-287v-1133zM229 0v1427h459q342 -1 540 -197t198 -518t-198 -516q-196 -196 -538 -196h-461z" />
    <glyph glyph-name="E" unicode="E" horiz-adv-x="1124" 
d="M229 0v1427h725v-147h-565v-453h526v-147h-526v-533h580v-147h-740z" />
    <glyph glyph-name="F" unicode="F" horiz-adv-x="1077" 
d="M229 0v1427h664v-147h-504v-461h453v-147h-453v-672h-160z" />
    <glyph glyph-name="G" unicode="G" horiz-adv-x="1728" 
d="M137 713q0 317 216 529t528 212q199 0 365 -95t261 -257l-133 -76q-70 129 -200 205q-131 76 -293 76q-252 0 -419 -169t-167 -425t167 -425t411 -169t390 137t169 375h-467v147h622q4 -23 4 -65q1 -336 -197 -539t-511 -203t-530 212q-216 213 -216 530z" />
    <glyph glyph-name="H" unicode="H" horiz-adv-x="1570" 
d="M229 0v1427h160v-596h793v596h159v-1427h-159v684h-793v-684h-160z" />
    <glyph glyph-name="I" unicode="I" horiz-adv-x="634" 
d="M238 0v1427h159v-1427h-159z" />
    <glyph glyph-name="J" unicode="J" horiz-adv-x="716" 
d="M182 121q62 0 99 39t47 92t10 135v1040h160v-1034q0 -246 -77 -335q-77 -87 -233 -87q-61 1 -118 19v151q50 -20 112 -20z" />
    <glyph glyph-name="K" unicode="K" horiz-adv-x="1388" 
d="M229 0v1427h160v-757l686 757h197l-570 -622l586 -805h-192l-500 688l-207 -225v-463h-160z" />
    <glyph glyph-name="L" unicode="L" horiz-adv-x="1097" 
d="M229 0v1427h160v-1280h588v-147h-748z" />
    <glyph glyph-name="M" unicode="M" horiz-adv-x="1841" 
d="M229 0v1470l691 -981l692 981v-1470h-160v1001l-532 -761l-531 761v-1001h-160z" />
    <glyph glyph-name="N" unicode="N" horiz-adv-x="1619" 
d="M229 0v1479l1002 -1131v1079h160v-1478l-1002 1130v-1079h-160z" />
    <glyph glyph-name="O" unicode="O" horiz-adv-x="1761" 
d="M295 713q0 -256 167 -425t419 -169q251 0 417 169t166 425t-166 425t-418 169t-418 -169q-167 -169 -167 -425zM137 713q0 317 216 529q215 212 527 212t528 -212t216 -529t-216 -529t-527 -213q-311 0 -528 212q-216 213 -216 530z" />
    <glyph glyph-name="P" unicode="P" horiz-adv-x="1173" 
d="M389 748h223q115 0 192 76t77 190t-77 190t-192 76h-223v-532zM229 0v1427h389q176 0 300 -118q122 -119 122 -296t-122 -295t-300 -118h-229v-600h-160z" />
    <glyph glyph-name="Q" unicode="Q" horiz-adv-x="1761" 
d="M295 713q0 -256 167 -425t419 -169q172 0 311 84l-342 411h188l267 -319q159 170 159 422t-166 421t-418 169t-418 -169q-167 -169 -167 -425zM137 713q0 317 216 529q215 212 527 212t528 -212t216 -532t-221 -532l147 -178h-190l-72 88q-184 -117 -407 -117
q-311 0 -528 212q-216 213 -216 530z" />
    <glyph glyph-name="R" unicode="R" horiz-adv-x="1202" 
d="M389 754h221q117 0 195 76t78 188q0 114 -78 188t-195 74h-221v-526zM229 0v1427h387q176 0 302 -117q124 -118 124 -292t-118 -289t-295 -115h-21l475 -614h-190l-469 614h-35v-614h-160z" />
    <glyph glyph-name="S" unicode="S" horiz-adv-x="1208" 
d="M621 119q90 -1 152 27t89 73q45 75 45 152q0 117 -71 178q-72 61 -258 143t-275 166q-90 84 -90 240t111 256t280 100q262 0 385 -227l-137 -70q-80 150 -250 150q-96 1 -163 -57t-66 -146q0 -55 17 -95q18 -40 68 -76t84 -53t122 -57q217 -96 310 -189t93 -265
t-118 -285t-331 -113q-170 0 -301 86t-192 256l137 64q106 -258 359 -258z" />
    <glyph glyph-name="T" unicode="T" horiz-adv-x="1060" 
d="M451 0v1280h-349v147h856v-147h-348v-1280h-159z" />
    <glyph glyph-name="U" unicode="U" horiz-adv-x="1507" 
d="M219 500v927h160v-911q0 -193 100 -293q101 -100 275 -100t274 100t100 293v911h160v-927q0 -252 -147 -388t-387 -136t-388 136t-147 388z" />
    <glyph glyph-name="V" unicode="V" horiz-adv-x="1454" 
d="M727 -51l-614 1478h172l442 -1073l442 1073h172z" />
    <glyph glyph-name="W" unicode="W" horiz-adv-x="2021" 
d="M563 -51l-467 1478h168l320 -1007l432 1057l414 -1053l325 1003h168l-477 -1482l-434 1099z" />
    <glyph glyph-name="X" unicode="X" horiz-adv-x="1419" 
d="M127 0l479 739l-450 688h178l377 -579l374 579h172l-448 -690l483 -737h-180l-410 627l-405 -627h-170z" />
    <glyph glyph-name="Y" unicode="Y" horiz-adv-x="1355" 
d="M600 0v586l-502 841h176l408 -684l403 684h172l-497 -841v-586h-160z" />
    <glyph glyph-name="Z" unicode="Z" horiz-adv-x="1390" 
d="M266 1280v147h1024l-893 -1280h865v-147h-1156l893 1280h-733z" />
    <glyph glyph-name="bracketleft" unicode="[" horiz-adv-x="710" 
d="M373 -248h301v-147h-461v1822h461v-147h-301v-1528z" />
    <glyph glyph-name="backslash" unicode="\" horiz-adv-x="946" 
d="M737 -279l-643 1760h142l643 -1760h-142z" />
    <glyph glyph-name="bracketright" unicode="]" horiz-adv-x="710" 
d="M37 -248h301v1528h-301v147h461v-1822h-461v147z" />
    <glyph glyph-name="asciicircum" unicode="^" horiz-adv-x="1146" 
d="M88 717l485 764l486 -764h-162l-324 512l-325 -512h-160z" />
    <glyph glyph-name="underscore" unicode="_" horiz-adv-x="688" 
d="M37 -254h614v-141h-614v141z" />
    <glyph glyph-name="grave" unicode="`" horiz-adv-x="1183" 
d="M551 1130l-191 297h203l109 -297h-121z" />
    <glyph glyph-name="a" unicode="a" 
d="M276 289q0 -178 258 -178q132 1 214 65t81 172v184q-43 -45 -226 -60t-255 -55t-72 -128zM498 -31q-166 0 -270 85q-103 86 -103 234q0 292 430 324q160 12 217 39t57 101t-54 122q-54 47 -167 48q-168 0 -278 -146l-105 86q137 201 383 201q168 0 270 -87t103 -235v-551
q0 -37 14 -55q15 -18 29 -21t43 -3h18v-109q-35 -23 -104 -22q-111 0 -131 120q-111 -131 -352 -131z" />
    <glyph glyph-name="b" unicode="b" horiz-adv-x="1310" 
d="M291 516q-1 -174 109 -290t273 -116t268 116t106 290t-105 290t-269 116t-273 -116t-109 -290zM158 0v1427h151v-548q45 78 136 131t231 53q219 0 371 -157q151 -157 151 -390t-152 -390t-370 -157q-138 -1 -230 53t-137 132v-154h-151z" />
    <glyph glyph-name="c" unicode="c" horiz-adv-x="1140" 
d="M113 516q0 233 159 390q160 157 395 157t386 -156l-92 -106q-117 121 -294 121t-290 -116t-113 -290t113 -290t290 -116t294 121l92 -106q-152 -156 -386 -156t-395 157q-159 157 -159 390z" />
    <glyph glyph-name="d" unicode="d" horiz-adv-x="1310" 
d="M264 516q0 -174 106 -290t268 -116t272 116t110 290t-110 290t-272 116t-268 -116t-106 -290zM113 516q0 233 151 390q152 157 371 157q139 0 230 -53t136 -131v548h152v-1427h-152v154q-45 -78 -136 -131t-230 -54q-219 0 -371 157q-151 157 -151 390z" />
    <glyph glyph-name="e" unicode="e" horiz-adv-x="1210" 
d="M942 616q0 125 -92 215q-92 91 -227 91t-238 -90t-111 -216h668zM113 504v8q0 248 145 400q146 152 364 151t350 -149t132 -365q0 -35 -2 -66h-838q6 -170 106 -271t263 -101q106 1 177 35t140 108l101 -98q-165 -182 -407 -182t-386 144q-144 146 -145 386z" />
    <glyph glyph-name="f" unicode="f" horiz-adv-x="722" 
d="M270 0v891h-166v141h166v86q0 199 101 281q68 59 211 59q47 0 80 -8v-143q-39 10 -106 10q-66 0 -100 -41t-34 -137v-107h194v-141h-194v-891h-152z" />
    <glyph glyph-name="g" unicode="g" horiz-adv-x="1310" 
d="M264 524q0 -170 106 -282t268 -113q162 0 272 113q110 112 110 282t-110 284t-272 114t-268 -114t-106 -284zM639 -309q162 0 262 82t100 313v86q-45 -78 -136 -131t-230 -53q-219 0 -371 152t-151 384q0 231 151 385q152 154 371 154q139 0 230 -53t136 -131v153h152
v-860q0 -200 -30 -316t-134 -198q-137 -109 -348 -109q-272 0 -489 158l77 121q190 -137 410 -137z" />
    <glyph glyph-name="h" unicode="h" horiz-adv-x="1155" 
d="M158 0v1427h151v-569q41 86 123 138t195 53q170 -1 270 -107t100 -283v-659h-151v627q0 129 -69 205t-189 75q-120 0 -200 -81q-79 -81 -79 -210v-616h-151z" />
    <glyph glyph-name="i" unicode="i" horiz-adv-x="471" 
d="M160 0v1032h151v-1032h-151zM236 1204q-41 0 -72 30t-31 73t31 73t72 29q42 0 72 -30q30 -31 30 -73t-30 -72t-72 -30z" />
    <glyph glyph-name="j" unicode="j" horiz-adv-x="466" 
d="M158 -106v1138h151v-1138q0 -319 -311 -320q-31 0 -55 4v143q33 -6 71 -6q76 -1 110 41t34 138zM233 1200q-41 0 -71 30t-31 73q0 43 31 73q32 30 72 29q40 0 71 -30q31 -31 31 -73t-31 -72t-72 -30z" />
    <glyph glyph-name="k" unicode="k" horiz-adv-x="1036" 
d="M158 0v1427h151v-905l443 510h174l-391 -452l446 -580h-180l-363 471l-129 -149v-322h-151z" />
    <glyph glyph-name="l" unicode="l" horiz-adv-x="614" 
d="M311 270q0 -162 115 -160q57 0 88 9v-142q-33 -8 -79 -8q-191 0 -249 134q-26 63 -26 157v1167h151v-1157z" />
    <glyph glyph-name="m" unicode="m" horiz-adv-x="1724" 
d="M158 0v1032h151v-174q37 86 112 138t179 53q221 0 303 -205q96 205 330 205q158 -1 251 -107t93 -283v-659h-152v627q0 129 -61 205t-172 75q-110 0 -182 -81t-72 -210v-616h-152v627q0 131 -60 206t-168 75t-178 -82q-71 -81 -71 -210v-616h-151z" />
    <glyph glyph-name="n" unicode="n" horiz-adv-x="1171" 
d="M158 0v1032h151v-174q41 86 128 138t204 53q175 -1 279 -107t104 -283v-659h-152v627q0 129 -72 205t-200 75q-127 0 -209 -81t-82 -210v-616h-151z" />
    <glyph glyph-name="o" unicode="o" horiz-adv-x="1323" 
d="M264 516q0 -174 113 -290t285 -116t284 116t113 290q0 174 -113 290q-112 116 -284 116t-285 -116t-113 -290zM113 516q0 233 159 390q160 157 390 157t389 -157t159 -390t-160 -390t-388 -157q-229 0 -390 157q-159 157 -159 390z" />
    <glyph glyph-name="p" unicode="p" horiz-adv-x="1310" 
d="M291 516q-1 -174 109 -290t273 -116t268 116t106 290t-105 290t-269 116t-273 -116t-109 -290zM158 -395v1427h151v-153q45 78 136 131t231 53q219 0 371 -157q151 -157 151 -390t-152 -390t-370 -157q-138 -1 -230 53t-137 132v-549h-151z" />
    <glyph glyph-name="q" unicode="q" horiz-adv-x="1310" 
d="M264 516q0 -174 106 -290t268 -116t272 116t110 290t-110 290t-272 116t-268 -116t-106 -290zM113 516q0 233 151 390q152 157 371 157q139 0 230 -53t136 -131v153h152v-1427h-152v549q-45 -78 -136 -131t-230 -54q-219 0 -371 157q-151 157 -151 390z" />
    <glyph glyph-name="r" unicode="r" horiz-adv-x="821" 
d="M158 0v1032h151v-174q41 86 123 138t195 53q35 0 63 -5v-163q-41 10 -102 10q-121 0 -200 -81t-79 -210v-600h-151z" />
    <glyph glyph-name="s" unicode="s" horiz-adv-x="929" 
d="M478 117q116 0 166 49q50 50 50 118t-56 108t-200 96t-213 123t-69 183t87 192t224 77q209 0 299 -178l-123 -64q-55 102 -174 103q-72 0 -117 -35t-45 -98t54 -103q55 -40 193 -92q138 -53 215 -128t77 -196t-97 -209t-263 -88q-166 1 -272 65t-136 183l129 49
q20 -66 87 -110q68 -44 184 -45z" />
    <glyph glyph-name="t" unicode="t" horiz-adv-x="712" 
d="M223 289v602h-121v141h121v395h152v-395h239v-141h-239v-602q0 -98 34 -138t100 -40t105 6v-137q-163 -38 -287 40q-104 67 -104 269z" />
    <glyph glyph-name="u" unicode="u" horiz-adv-x="1157" 
d="M145 399v633h152v-618q0 -145 75 -221t206 -76q130 0 206 77t76 222v616h152v-618q0 -209 -122 -324t-316 -115q-194 1 -311 111q-118 110 -118 313z" />
    <glyph glyph-name="v" unicode="v" horiz-adv-x="1130" 
d="M565 -72l-493 1104h157l336 -758l338 758h156z" />
    <glyph glyph-name="w" unicode="w" horiz-adv-x="1611" 
d="M496 -72l-424 1104h145l279 -729l309 801l309 -801l279 729h145l-424 -1104l-309 801z" />
    <glyph glyph-name="x" unicode="x" horiz-adv-x="1132" 
d="M92 0l393 549l-360 483h168l272 -366l273 366h168l-359 -481l393 -551h-166l-307 432l-309 -432h-166z" />
    <glyph glyph-name="y" unicode="y" horiz-adv-x="1114" 
d="M274 -428q-59 0 -102 18v140q43 -16 99 -16t96 27q40 28 77 120l45 116l-417 1055h151l340 -870l328 870h151l-467 -1208q-43 -112 -109 -182t-192 -70z" />
    <glyph glyph-name="z" unicode="z" horiz-adv-x="1107" 
d="M143 891v141h861l-691 -891h662v-141h-942l688 891h-578z" />
    <glyph glyph-name="braceleft" unicode="{" horiz-adv-x="733" 
d="M424 233v-366q0 -57 27 -99t84 -42h75v-121h-92q-106 -1 -176 73t-70 189v389q0 159 -125 202q-23 7 -36 9h-13v98q47 2 92 29q82 49 82 182v389q0 115 70 189t176 73h92v-120h-75q-57 0 -84 -42t-27 -100v-366q0 -218 -152 -283q152 -65 152 -283z" />
    <glyph glyph-name="bar" unicode="|" horiz-adv-x="589" 
d="M219 -51v1530h152v-1530h-152z" />
    <glyph glyph-name="braceright" unicode="}" horiz-adv-x="733" 
d="M309 799v366q0 57 -26 100q-27 42 -84 42h-76v120h92q106 1 176 -73t70 -189v-389q0 -159 125 -202q23 -7 37 -9h12v-98q-47 -2 -92 -29q-82 -49 -82 -182v-389q0 -115 -70 -189t-176 -73h-92v121h76q57 0 84 42t26 99v366q0 218 152 283q-152 65 -152 283z" />
    <glyph glyph-name="asciitilde" unicode="~" horiz-adv-x="937" 
d="M298 809q79 0 179 -40t148 -40q86 0 114 84l101 -8q-27 -201 -209 -201q-78 0 -177 40t-147 40q-88 0 -108 -72l-101 9q10 82 66 135t134 53z" />
    <glyph glyph-name="exclamdown" unicode="&#xa1;" horiz-adv-x="573" 
d="M190 -412l33 1110h127l33 -1110h-193zM287 842q-41 0 -72 30t-31 72q0 43 31 73t72 30t71 -30t31 -73q-1 -42 -31 -72t-71 -30z" />
    <glyph glyph-name="cent" unicode="&#xa2;" horiz-adv-x="1173" 
d="M270 719q0 -127 63 -225t167 -146l162 776h-3q-169 -2 -279 -118t-110 -287zM666 172q-35 0 -64 4l-37 -176h-139l45 209q-158 57 -255 193t-97 297q0 410 374 536q91 31 177 31h20l33 161h139l-39 -180q143 -35 240 -129l-92 -106q-72 72 -176 96l-164 -793l47 -4
q174 0 291 115l94 -109q-154 -145 -397 -145z" />
    <glyph glyph-name="sterling" unicode="&#xa3;" horiz-adv-x="1282" 
d="M123 0v137h18q100 0 173 29t109 76q66 86 66 202q0 61 -51 164h-211v148h129q-98 170 -98 282q0 174 123 297t297 123t297 -123t123 -297h-158q0 111 -76 192t-184 81t-186 -80q-76 -79 -76 -185t114 -290h314v-148h-236q39 -92 39 -182t-35 -168q-35 -76 -86 -111h623
v-147h-1028z" />
    <glyph glyph-name="currency" unicode="&#xa4;" horiz-adv-x="1402" 
d="M702 334q139 0 240 102q100 102 100 246t-100 246q-100 104 -240 104t-238 -102q-99 -102 -99 -246t99 -248q99 -102 238 -102zM702 1165q158 0 289 -96l162 186l104 -102l-180 -166q109 -133 109 -305t-109 -303l180 -168l-104 -100q-102 111 -164 182
q-123 -92 -287 -92t-288 96l-160 -186l-104 102l178 166q-106 129 -106 302t106 304l-178 168l104 102l162 -186q128 96 286 96z" />
    <glyph glyph-name="yen" unicode="&#xa5;" horiz-adv-x="1339" 
d="M592 0v432h-434v148h438l-109 180h-329v147h243l-311 520h176l408 -684l403 684h172l-307 -520h244v-147h-332l-106 -180h438v-148h-434v-432h-160z" />
    <glyph glyph-name="brokenbar" unicode="&#xa6;" horiz-adv-x="589" 
d="M219 0v602h152v-602h-152zM219 850v577h152v-577h-152z" />
    <glyph glyph-name="section" unicode="&#xa7;" horiz-adv-x="1140" 
d="M858 426q0 94 -70 156t-181 122q-111 58 -165 89q-178 -41 -178 -187q0 -94 70 -156t182 -122q112 -58 164 -88q178 41 178 186zM209 -47h160q0 -160 95 -209q42 -23 112 -23q70 -1 130 47q58 48 58 138t-69 143q-53 43 -219 128q-165 84 -238 149q-133 119 -134 280
q0 201 183 293q-88 90 -88 231q0 140 101 234t264 94t256 -108t93 -271h-159q0 78 -26 133q-48 99 -173 99q-80 0 -138 -47q-59 -47 -59 -120q-1 -122 88 -179q35 -23 109 -62q244 -125 330 -196q133 -119 133 -281q0 -201 -182 -293q88 -90 88 -232q0 -143 -102 -235
t-263 -92q-160 0 -255 106t-95 273z" />
    <glyph glyph-name="dieresis" unicode="&#xa8;" horiz-adv-x="1323" 
d="M451 1200q-41 0 -72 30t-31 73t31 73t72 29q41 0 71 -30q30 -31 31 -73q-1 -42 -31 -72t-71 -30zM872 1200q-42 0 -72 30t-30 73t31 73t71 29q40 0 72 -30q31 -31 31 -73t-31 -72t-72 -30z" />
    <glyph glyph-name="copyright" unicode="&#xa9;" horiz-adv-x="1744" 
d="M469 723q0 176 121 294t298 118t308 -127l-94 -103q-96 90 -214 90q-118 1 -194 -77t-76 -195t76 -195t196 -78t212 93l94 -109q-125 -125 -305 -125t-301 119t-121 295zM217 713q0 -272 193 -467q192 -195 462 -195t463 195t193 467t-193 466q-193 193 -463 193
t-462 -194t-193 -465zM127 713q0 307 219 525t526 218q306 0 526 -218t220 -525t-219 -527t-527 -219q-308 -1 -526 219q-219 220 -219 527z" />
    <glyph glyph-name="ordfeminine" unicode="&#xaa;" horiz-adv-x="997" 
d="M631 918v120q-43 -37 -185 -39q-193 -6 -192 -125q0 -54 43 -84t132 -30t145 43t57 115zM406 645q-119 -1 -194 61t-75 165t80 168q81 65 207 69t166 24t41 82q0 64 -48 89t-102 24q-123 0 -211 -108l-88 73q106 154 299 154q121 0 193 -65t71 -171v-403q0 -49 33 -49h43
v-84q-31 -20 -76 -21q-74 0 -96 80q-76 -88 -243 -88z" />
    <glyph glyph-name="guillemotleft" unicode="&#xab;" horiz-adv-x="929" 
d="M338 160l-225 358l225 359h160l-226 -359l226 -358h-160zM657 160l-225 358l225 359h160l-225 -359l225 -358h-160z" />
    <glyph glyph-name="logicalnot" unicode="&#xac;" horiz-adv-x="1245" 
d="M127 782v142h991v-553h-155v411h-836z" />
    <glyph glyph-name="registered" unicode="&#xae;" horiz-adv-x="888" 
d="M391 1147h62q23 0 37 17t16 41q0 24 -16 40t-37 17h-62v-115zM322 952v375h133q53 0 87 -33t33 -84q0 -74 -61 -108l90 -150h-82l-82 138h-49v-138h-69zM442 868q115 0 191 74t76 192t-76 192t-191 75q-116 0 -190 -75q-74 -74 -74 -192t74 -192t190 -74zM442 807
q-139 0 -234 92q-95 91 -95 233t95 234t234 92q138 0 236 -92t98 -233t-97 -234q-98 -92 -237 -92z" />
    <glyph glyph-name="macron" unicode="&#xaf;" horiz-adv-x="1351" 
d="M375 1286v141h602v-141h-602z" />
    <glyph glyph-name="degree" unicode="&#xb0;" horiz-adv-x="819" 
d="M410 1028q51 0 88 40t37 95t-37 95t-88 40t-88 -40t-37 -95t37 -95t88 -40zM410 893q-113 0 -192 79q-79 80 -79 192t79 191t192 79q114 0 192 -79t78 -192t-78 -191t-192 -79z" />
    <glyph glyph-name="plusminus" unicode="&#xb1;" horiz-adv-x="868" 
d="M127 0v141h614v-141h-614zM356 389v252h-229v141h229v254h156v-254h229v-141h-229v-252h-156z" />
    <glyph glyph-name="twosuperior" unicode="&#xb2;" horiz-adv-x="747" 
d="M383 1333q-45 0 -78 -38t-33 -91h-114q0 100 65 170q66 70 160 70t161 -65q66 -65 66 -157t-69 -175l-224 -265h312v-110h-539l354 444q91 113 17 184q-33 33 -78 33z" />
    <glyph glyph-name="threesuperior" unicode="&#xb3;" horiz-adv-x="790" 
d="M390 655q-110 1 -188 51q-77 50 -108 136l103 39q43 -113 180 -113q76 0 124 42t48 109t-50 111t-137 43q-87 0 -141 -22l217 268h-272v108h498l-226 -258q29 0 62 -12q72 -27 116 -93t46 -163q0 -98 -81 -172t-191 -74z" />
    <glyph glyph-name="acute" unicode="&#xb4;" horiz-adv-x="1183" 
d="M514 1130l109 297h202l-190 -297h-121z" />
    <glyph glyph-name="mu" unicode="&#xb5;" horiz-adv-x="1157" 
d="M297 -395h-152v1427h152v-618q0 -145 75 -221t206 -76q130 0 206 77t76 222v616h152v-618q0 -209 -122 -324t-319 -115q-159 1 -274 101v-471z" />
    <glyph glyph-name="paragraph" unicode="&#xb6;" 
d="M516 0v547q-176 10 -297 137t-121 306t129 308t312 129h583v-147h-135v-1280h-160v1280h-151v-1280h-160z" />
    <glyph glyph-name="periodcentered" unicode="&#xb7;" horiz-adv-x="466" 
d="M233 414q-41 0 -71 30t-31 72q0 43 31 73q32 29 72 29t71 -30t31 -72t-31 -72t-72 -30z" />
    <glyph glyph-name="cedilla" unicode="&#xb8;" horiz-adv-x="1165" 
d="M764 -240q0 -166 -211 -166q-92 0 -152 48l39 79q58 -35 104 -35t72 21q26 20 25 61q1 40 -35 58t-114 18l65 156h115l-43 -94q57 0 96 -40t39 -106z" />
    <glyph glyph-name="onesuperior" unicode="&#xb9;" horiz-adv-x="536" 
d="M221 672v647h-98v108h215v-755h-117z" />
    <glyph glyph-name="ordmasculine" unicode="&#xba;" horiz-adv-x="1015" 
d="M508 776q112 0 188 81t76 192t-77 191t-187 81q-110 0 -188 -81q-76 -82 -76 -192t76 -191t188 -81zM508 651q-166 0 -283 116t-116 282q1 165 117 281t282 116t283 -116t117 -282t-118 -281q-116 -116 -282 -116z" />
    <glyph glyph-name="guillemotright" unicode="&#xbb;" horiz-adv-x="929" 
d="M113 160l225 358l-225 359h159l226 -359l-226 -358h-159zM432 160l225 358l-225 359h160l225 -359l-225 -358h-160z" />
    <glyph glyph-name="onequarter" unicode="&#xbc;" horiz-adv-x="1458" 
d="M1161 260v152h117v-412h-117v150h-446l291 606h120l-237 -496h272zM262 672v647h-98v108h215v-755h-117zM201 0l798 1427h152l-799 -1427h-151z" />
    <glyph glyph-name="onehalf" unicode="&#xbd;" horiz-adv-x="1523" 
d="M1229 550q0 46 -33 79t-78 33t-78 -38t-32 -92h-115q0 100 65 170q66 70 160 70t161 -64t67 -158q0 -93 -70 -175l-223 -264h311v-111h-539l355 444q49 60 49 106zM262 672v647h-98v108h215v-755h-117zM201 0l798 1427h152l-799 -1427h-151z" />
    <glyph glyph-name="threequarters" unicode="&#xbe;" horiz-adv-x="1658" 
d="M1362 260v152h117v-412h-117v150h-447l291 606h121l-237 -496h272zM410 655q-110 1 -188 51q-77 50 -107 136l102 39q43 -113 180 -113q76 0 124 42t48 109t-50 111t-137 43q-87 0 -140 -22l217 268h-273v108h498l-225 -258q27 0 61 -12q72 -27 117 -93t45 -146
q0 -115 -81 -189t-191 -74zM401 0l799 1427h152l-799 -1427h-152z" />
    <glyph glyph-name="questiondown" unicode="&#xbf;" horiz-adv-x="1191" 
d="M735 944q-1 -43 -31 -73q-30 -29 -71 -29t-72 30t-31 72q0 43 31 73t72 30t71 -30t31 -73zM1044 -23q0 -175 -126 -297t-316 -122q-188 0 -313 122t-125 295q0 174 75 266q39 49 67 75t85 71t88 76t59 89t27 130v8h160v-14q0 -174 -77 -264q-42 -51 -70 -77t-83 -71
q-56 -46 -85 -72t-58 -83t-28 -127q0 -115 78 -196t202 -81q123 0 203 81t80 191h157z" />
    <glyph glyph-name="Agrave" unicode="&#xc0;" horiz-adv-x="1517" 
d="M498 500h516l-258 606zM113 0l645 1479l647 -1479h-174l-154 352h-643l-153 -352h-168zM752 1526l-191 297h203l108 -297h-120z" />
    <glyph glyph-name="Aacute" unicode="&#xc1;" horiz-adv-x="1517" 
d="M498 500h516l-258 606zM113 0l645 1479l647 -1479h-174l-154 352h-643l-153 -352h-168zM698 1526l109 297h203l-191 -297h-121z" />
    <glyph glyph-name="Acircumflex" unicode="&#xc2;" horiz-adv-x="1517" 
d="M498 500h516l-258 606zM113 0l645 1479l647 -1479h-174l-154 352h-643l-153 -352h-168zM422 1575l336 299l336 -299h-183l-153 154l-154 -154h-182z" />
    <glyph glyph-name="Atilde" unicode="&#xc3;" horiz-adv-x="1517" 
d="M498 500h516l-258 606zM113 0l645 1479l647 -1479h-174l-154 352h-643l-153 -352h-168zM622 1749q66 0 141 -40t109 -40q74 0 95 84l100 -8q-23 -201 -188 -201q-57 0 -133 40t-109 40q-72 0 -88 -72l-100 9q10 82 59 135q48 53 114 53z" />
    <glyph glyph-name="Adieresis" unicode="&#xc4;" horiz-adv-x="1517" 
d="M498 500h516l-258 606zM113 0l645 1479l647 -1479h-174l-154 352h-643l-153 -352h-168zM545 1524q-41 0 -72 30t-31 72q0 43 31 73t72 30t71 -30t31 -73q-1 -42 -31 -72t-71 -30zM967 1524q-41 0 -72 30t-31 72q0 43 31 73t72 30t71 -30t31 -73q-1 -42 -31 -72t-71 -30z
" />
    <glyph glyph-name="Aring" unicode="&#xc5;" horiz-adv-x="1517" 
d="M498 500h516l-258 606zM760 1458q38 0 66 29t28 67t-28 67q-28 28 -66 28t-68 -28q-28 -28 -28 -67q0 -40 28 -68t68 -28zM559 1562q0 74 59 132q60 58 142 59q82 0 140 -58q58 -59 58 -135t-42 -130t-107 -70l596 -1360h-174l-154 352h-643l-153 -352h-168l594 1362
q-63 16 -105 70q-42 56 -43 130z" />
    <glyph glyph-name="AE" unicode="&#xc6;" horiz-adv-x="1904" 
d="M1061 500v624l-469 -624h469zM1737 1427v-147h-516v-453h477v-147h-477v-533h530v-147h-690v352h-582l-270 -352h-201l1094 1427h635z" />
    <glyph glyph-name="Ccedilla" unicode="&#xc7;" horiz-adv-x="1538" 
d="M137 713q0 317 216 529t537 212t535 -242l-108 -98q-166 193 -427 193t-427 -169t-166 -425t166 -425t430 -169t430 200l109 -98q-215 -250 -551 -250q-35 0 -54 2l-30 -67q57 0 96 -40t39 -106q0 -166 -211 -166q-92 0 -152 48l39 79q58 -35 104 -35t72 21q26 20 25 61
q0 40 -36 58t-114 18l60 144q-254 53 -418 252t-164 473z" />
    <glyph glyph-name="Egrave" unicode="&#xc8;" horiz-adv-x="1124" 
d="M229 0v1427h725v-147h-565v-453h526v-147h-526v-533h580v-147h-740zM567 1526l-190 297h203l108 -297h-121z" />
    <glyph glyph-name="Eacute" unicode="&#xc9;" horiz-adv-x="1124" 
d="M229 0v1427h725v-147h-565v-453h526v-147h-526v-533h580v-147h-740zM510 1526l108 297h203l-190 -297h-121z" />
    <glyph glyph-name="Ecircumflex" unicode="&#xca;" horiz-adv-x="1124" 
d="M229 0v1427h725v-147h-565v-453h526v-147h-526v-533h580v-147h-740zM258 1575l336 299l336 -299h-182l-154 154l-154 -154h-182z" />
    <glyph glyph-name="Edieresis" unicode="&#xcb;" horiz-adv-x="1124" 
d="M229 0v1427h725v-147h-565v-453h526v-147h-526v-533h580v-147h-740zM383 1563q-41 -1 -72 29t-30 73q0 43 30 73q31 30 72 30t72 -30t31 -73t-31 -73q-31 -29 -72 -29zM805 1563q-41 -1 -72 29t-31 73t31 73t72 30t72 -30t31 -73t-31 -73q-31 -29 -72 -29z" />
    <glyph glyph-name="Igrave" unicode="&#xcc;" horiz-adv-x="634" 
d="M238 0v1427h159v-1427h-159zM258 1526l-190 297h202l109 -297h-121z" />
    <glyph glyph-name="Iacute" unicode="&#xcd;" horiz-adv-x="634" 
d="M238 0v1427h159v-1427h-159zM254 1526l108 297h203l-190 -297h-121z" />
    <glyph glyph-name="Icircumflex" unicode="&#xce;" horiz-adv-x="634" 
d="M238 0v1427h159v-1427h-159zM-18 1575l335 299l336 -299h-182l-154 154l-153 -154h-182z" />
    <glyph glyph-name="Idieresis" unicode="&#xcf;" horiz-adv-x="634" 
d="M238 0v1427h159v-1427h-159zM127 1563q-41 -1 -72 29t-30 73q0 43 30 73q31 30 72 30t72 -30t31 -73t-31 -73q-31 -29 -72 -29zM508 1563q-41 -1 -72 29t-30 73q0 43 30 73q31 30 72 30t72 -30q30 -30 30 -73t-30 -73q-31 -29 -72 -29z" />
    <glyph glyph-name="Eth" unicode="&#xd0;" horiz-adv-x="1560" 
d="M389 147h289q288 0 438 154t150 413q0 258 -150 412t-440 154h-287v-473h297v-148h-297v-512zM229 0v659h-133v148h133v620h459q342 -1 540 -197t198 -518t-198 -516q-196 -196 -538 -196h-461z" />
    <glyph glyph-name="Ntilde" unicode="&#xd1;" horiz-adv-x="1619" 
d="M229 0v1479l1002 -1131v1079h160v-1478l-1002 1130v-1079h-160zM674 1749q66 0 140 -40q75 -40 110 -40q74 0 94 84l100 -8q-23 -201 -188 -201q-57 0 -132 40t-110 40q-72 0 -88 -72l-100 9q10 82 59 135t115 53z" />
    <glyph glyph-name="Ograve" unicode="&#xd2;" horiz-adv-x="1761" 
d="M295 713q0 -256 167 -425t419 -169q251 0 417 169t166 425t-166 425t-418 169t-418 -169q-167 -169 -167 -425zM137 713q0 317 216 529q215 212 527 212t528 -212t216 -529t-216 -529t-527 -213q-311 0 -528 212q-216 213 -216 530zM829 1526l-190 297h203l108 -297h-121
z" />
    <glyph glyph-name="Oacute" unicode="&#xd3;" horiz-adv-x="1761" 
d="M295 713q0 -256 167 -425t419 -169q251 0 417 169t166 425t-166 425t-418 169t-418 -169q-167 -169 -167 -425zM137 713q0 317 216 529q215 212 527 212t528 -212t216 -529t-216 -529t-527 -213q-311 0 -528 212q-216 213 -216 530zM791 1526l108 297h203l-191 -297h-120
z" />
    <glyph glyph-name="Ocircumflex" unicode="&#xd4;" horiz-adv-x="1761" 
d="M295 713q0 -256 167 -425t419 -169q251 0 417 169t166 425t-166 425t-418 169t-418 -169q-167 -169 -167 -425zM137 713q0 317 216 529q215 212 527 212t528 -212t216 -529t-216 -529t-527 -213q-311 0 -528 212q-216 213 -216 530zM537 1575l335 299l336 -299h-182
l-154 154l-153 -154h-182z" />
    <glyph glyph-name="Otilde" unicode="&#xd5;" horiz-adv-x="1761" 
d="M295 713q0 -256 167 -425t419 -169q251 0 417 169t166 425t-166 425t-418 169t-418 -169q-167 -169 -167 -425zM137 713q0 317 216 529q215 212 527 212t528 -212t216 -529t-216 -529t-527 -213q-311 0 -528 212q-216 213 -216 530zM746 1749q66 0 140 -40
q75 -40 109 -40q74 0 95 84l100 -8q-23 -201 -189 -201q-57 0 -132 40t-109 40q-72 0 -88 -72l-101 9q9 82 59 135t116 53z" />
    <glyph glyph-name="Odieresis" unicode="&#xd6;" horiz-adv-x="1761" 
d="M295 713q0 -256 167 -425t419 -169q251 0 417 169t166 425t-166 425t-418 169t-418 -169q-167 -169 -167 -425zM137 713q0 317 216 529q215 212 527 212t528 -212t216 -529t-216 -529t-527 -213q-311 0 -528 212q-216 213 -216 530zM670 1524q-41 0 -72 30t-31 72
q0 43 31 73t72 30q42 0 72 -30t30 -73q0 -42 -30 -72t-72 -30zM1092 1524q-41 0 -72 30t-31 72q0 43 31 73t72 30q42 0 72 -30t30 -73q0 -42 -30 -72t-72 -30z" />
    <glyph glyph-name="multiply" unicode="&#xd7;" horiz-adv-x="868" 
d="M211 365l-92 96l221 221l-221 221l92 94l223 -223l221 223l95 -94l-222 -221l222 -221l-95 -96l-221 223z" />
    <glyph glyph-name="Oslash" unicode="&#xd8;" horiz-adv-x="1761" 
d="M1464 711q0 254 -161 422l-707 -945q129 -70 285 -69q251 0 417 169t166 423zM881 1307q-252 0 -419 -169q-167 -168 -167 -432t182 -434l713 951q-139 84 -309 84zM137 700q0 330 216 542t528 212q215 0 397 -111l119 160l116 -88l-118 -160q229 -217 229 -538
t-216 -533t-527 -213q-201 0 -375 97l-115 -154l-117 86l113 152q-250 218 -250 548z" />
    <glyph glyph-name="Ugrave" unicode="&#xd9;" horiz-adv-x="1507" 
d="M219 500v927h160v-911q0 -193 100 -293q101 -100 275 -100t274 100t100 293v911h160v-927q0 -252 -147 -388t-387 -136t-388 136t-147 388zM707 1526l-191 297h203l108 -297h-120z" />
    <glyph glyph-name="Uacute" unicode="&#xda;" horiz-adv-x="1507" 
d="M219 500v927h160v-911q0 -193 100 -293q101 -100 275 -100t274 100t100 293v911h160v-927q0 -252 -147 -388t-387 -136t-388 136t-147 388zM686 1526l109 297h202l-190 -297h-121z" />
    <glyph glyph-name="Ucircumflex" unicode="&#xdb;" horiz-adv-x="1507" 
d="M219 500v927h160v-911q0 -193 100 -293q101 -100 275 -100t274 100t100 293v911h160v-927q0 -252 -147 -388t-387 -136t-388 136t-147 388zM418 1575l336 299l336 -299h-183l-153 154l-154 -154h-182z" />
    <glyph glyph-name="Udieresis" unicode="&#xdc;" horiz-adv-x="1507" 
d="M219 500v927h160v-911q0 -193 100 -293q101 -100 275 -100t274 100t100 293v911h160v-927q0 -252 -147 -388t-387 -136t-388 136t-147 388zM543 1524q-41 0 -72 30t-31 72q0 43 31 73t72 30t71 -30t31 -73q-1 -42 -31 -72t-71 -30zM965 1524q-41 0 -72 30t-31 72
q0 43 31 73t72 30t71 -30t31 -73q-1 -42 -31 -72t-71 -30z" />
    <glyph glyph-name="Yacute" unicode="&#xdd;" horiz-adv-x="1355" 
d="M600 0v586l-502 841h176l408 -684l403 684h172l-497 -841v-586h-160zM612 1526l109 297h203l-191 -297h-121z" />
    <glyph glyph-name="Thorn" unicode="&#xde;" horiz-adv-x="1085" 
d="M389 446h133q135 0 207 70t72 194t-72 194t-209 69h-131v-527zM229 0v1427h160v-305h133q209 0 324 -116t115 -300t-111 -296t-313 -113h-148v-297h-160z" />
    <glyph glyph-name="germandbls" unicode="&#xdf;" horiz-adv-x="1208" 
d="M156 0v1106q0 148 101 250t249 102t250 -102t102 -242t-92 -231q131 -25 235 -140q105 -115 105 -307t-140 -330q-140 -137 -356 -137q-47 0 -104 11v155q49 -18 104 -18q139 0 238 96q98 96 98 232q0 135 -98 231t-238 96q-55 0 -104 -18v143q193 37 192 209
q0 84 -56 144t-136 60t-135 -58q-55 -60 -56 -146v-1106h-159z" />
    <glyph glyph-name="agrave" unicode="&#xe0;" 
d="M276 289q0 -178 258 -178q132 1 214 65t81 172v184q-43 -45 -226 -60t-255 -55t-72 -128zM498 -31q-166 0 -270 85q-103 86 -103 234q0 292 430 324q160 12 217 39t57 101t-54 122q-54 47 -167 48q-168 0 -278 -146l-105 86q137 201 383 201q168 0 270 -87t103 -235v-551
q0 -37 14 -55q15 -18 29 -21t43 -3h18v-109q-35 -23 -104 -22q-111 0 -131 120q-111 -131 -352 -131zM535 1130l-191 297h203l108 -297h-120z" />
    <glyph glyph-name="aacute" unicode="&#xe1;" 
d="M276 289q0 -178 258 -178q132 1 214 65t81 172v184q-43 -45 -226 -60t-255 -55t-72 -128zM498 -31q-166 0 -270 85q-103 86 -103 234q0 292 430 324q160 12 217 39t57 101t-54 122q-54 47 -167 48q-168 0 -278 -146l-105 86q137 201 383 201q168 0 270 -87t103 -235v-551
q0 -37 14 -55q15 -18 29 -21t43 -3h18v-109q-35 -23 -104 -22q-111 0 -131 120q-111 -131 -352 -131zM508 1130l108 297h203l-190 -297h-121z" />
    <glyph glyph-name="acircumflex" unicode="&#xe2;" 
d="M276 289q0 -178 258 -178q132 1 214 65t81 172v184q-43 -45 -226 -60t-255 -55t-72 -128zM498 -31q-166 0 -270 85q-103 86 -103 234q0 292 430 324q160 12 217 39t57 101t-54 122q-54 47 -167 48q-168 0 -278 -146l-105 86q137 201 383 201q168 0 270 -87t103 -235v-551
q0 -37 14 -55q15 -18 29 -21t43 -3h18v-109q-35 -23 -104 -22q-111 0 -131 120q-111 -131 -352 -131zM250 1180l336 299l336 -299h-183l-153 153l-154 -153h-182z" />
    <glyph glyph-name="atilde" unicode="&#xe3;" 
d="M276 289q0 -178 258 -178q132 1 214 65t81 172v184q-43 -45 -226 -60t-255 -55t-72 -128zM498 -31q-166 0 -270 85q-103 86 -103 234q0 292 430 324q160 12 217 39t57 101t-54 122q-54 47 -167 48q-168 0 -278 -146l-105 86q137 201 383 201q168 0 270 -87t103 -235v-551
q0 -37 14 -55q15 -18 29 -21t43 -3h18v-109q-35 -23 -104 -22q-111 0 -131 120q-111 -131 -352 -131zM452 1413q66 0 141 -40t109 -40q74 0 95 84l100 -8q-23 -201 -188 -201q-57 0 -132 40t-110 40q-72 0 -88 -71l-100 8q10 82 59 135q48 53 114 53z" />
    <glyph glyph-name="adieresis" unicode="&#xe4;" 
d="M276 289q0 -178 258 -178q132 1 214 65t81 172v184q-43 -45 -226 -60t-255 -55t-72 -128zM498 -31q-166 0 -270 85q-103 86 -103 234q0 292 430 324q160 12 217 39t57 101t-54 122q-54 47 -167 48q-168 0 -278 -146l-105 86q137 201 383 201q168 0 270 -87t103 -235v-551
q0 -37 14 -55q15 -18 29 -21t43 -3h18v-109q-35 -23 -104 -22q-111 0 -131 120q-111 -131 -352 -131zM387 1200q-41 0 -72 30t-30 73t31 73t71 29q41 0 72 -30q31 -31 31 -73t-32 -72q-30 -30 -71 -30zM809 1200q-41 0 -72 30t-30 73t31 73t71 29q41 0 72 -30q31 -31 31 -73
t-32 -72q-30 -30 -71 -30z" />
    <glyph glyph-name="aring" unicode="&#xe5;" 
d="M276 289q0 -178 258 -178q132 1 214 65t81 172v184q-43 -45 -226 -60t-255 -55t-72 -128zM498 -31q-166 0 -270 85q-103 86 -103 234q0 292 430 324q160 12 217 39t57 101t-54 122q-54 47 -167 48q-168 0 -278 -146l-105 86q137 201 383 201q168 0 270 -87t103 -235v-551
q0 -37 14 -55q15 -18 29 -21t43 -3h18v-109q-35 -23 -104 -22q-111 0 -131 120q-111 -131 -352 -131zM590 1243q38 0 66 29q28 30 28 68t-28 66t-66 28t-68 -28q-28 -28 -28 -67t28 -67t68 -29zM590 1139q-82 0 -141 59t-60 141q-1 83 59 141t142 58t140 -58t58 -142
t-58 -141q-58 -58 -140 -58z" />
    <glyph glyph-name="ae" unicode="&#xe6;" horiz-adv-x="1904" 
d="M1305 922q-125 0 -220 -85q-93 -86 -120 -221h667q-25 135 -113 221q-89 85 -214 85zM813 348v133q-63 -33 -164 -32h-174q-209 0 -209 -164q0 -90 56 -127t190 -37q134 1 218 65t83 162zM813 739q0 176 -223 183q-182 0 -299 -166l-105 86q145 221 404 221
q123 0 212 -52t128 -143q141 195 379 195q203 0 344 -157t141 -390q0 -16 -2 -33h-838q6 -170 102 -271t257 -101q109 -1 179 33t148 110l101 -98q-170 -186 -432 -186t-398 200q-119 -201 -440 -201q-168 0 -262 87q-94 88 -94 230t98 228t262 86h174q100 0 132 37t32 102z
" />
    <glyph glyph-name="ccedilla" unicode="&#xe7;" horiz-adv-x="1140" 
d="M113 533q0 216 159 373q160 157 395 157t386 -156l-92 -106q-117 121 -294 121t-290 -116t-113 -290t113 -290t290 -116t294 121l92 -106q-152 -156 -391 -156h-19l-29 -63q56 0 96 -40t40 -106q0 -166 -211 -166q-92 0 -152 48l39 79q58 -35 104 -35t72 21q26 20 25 61
q0 40 -36 58t-114 18l58 140q-184 41 -304 187q-118 146 -118 362z" />
    <glyph glyph-name="egrave" unicode="&#xe8;" horiz-adv-x="1210" 
d="M942 616q0 125 -92 215q-92 91 -227 91t-238 -90t-111 -216h668zM113 504v8q0 248 145 400q146 152 364 151t350 -149t132 -365q0 -35 -2 -66h-838q6 -170 106 -271t263 -101q106 1 177 35t140 108l101 -98q-165 -182 -407 -182t-386 144q-144 146 -145 386zM598 1130
l-190 297h202l109 -297h-121z" />
    <glyph glyph-name="eacute" unicode="&#xe9;" horiz-adv-x="1210" 
d="M942 616q0 125 -92 215q-92 91 -227 91t-238 -90t-111 -216h668zM113 504v8q0 248 145 400q146 152 364 151t350 -149t132 -365q0 -35 -2 -66h-838q6 -170 106 -271t263 -101q106 1 177 35t140 108l101 -98q-165 -182 -407 -182t-386 144q-144 146 -145 386zM569 1130
l109 297h203l-191 -297h-121z" />
    <glyph glyph-name="ecircumflex" unicode="&#xea;" horiz-adv-x="1210" 
d="M942 616q0 125 -92 215q-92 91 -227 91t-238 -90t-111 -216h668zM113 504v8q0 248 145 400q146 152 364 151t350 -149t132 -365q0 -35 -2 -66h-838q6 -170 106 -271t263 -101q106 1 177 35t140 108l101 -98q-165 -182 -407 -182t-386 144q-144 146 -145 386zM297 1180
l336 299l336 -299h-183l-153 153l-154 -153h-182z" />
    <glyph glyph-name="edieresis" unicode="&#xeb;" horiz-adv-x="1210" 
d="M942 616q0 125 -92 215q-92 91 -227 91t-238 -90t-111 -216h668zM113 504v8q0 248 145 400q146 152 364 151t350 -149t132 -365q0 -35 -2 -66h-838q6 -170 106 -271t263 -101q106 1 177 35t140 108l101 -98q-165 -182 -407 -182t-386 144q-144 146 -145 386zM420 1200
q-41 0 -72 30t-31 73t31 73t72 29q41 0 72 -30q30 -31 30 -73t-30 -72t-72 -30zM842 1200q-41 0 -72 30t-31 73t31 73t72 29q42 0 72 -30q30 -31 30 -73t-30 -72t-72 -30z" />
    <glyph glyph-name="igrave" unicode="&#xec;" horiz-adv-x="471" 
d="M160 0v1032h151v-1032h-151zM188 1130l-190 297h203l108 -297h-121z" />
    <glyph glyph-name="iacute" unicode="&#xed;" horiz-adv-x="471" 
d="M160 0v1032h151v-1032h-151zM164 1130l108 297h203l-190 -297h-121z" />
    <glyph glyph-name="icircumflex" unicode="&#xee;" horiz-adv-x="471" 
d="M160 0v1032h151v-1032h-151zM133 1180h-172l275 299l274 -299h-172l-102 147z" />
    <glyph glyph-name="idieresis" unicode="&#xef;" horiz-adv-x="471" 
d="M160 0v1032h151v-1032h-151zM88 1200q-41 0 -72 30t-30 73q0 43 30 73t72 29q41 0 72 -30q30 -31 30 -73t-30 -72t-72 -30zM383 1200q-41 0 -72 30t-30 73t31 73t71 29q41 0 72 -30q31 -31 31 -73t-32 -72q-30 -30 -71 -30z" />
    <glyph glyph-name="eth" unicode="&#xf0;" horiz-adv-x="1179" 
d="M272 444q0 -139 90 -233t228 -94t227 94q90 94 90 233q0 140 -90 234t-227 94t-228 -94q-90 -95 -90 -234zM1067 500q0 -240 -126 -385t-339 -145t-351 134q-138 135 -138 338t136 340t320 138q97 0 185 -39t135 -105q-33 102 -110 200t-158 163l-160 -152l-99 105
l138 131q-123 72 -244 94l29 143q160 -29 327 -131l174 164l99 -104l-154 -146q336 -280 336 -743z" />
    <glyph glyph-name="ntilde" unicode="&#xf1;" horiz-adv-x="1171" 
d="M158 0v1032h151v-174q41 86 128 138t204 53q175 -1 279 -107t104 -283v-659h-152v627q0 129 -72 205t-200 75q-127 0 -209 -81t-82 -210v-616h-151zM476 1413q66 0 141 -40t110 -40q74 0 94 84l101 -8q-23 -201 -189 -201q-57 0 -132 40t-109 40q-72 0 -89 -71l-100 8
q10 82 59 135q48 53 114 53z" />
    <glyph glyph-name="ograve" unicode="&#xf2;" horiz-adv-x="1323" 
d="M264 516q0 -174 113 -290t285 -116t284 116t113 290q0 174 -113 290q-112 116 -284 116t-285 -116t-113 -290zM113 516q0 233 159 390q160 157 390 157t389 -157t159 -390t-160 -390t-388 -157q-229 0 -390 157q-159 157 -159 390zM598 1130l-190 297h202l109 -297h-121z
" />
    <glyph glyph-name="oacute" unicode="&#xf3;" horiz-adv-x="1323" 
d="M264 516q0 -174 113 -290t285 -116t284 116t113 290q0 174 -113 290q-112 116 -284 116t-285 -116t-113 -290zM113 516q0 233 159 390q160 157 390 157t389 -157t159 -390t-160 -390t-388 -157q-229 0 -390 157q-159 157 -159 390zM604 1130l109 297h202l-190 -297h-121z
" />
    <glyph glyph-name="ocircumflex" unicode="&#xf4;" horiz-adv-x="1323" 
d="M264 516q0 -174 113 -290t285 -116t284 116t113 290q0 174 -113 290q-112 116 -284 116t-285 -116t-113 -290zM113 516q0 233 159 390q160 157 390 157t389 -157t159 -390t-160 -390t-388 -157q-229 0 -390 157q-159 157 -159 390zM326 1180l336 299l335 -299h-182
l-153 153l-154 -153h-182z" />
    <glyph glyph-name="otilde" unicode="&#xf5;" horiz-adv-x="1323" 
d="M264 516q0 -174 113 -290t285 -116t284 116t113 290q0 174 -113 290q-112 116 -284 116t-285 -116t-113 -290zM113 516q0 233 159 390q160 157 390 157t389 -157t159 -390t-160 -390t-388 -157q-229 0 -390 157q-159 157 -159 390zM524 1413q66 0 141 -40t109 -40
q74 0 94 84l101 -8q-23 -201 -189 -201q-57 0 -132 40t-109 40q-72 0 -88 -71l-101 8q10 82 60 135q48 53 114 53z" />
    <glyph glyph-name="odieresis" unicode="&#xf6;" horiz-adv-x="1323" 
d="M264 516q0 -174 113 -290t285 -116t284 116t113 290q0 174 -113 290q-112 116 -284 116t-285 -116t-113 -290zM113 516q0 233 159 390q160 157 390 157t389 -157t159 -390t-160 -390t-388 -157q-229 0 -390 157q-159 157 -159 390zM451 1200q-41 0 -72 30t-31 73t31 73
t72 29q41 0 71 -30q30 -31 31 -73q-1 -42 -31 -72t-71 -30zM872 1200q-42 0 -72 30t-30 73t31 73t71 29q40 0 72 -30q31 -31 31 -73t-31 -72t-72 -30z" />
    <glyph glyph-name="divide" unicode="&#xf7;" horiz-adv-x="954" 
d="M477 326q-41 0 -71 30t-31 72q0 43 31 73q32 29 72 29t71 -30t31 -72t-31 -72t-72 -30zM127 641v141h700v-141h-700zM477 893q-41 0 -71 30q-30 31 -31 73q0 42 31 72q32 30 72 30t71 -30t31 -73t-31 -73t-72 -29z" />
    <glyph glyph-name="oslash" unicode="&#xf8;" horiz-adv-x="1323" 
d="M662 111q172 -1 284 115t113 286q0 170 -105 285l-473 -645q82 -41 181 -41zM662 922q-172 0 -285 -116t-113 -288t109 -287l473 648q-86 43 -184 43zM113 511q0 238 159 395q160 157 390 157q145 0 270 -68l76 105l110 -80l-78 -102q170 -160 170 -398t-160 -394
q-160 -157 -388 -157q-141 0 -267 66l-84 -115l-108 82l82 111q-172 160 -172 398z" />
    <glyph glyph-name="ugrave" unicode="&#xf9;" horiz-adv-x="1157" 
d="M145 399v633h152v-618q0 -145 75 -221t206 -76q130 0 206 77t76 222v616h152v-618q0 -209 -122 -324t-316 -115q-194 1 -311 111q-118 110 -118 313zM526 1130l-190 297h203l108 -297h-121z" />
    <glyph glyph-name="uacute" unicode="&#xfa;" horiz-adv-x="1157" 
d="M145 399v633h152v-618q0 -145 75 -221t206 -76q130 0 206 77t76 222v616h152v-618q0 -209 -122 -324t-316 -115q-194 1 -311 111q-118 110 -118 313zM508 1130l108 297h203l-190 -297h-121z" />
    <glyph glyph-name="ucircumflex" unicode="&#xfb;" horiz-adv-x="1157" 
d="M145 399v633h152v-618q0 -145 75 -221t206 -76q130 0 206 77t76 222v616h152v-618q0 -209 -122 -324t-316 -115q-194 1 -311 111q-118 110 -118 313zM244 1180l336 299l335 -299h-182l-153 153l-154 -153h-182z" />
    <glyph glyph-name="udieresis" unicode="&#xfc;" horiz-adv-x="1157" 
d="M145 399v633h152v-618q0 -145 75 -221t206 -76q130 0 206 77t76 222v616h152v-618q0 -209 -122 -324t-316 -115q-194 1 -311 111q-118 110 -118 313zM369 1200q-41 0 -72 30t-31 73t31 73t72 29q41 0 71 -30q30 -31 31 -73q-1 -42 -31 -72t-71 -30zM791 1200
q-41 0 -72 30t-31 73t31 73t72 29q41 0 71 -30q30 -31 31 -73q-1 -42 -31 -72t-71 -30z" />
    <glyph glyph-name="yacute" unicode="&#xfd;" horiz-adv-x="1110" 
d="M274 -428q-59 0 -102 18v140q43 -16 99 -16t96 27q40 28 77 120l45 116l-417 1055h151l340 -870l328 870h151l-467 -1208q-43 -112 -109 -182t-192 -70zM498 1130l108 297h203l-191 -297h-120z" />
    <glyph glyph-name="thorn" unicode="&#xfe;" horiz-adv-x="1310" 
d="M291 516q-1 -174 109 -290t273 -116t268 116t106 290t-105 290t-269 116t-273 -116t-109 -290zM158 -395v1822h151v-548q45 78 136 131t231 53q219 0 371 -157q151 -157 151 -390t-152 -390t-370 -157q-138 -1 -230 53t-137 132v-549h-151z" />
    <glyph glyph-name="ydieresis" unicode="&#xff;" horiz-adv-x="1110" 
d="M274 -428q-59 0 -102 18v140q43 -16 99 -16t96 27q40 28 77 120l45 116l-417 1055h151l340 -870l328 870h151l-467 -1208q-43 -112 -109 -182t-192 -70zM358 1200q-42 0 -72 30t-30 73t31 73t71 29q40 0 72 -30q31 -31 31 -73t-31 -72t-72 -30zM780 1200q-42 0 -72 30
t-30 73t31 73t71 29q40 0 72 -30q31 -31 31 -73t-31 -72t-72 -30z" />
    <glyph glyph-name="Amacron" unicode="&#x100;" horiz-adv-x="1517" 
d="M498 500h516l-258 606zM113 0l645 1479l647 -1479h-174l-154 352h-643l-153 -352h-168zM457 1575v141h602v-141h-602z" />
    <glyph glyph-name="amacron" unicode="&#x101;" 
d="M276 289q0 -178 258 -178q132 1 214 65t81 172v184q-43 -45 -226 -60t-255 -55t-72 -128zM498 -31q-166 0 -270 85q-103 86 -103 234q0 292 430 324q160 12 217 39t57 101t-54 122q-54 47 -167 48q-168 0 -278 -146l-105 86q137 201 383 201q168 0 270 -87t103 -235v-551
q0 -37 14 -55q15 -18 29 -21t43 -3h18v-109q-35 -23 -104 -22q-111 0 -131 120q-111 -131 -352 -131zM295 1231v141h602v-141h-602z" />
    <glyph glyph-name="Abreve" unicode="&#x102;" horiz-adv-x="1517" 
d="M498 500h516l-258 606zM113 0l645 1479l647 -1479h-174l-154 352h-643l-153 -352h-168zM758 1538q-123 0 -213 78t-107 207h142q47 -150 178 -150t178 150h141q-16 -129 -106 -207t-213 -78z" />
    <glyph glyph-name="abreve" unicode="&#x103;" 
d="M276 289q0 -178 258 -178q132 1 214 65t81 172v184q-43 -45 -226 -60t-255 -55t-72 -128zM498 -31q-166 0 -270 85q-103 86 -103 234q0 292 430 324q160 12 217 39t57 101t-54 122q-54 47 -167 48q-168 0 -278 -146l-105 86q137 201 383 201q168 0 270 -87t103 -235v-551
q0 -37 14 -55q15 -18 29 -21t43 -3h18v-109q-35 -23 -104 -22q-111 0 -131 120q-111 -131 -352 -131zM586 1143q-123 0 -213 78t-107 206h142q47 -149 178 -149t178 149h141q-16 -129 -106 -207t-213 -77z" />
    <glyph glyph-name="Aogonek" unicode="&#x104;" horiz-adv-x="1517" 
d="M498 500h516l-258 606zM1237 -188q1 -98 113 -99q52 0 108 31l-26 -121q-57 -29 -129 -29q-71 0 -133 50t-62 133q0 117 127 205l2 2l-160 368h-643l-153 -352h-168l645 1479l647 -1479q-61 -23 -115 -80q-54 -56 -53 -108z" />
    <glyph glyph-name="aogonek" unicode="&#x105;" 
d="M276 289q0 -178 258 -178q132 1 214 65t81 172v184q-43 -45 -226 -60t-255 -55t-72 -128zM926 -195q0 -92 112 -92q53 0 109 31l-27 -121q-56 -29 -128 -29t-134 50t-61 133q0 115 137 207q-70 23 -84 116q-111 -131 -352 -131q-166 0 -270 85q-103 85 -103 234
q0 292 430 324q160 12 217 39t57 101t-54 122q-54 47 -167 48q-168 0 -278 -146l-105 86q137 201 383 201q168 0 271 -87q102 -88 102 -235v-551q0 -37 14 -55q15 -18 29 -21t43 -3h18v-109q-160 -100 -159 -197z" />
    <glyph glyph-name="Cacute" unicode="&#x106;" horiz-adv-x="1538" 
d="M137 713q0 317 216 529t537 212t535 -242l-108 -98q-166 193 -427 193t-427 -169t-166 -425t166 -425t430 -169t430 200l109 -98q-214 -250 -538 -250t-541 212q-216 213 -216 530zM811 1526l109 297h202l-190 -297h-121z" />
    <glyph glyph-name="cacute" unicode="&#x107;" horiz-adv-x="1140" 
d="M113 516q0 233 159 390q160 157 395 157t386 -156l-92 -106q-117 121 -294 121t-290 -116t-113 -290t113 -290t290 -116t294 121l92 -106q-152 -156 -386 -156t-395 157q-159 157 -159 390zM594 1130l108 297h203l-190 -297h-121z" />
    <glyph glyph-name="Ccircumflex" unicode="&#x108;" horiz-adv-x="1538" 
d="M137 713q0 317 216 529t537 212t535 -242l-108 -98q-166 193 -427 193t-427 -169t-166 -425t166 -425t430 -169t430 200l109 -98q-214 -250 -538 -250t-541 212q-216 213 -216 530zM549 1575l336 299l336 -299h-183l-153 154l-154 -154h-182z" />
    <glyph glyph-name="ccircumflex" unicode="&#x109;" horiz-adv-x="1140" 
d="M113 516q0 233 159 390q160 157 395 157t386 -156l-92 -106q-117 121 -294 121t-290 -116t-113 -290t113 -290t290 -116t294 121l92 -106q-152 -156 -386 -156t-395 157q-159 157 -159 390zM332 1180l336 299l336 -299h-183l-153 153l-154 -153h-182z" />
    <glyph glyph-name="Cdotaccent" unicode="&#x10a;" horiz-adv-x="1538" 
d="M137 713q0 317 216 529t537 212t535 -242l-108 -98q-166 193 -427 193t-427 -169t-166 -425t166 -425t430 -169t430 200l109 -98q-214 -250 -538 -250t-541 212q-216 213 -216 530zM870 1563q-42 -1 -72 29t-30 73t31 73t71 30t72 -30q31 -30 31 -73t-31 -73t-72 -29z
" />
    <glyph glyph-name="cdotaccent" unicode="&#x10b;" horiz-adv-x="1140" 
d="M113 516q0 233 159 390q160 157 395 157t386 -156l-92 -106q-117 121 -294 121t-290 -116t-113 -290t113 -290t290 -116t294 121l92 -106q-152 -156 -386 -156t-395 157q-159 157 -159 390zM655 1180q-41 0 -71 30t-31 72q0 43 31 73q32 29 72 29t71 -30t31 -72t-31 -72
t-72 -30z" />
    <glyph glyph-name="Ccaron" unicode="&#x10c;" horiz-adv-x="1538" 
d="M137 713q0 317 216 529t537 212t535 -242l-108 -98q-166 193 -427 193t-427 -169t-166 -425t166 -425t430 -169t430 200l109 -98q-214 -250 -538 -250t-541 212q-216 213 -216 530zM883 1524l-336 299h182l154 -154l153 154h183z" />
    <glyph glyph-name="ccaron" unicode="&#x10d;" horiz-adv-x="1140" 
d="M113 516q0 233 159 390q160 157 395 157t386 -156l-92 -106q-117 121 -294 121t-290 -116t-113 -290t113 -290t290 -116t294 121l92 -106q-152 -156 -386 -156t-395 157q-159 157 -159 390zM655 1128l-336 299h183l153 -153l154 153h182z" />
    <glyph glyph-name="Dcaron" unicode="&#x10e;" horiz-adv-x="1568" 
d="M389 147h289q288 0 438 154t150 413q0 258 -150 412t-440 154h-287v-1133zM229 0v1427h459q342 -1 540 -197t198 -518t-198 -516q-196 -196 -538 -196h-461zM711 1524l-336 299h182l154 -154l153 154h183z" />
    <glyph glyph-name="dcaron" unicode="&#x10f;" horiz-adv-x="1673" 
d="M264 516q0 -174 106 -290t268 -116t272 116t110 290t-110 290t-272 116t-268 -116t-106 -290zM113 516q0 233 151 390q152 157 371 157q139 0 230 -53t136 -131v548h152v-1427h-152v154q-45 -78 -136 -131t-230 -54q-219 0 -371 157q-151 157 -151 390zM1225 1130
l108 297h203l-190 -297h-121z" />
    <glyph glyph-name="Dcroat" unicode="&#x110;" horiz-adv-x="1560" 
d="M389 147h289q288 0 438 154t150 413q0 258 -150 412t-440 154h-287v-473h297v-148h-297v-512zM229 0v659h-133v148h133v620h459q342 -1 540 -197t198 -518t-198 -516q-196 -196 -538 -196h-461z" />
    <glyph glyph-name="dcroat" unicode="&#x111;" horiz-adv-x="1310" 
d="M264 516q0 -174 106 -290t268 -116t272 116t110 290t-110 290t-272 116t-268 -116t-106 -290zM113 516q0 233 151 390q152 157 371 157q139 0 230 -53t136 -131v299h-405v122h405v127h152v-127h117v-122h-117v-1178h-152v154q-45 -78 -136 -131t-230 -54q-219 0 -371 157
q-151 157 -151 390z" />
    <glyph glyph-name="Emacron" unicode="&#x112;" horiz-adv-x="1124" 
d="M229 0v1427h725v-147h-565v-453h526v-147h-526v-533h580v-147h-740zM287 1575v141h602v-141h-602z" />
    <glyph glyph-name="emacron" unicode="&#x113;" horiz-adv-x="1210" 
d="M942 616q0 125 -92 215q-92 91 -227 91t-238 -90t-111 -216h668zM113 504v8q0 248 145 400q146 152 364 151t350 -149t132 -365q0 -35 -2 -66h-838q6 -170 106 -271t263 -101q106 1 177 35t140 108l101 -98q-165 -182 -407 -182t-386 144q-144 146 -145 386zM332 1231
v141h602v-141h-602z" />
    <glyph glyph-name="Ebreve" unicode="&#x114;" horiz-adv-x="1124" 
d="M229 0v1427h725v-147h-565v-453h526v-147h-526v-533h580v-147h-740zM598 1538q-123 0 -213 78t-106 207h141q47 -150 178 -150t178 150h142q-16 -129 -106 -207t-214 -78z" />
    <glyph glyph-name="ebreve" unicode="&#x115;" horiz-adv-x="1210" 
d="M942 616q0 125 -92 215q-92 91 -227 91t-238 -90t-111 -216h668zM113 504v8q0 248 145 400q146 152 364 151t350 -149t132 -365q0 -35 -2 -66h-838q6 -170 106 -271t263 -101q106 1 177 35t140 108l101 -98q-165 -182 -407 -182t-386 144q-144 146 -145 386zM631 1143
q-123 0 -213 78t-107 206h142q47 -149 178 -149t178 149h141q-16 -129 -106 -207t-213 -77z" />
    <glyph glyph-name="Edotaccent" unicode="&#x116;" horiz-adv-x="1124" 
d="M229 0v1427h725v-147h-565v-453h526v-147h-526v-533h580v-147h-740zM600 1563q-41 -1 -72 29t-30 73q0 43 30 73q31 30 72 30t72 -30q30 -30 30 -73t-30 -73q-31 -29 -72 -29z" />
    <glyph glyph-name="edotaccent" unicode="&#x117;" horiz-adv-x="1210" 
d="M942 616q0 125 -92 215q-92 91 -227 91t-238 -90t-111 -216h668zM113 504v8q0 248 145 400q146 152 364 151t350 -149t132 -365q0 -35 -2 -66h-838q6 -170 106 -271t263 -101q106 1 177 35t140 108l101 -98q-165 -182 -407 -182t-386 144q-144 146 -145 386zM631 1200
q-41 0 -72 30t-31 73t31 73t72 29q41 0 71 -30q30 -31 31 -73q-1 -42 -31 -72t-71 -30z" />
    <glyph glyph-name="Eogonek" unicode="&#x118;" horiz-adv-x="1124" 
d="M229 0v1427h725v-147h-565v-453h526v-147h-526v-533h580v-147q-156 -98 -156 -195q0 -45 30 -69q31 -24 83 -23q52 0 108 31l-26 -121q-57 -29 -129 -29q-71 0 -133 50t-62 133q0 127 154 223h-609z" />
    <glyph glyph-name="eogonek" unicode="&#x119;" horiz-adv-x="1210" 
d="M942 616q0 125 -92 215q-92 91 -227 91t-238 -90t-111 -216h668zM113 504v8q0 248 145 400q146 152 364 151t350 -149t132 -365q0 -35 -2 -66h-838q6 -170 106 -271t263 -101q106 1 177 35t140 108l101 -98q-55 -57 -113 -94t-121 -78q-64 -41 -91 -80q-26 -38 -27 -87
q-1 -48 28 -72t79 -24t105 31l-26 -121q-57 -29 -125 -29t-129 51q-61 50 -61 144t104 176h-2q-258 -1 -408 137t-151 394z" />
    <glyph glyph-name="Ecaron" unicode="&#x11a;" horiz-adv-x="1124" 
d="M229 0v1427h725v-147h-565v-453h526v-147h-526v-533h580v-147h-740zM608 1524l-336 299h183l153 -154l154 154h182z" />
    <glyph glyph-name="ecaron" unicode="&#x11b;" horiz-adv-x="1210" 
d="M942 616q0 125 -92 215q-92 91 -227 91t-238 -90t-111 -216h668zM113 504v8q0 248 145 400q146 152 364 151t350 -149t132 -365q0 -35 -2 -66h-838q6 -170 106 -271t263 -101q106 1 177 35t140 108l101 -98q-165 -182 -407 -182t-386 144q-144 146 -145 386zM629 1128
l-336 299h182l154 -153l153 153h183z" />
    <glyph glyph-name="Gcircumflex" unicode="&#x11c;" horiz-adv-x="1728" 
d="M137 713q0 317 216 529t528 212q199 0 365 -95t261 -257l-133 -76q-70 129 -200 205q-131 76 -293 76q-252 0 -419 -169t-167 -425t167 -425t411 -169t390 137t169 375h-467v147h622q4 -23 4 -65q1 -336 -197 -539t-511 -203t-530 212q-216 213 -216 530zM543 1575
l336 299l335 -299h-182l-153 154l-154 -154h-182z" />
    <glyph glyph-name="gcircumflex" unicode="&#x11d;" horiz-adv-x="1310" 
d="M264 524q0 -170 106 -282t268 -113q162 0 272 113q110 112 110 282t-110 284t-272 114t-268 -114t-106 -284zM639 -309q162 0 262 82t100 313v86q-45 -78 -136 -131t-230 -53q-219 0 -371 152t-151 384q0 231 151 385q152 154 371 154q139 0 230 -53t136 -131v153h152
v-860q0 -200 -30 -316t-134 -198q-137 -109 -348 -109q-272 0 -489 158l77 121q190 -137 410 -137zM319 1180l336 299l336 -299h-182l-154 153l-153 -153h-183z" />
    <glyph glyph-name="Gbreve" unicode="&#x11e;" horiz-adv-x="1728" 
d="M137 713q0 317 216 529t528 212q199 0 365 -95t261 -257l-133 -76q-70 129 -200 205q-131 76 -293 76q-252 0 -419 -169t-167 -425t167 -425t411 -169t390 137t169 375h-467v147h622q4 -23 4 -65q1 -336 -197 -539t-511 -203t-530 212q-216 213 -216 530zM874 1538
q-122 0 -212 78t-107 207h141q47 -150 178 -150t179 150h141q-16 -129 -106 -207t-214 -78z" />
    <glyph glyph-name="gbreve" unicode="&#x11f;" horiz-adv-x="1310" 
d="M264 524q0 -170 106 -282t268 -113q162 0 272 113q110 112 110 282t-110 284t-272 114t-268 -114t-106 -284zM639 -309q162 0 262 82t100 313v86q-45 -78 -136 -131t-230 -53q-219 0 -371 152t-151 384q0 231 151 385q152 154 371 154q139 0 230 -53t136 -131v153h152
v-860q0 -200 -30 -316t-134 -198q-137 -109 -348 -109q-272 0 -489 158l77 121q190 -137 410 -137zM641 1143q-123 0 -213 78t-106 206h141q47 -149 178 -149t178 149h142q-17 -129 -107 -207t-213 -77z" />
    <glyph glyph-name="Gdotaccent" unicode="&#x120;" horiz-adv-x="1728" 
d="M137 713q0 317 216 529t528 212q199 0 365 -95t261 -257l-133 -76q-70 129 -200 205q-131 76 -293 76q-252 0 -419 -169t-167 -425t167 -425t411 -169t390 137t169 375h-467v147h622q4 -23 4 -65q1 -336 -197 -539t-511 -203t-530 212q-216 213 -216 530zM883 1563
q-41 -1 -72 29t-31 73t31 73t72 30t71 -30t31 -73q-1 -43 -31 -73t-71 -29z" />
    <glyph glyph-name="gdotaccent" unicode="&#x121;" horiz-adv-x="1310" 
d="M264 524q0 -170 106 -282t268 -113q162 0 272 113q110 112 110 282t-110 284t-272 114t-268 -114t-106 -284zM639 -309q162 0 262 82t100 313v86q-45 -78 -136 -131t-230 -53q-219 0 -371 152t-151 384q0 231 151 385q152 154 371 154q139 0 230 -53t136 -131v153h152
v-860q0 -200 -30 -316t-134 -198q-137 -109 -348 -109q-272 0 -489 158l77 121q190 -137 410 -137zM655 1200q-41 0 -71 30t-31 73q0 43 31 73q32 30 72 29q40 0 71 -30q31 -31 31 -73t-31 -72t-72 -30z" />
    <glyph glyph-name="Gcommaaccent" unicode="&#x122;" horiz-adv-x="1728" 
d="M137 713q0 317 216 529t528 212q199 0 365 -95t261 -257l-133 -76q-70 129 -200 205q-131 76 -293 76q-252 0 -419 -169t-167 -425t167 -425t411 -169t390 137t169 375h-467v147h622q4 -23 4 -65q1 -336 -197 -539t-511 -203t-530 212q-216 213 -216 530zM674 -395
l108 297h203l-190 -297h-121z" />
    <glyph glyph-name="gcommaaccent" unicode="&#x123;" horiz-adv-x="1310" 
d="M264 524q0 -170 106 -282t268 -113q162 0 272 113q110 112 110 282t-110 284t-272 114t-268 -114t-106 -284zM639 -309q162 0 262 82t100 313v86q-45 -78 -136 -131t-230 -53q-219 0 -371 152t-151 384q0 231 151 385q152 154 371 154q139 0 230 -53t136 -131v153h152
v-860q0 -200 -30 -316t-134 -198q-137 -109 -348 -109q-272 0 -489 158l77 121q190 -137 410 -137zM563 1130l109 297h202l-190 -297h-121z" />
    <glyph glyph-name="Hcircumflex" unicode="&#x124;" horiz-adv-x="1570" 
d="M229 0v1427h160v-596h793v596h159v-1427h-159v684h-793v-684h-160zM449 1575l335 299l336 -299h-182l-154 154l-153 -154h-182z" />
    <glyph glyph-name="hcircumflex" unicode="&#x125;" horiz-adv-x="1155" 
d="M158 0v1427h151v-569q41 86 123 138t195 53q170 -1 270 -107t100 -283v-659h-151v627q0 129 -69 205t-189 75q-120 0 -200 -81q-79 -81 -79 -210v-616h-151zM80 1477h-182l335 299l336 -299h-182l-154 153z" />
    <glyph glyph-name="Hbar" unicode="&#x126;" horiz-adv-x="1570" 
d="M389 831h793v201h-793v-201zM229 0v1032h-120v142h120v253h160v-253h793v253h159v-253h121v-142h-121v-1032h-159v684h-793v-684h-160z" />
    <glyph glyph-name="hbar" unicode="&#x127;" horiz-adv-x="1155" 
d="M158 0v1174h-117v122h117v131h151v-131h406v-122h-406v-316q41 86 123 138t195 53q170 -1 270 -107t100 -283v-659h-151v627q0 131 -68 206t-190 75t-200 -82q-79 -81 -79 -210v-616h-151z" />
    <glyph glyph-name="Itilde" unicode="&#x128;" horiz-adv-x="634" 
d="M238 0v1427h159v-1427h-159zM182 1749q66 0 141 -40t109 -40q74 0 94 84l101 -8q-23 -201 -189 -201q-57 0 -132 40t-109 40q-72 0 -88 -72l-101 9q10 82 60 135q48 53 114 53z" />
    <glyph glyph-name="itilde" unicode="&#x129;" horiz-adv-x="471" 
d="M160 0v1032h151v-1032h-151zM116 1413q54 0 122 -40t88 -40q59 0 75 84l97 -8q-20 -197 -162 -197q-41 0 -109 40t-90 40q-57 1 -69 -71l-99 8q10 82 51 133q42 51 96 51z" />
    <glyph glyph-name="Imacron" unicode="&#x12a;" horiz-adv-x="634" 
d="M238 0v1427h159v-1427h-159zM37 1575v141h561v-141h-561z" />
    <glyph glyph-name="imacron" unicode="&#x12b;" horiz-adv-x="471" 
d="M160 0v1032h151v-1032h-151zM-8 1231v141h487v-141h-487z" />
    <glyph glyph-name="Ibreve" unicode="&#x12c;" horiz-adv-x="634" 
d="M238 0v1427h159v-1427h-159zM317 1538q-123 0 -213 78t-106 207h141q47 -150 178 -150t179 150h141q-17 -129 -107 -207t-213 -78z" />
    <glyph glyph-name="ibreve" unicode="&#x12d;" horiz-adv-x="471" 
d="M160 0v1032h151v-1032h-151zM236 1290q57 0 87 37t33 100h142q-4 -125 -76 -199t-186 -73q-115 0 -187 74t-76 198h142q9 -137 121 -137z" />
    <glyph glyph-name="Iogonek" unicode="&#x12e;" horiz-adv-x="634" 
d="M238 1427h159v-1427q-55 -20 -109 -78t-54 -110t29 -76q30 -24 83 -23q53 0 109 31l-27 -121q-57 -29 -129 -29t-133 50t-62 133q0 119 134 209v1441z" />
    <glyph glyph-name="iogonek" unicode="&#x12f;" horiz-adv-x="471" 
d="M236 1200q-41 0 -72 30t-31 73t31 73t72 29q42 0 72 -30q30 -31 30 -73t-30 -72t-72 -30zM152 -195q0 -92 112 -92q53 0 109 31l-27 -121q-57 -29 -129 -29t-133 50t-61 133q0 121 137 213v1042h151v-1030q-160 -100 -159 -197z" />
    <glyph glyph-name="Idotaccent" unicode="&#x130;" horiz-adv-x="634" 
d="M238 0v1427h159v-1427h-159zM317 1563q-41 -1 -71 29t-31 73q0 43 31 73q32 30 72 30t71 -30t31 -73t-31 -73t-72 -29z" />
    <glyph glyph-name="dotlessi" unicode="&#x131;" horiz-adv-x="471" 
d="M160 0v1032h151v-1032h-151z" />
    <glyph glyph-name="IJ" unicode="&#x132;" horiz-adv-x="1054" 
d="M238 289v1138h159v-1138h-159zM422 119q100 0 143 19t65 44q46 52 46 236v1009h160v-989q0 -271 -92 -369t-250 -97q-158 0 -256 14v147q84 -14 184 -14z" />
    <glyph glyph-name="ij" unicode="&#x133;" horiz-adv-x="829" 
d="M160 283v749h151v-749h-151zM518 301v731h152v-731q0 -190 -103 -270q-73 -61 -201 -61t-202 24v143q86 -27 181 -27t134 46q39 45 39 145zM236 1200q-41 0 -72 30t-31 73t31 73t72 29q42 0 72 -30q30 -31 30 -73t-30 -72t-72 -30zM594 1200q-41 0 -72 30t-30 73
q0 43 30 73t72 29q41 0 72 -30q30 -31 30 -73t-30 -72t-72 -30z" />
    <glyph glyph-name="Jcircumflex" unicode="&#x134;" horiz-adv-x="716" 
d="M182 121q62 0 99 39t47 92t10 135v1040h160v-1034q0 -246 -77 -335q-77 -87 -233 -87q-61 1 -118 19v151q50 -20 112 -20zM76 1575l336 299l336 -299h-183l-153 154l-154 -154h-182z" />
    <glyph glyph-name="jcircumflex" unicode="&#x135;" horiz-adv-x="507" 
d="M178 -106v1138h152v-1138q0 -319 -312 -320q-31 0 -55 4v143q33 -6 91 -6q124 0 124 179zM-23 1180l279 299l279 -299h-183l-96 147l-96 -147h-183z" />
    <glyph glyph-name="Kcommaaccent" unicode="&#x136;" horiz-adv-x="1388" 
d="M492 -395l108 297h203l-191 -297h-120zM229 0v1427h160v-757l686 757h197l-570 -622l586 -805h-192l-500 688l-207 -225v-463h-160z" />
    <glyph glyph-name="kcommaaccent" unicode="&#x137;" horiz-adv-x="1036" 
d="M430 -98h203l-191 -297h-120zM158 0v1427h151v-905l443 510h174l-391 -452l446 -580h-180l-363 471l-129 -149v-322h-151z" />
    <glyph glyph-name="Lacute" unicode="&#x139;" horiz-adv-x="1097" 
d="M229 0v1427h160v-1280h588v-147h-748zM266 1526l109 297h203l-191 -297h-121z" />
    <glyph glyph-name="lacute" unicode="&#x13a;" horiz-adv-x="614" 
d="M311 270q0 -162 115 -160q57 0 88 9v-142q-33 -8 -79 -8q-191 0 -249 134q-26 63 -26 157v1167h151v-1157zM162 1479l108 297h203l-190 -297h-121z" />
    <glyph glyph-name="Lcommaaccent" unicode="&#x13b;" horiz-adv-x="1097" 
d="M524 -98h203l-190 -297h-121zM229 0v1427h160v-1280h588v-147h-748z" />
    <glyph glyph-name="lcommaaccent" unicode="&#x13c;" horiz-adv-x="614" 
d="M156 -98h202l-190 -297h-121zM311 270q0 -162 115 -160q57 0 88 9v-142q-33 -8 -79 -8q-191 0 -249 134q-26 63 -26 157v1167h151v-1157z" />
    <glyph glyph-name="Lcaron" unicode="&#x13d;" horiz-adv-x="1097" 
d="M557 1130l109 297h202l-190 -297h-121zM229 0v1427h160v-1280h588v-147h-748z" />
    <glyph glyph-name="lcaron" unicode="&#x13e;" horiz-adv-x="727" 
d="M391 1130l109 297h202l-190 -297h-121zM311 270q0 -162 115 -160q57 0 88 9v-142q-33 -8 -79 -8q-191 0 -249 134q-26 63 -26 157v1167h151v-1157z" />
    <glyph glyph-name="Ldot" unicode="&#x13f;" horiz-adv-x="1097" 
d="M698 657q-42 0 -72 30t-30 73t31 73q31 29 71 29t72 -30q31 -30 31 -72q0 -43 -31 -73t-72 -30zM229 0v1427h160v-1280h588v-147h-748z" />
    <glyph glyph-name="ldot" unicode="&#x140;" horiz-adv-x="727" 
d="M522 651q-42 0 -72 30t-30 73q0 42 31 72t71 30t72 -30q31 -30 31 -72t-31 -73q-31 -30 -72 -30zM311 270q0 -162 115 -160q57 0 88 9v-142q-33 -8 -79 -8q-191 0 -249 134q-26 63 -26 157v1167h151v-1157z" />
    <glyph glyph-name="Lslash" unicode="&#x141;" horiz-adv-x="1095" 
d="M229 0v578l-137 -76v155l137 76v694h160v-606l287 162v-156l-287 -159v-521h588v-147h-748z" />
    <glyph glyph-name="lslash" unicode="&#x142;" horiz-adv-x="643" 
d="M464 -31q-276 0 -276 291v375l-139 -82v158l139 82v634h152v-544l174 104v-158l-174 -104v-455q0 -162 115 -160q57 0 88 9v-142q-33 -8 -79 -8z" />
    <glyph glyph-name="Nacute" unicode="&#x143;" horiz-adv-x="1619" 
d="M229 0v1479l1002 -1131v1079h160v-1478l-1002 1130v-1079h-160zM723 1526l108 297h203l-190 -297h-121z" />
    <glyph glyph-name="nacute" unicode="&#x144;" horiz-adv-x="1171" 
d="M158 0v1032h151v-174q41 86 128 138t204 53q175 -1 279 -107t104 -283v-659h-152v627q0 129 -72 205t-200 75q-127 0 -209 -81t-82 -210v-616h-151zM567 1130l109 297h203l-191 -297h-121z" />
    <glyph glyph-name="Ncommaaccent" unicode="&#x145;" horiz-adv-x="1619" 
d="M639 -395l109 297h202l-190 -297h-121zM229 0v1479l1002 -1131v1079h160v-1478l-1002 1130v-1079h-160z" />
    <glyph glyph-name="ncommaaccent" unicode="&#x146;" horiz-adv-x="1171" 
d="M504 -98h203l-191 -297h-121zM158 0v1032h151v-174q41 86 128 138t204 53q175 -1 279 -107t104 -283v-659h-152v627q0 129 -72 205t-200 75q-127 0 -209 -81t-82 -210v-616h-151z" />
    <glyph glyph-name="Ncaron" unicode="&#x147;" horiz-adv-x="1619" 
d="M229 0v1479l1002 -1131v1079h160v-1478l-1002 1130v-1079h-160zM809 1524l-336 299h182l154 -154l154 154h182z" />
    <glyph glyph-name="ncaron" unicode="&#x148;" horiz-adv-x="1171" 
d="M158 0v1032h151v-174q41 86 128 138t204 53q175 -1 279 -107t104 -283v-659h-152v627q0 129 -72 205t-200 75q-127 0 -209 -81t-82 -210v-616h-151zM631 1128l-336 299h182l154 -153l153 153h183z" />
    <glyph glyph-name="Eng" unicode="&#x14a;" horiz-adv-x="1619" 
d="M229 0v1479l1002 -1237v1185h160v-1427q0 -251 -78 -338q-78 -88 -242 -88q-55 0 -108 18v150q53 -20 108 -21q96 0 128 73t32 206v2l-842 1032v-1034h-160z" />
    <glyph glyph-name="eng" unicode="&#x14b;" horiz-adv-x="1144" 
d="M158 0v1032h151v-174q41 86 123 138t195 53q170 -1 270 -107t100 -283v-765q0 -315 -290 -320q-43 0 -76 4v143q33 -6 71 -6q76 0 110 41t34 138v733q0 131 -68 206t-190 75t-200 -82q-79 -81 -79 -210v-616h-151z" />
    <glyph glyph-name="Omacron" unicode="&#x14c;" horiz-adv-x="1761" 
d="M295 713q0 -256 167 -425t419 -169q251 0 417 169t166 425t-166 425t-418 169t-418 -169q-167 -169 -167 -425zM137 713q0 317 216 529q215 212 527 212t528 -212t216 -529t-216 -529t-527 -213q-311 0 -528 212q-216 213 -216 530zM580 1577v141h602v-141h-602z" />
    <glyph glyph-name="omacron" unicode="&#x14d;" horiz-adv-x="1323" 
d="M264 516q0 -174 113 -290t285 -116t284 116t113 290q0 174 -113 290q-112 116 -284 116t-285 -116t-113 -290zM113 516q0 233 159 390q160 157 390 157t389 -157t159 -390t-160 -390t-388 -157q-229 0 -390 157q-159 157 -159 390zM365 1231v141h602v-141h-602z" />
    <glyph glyph-name="Obreve" unicode="&#x14e;" horiz-adv-x="1761" 
d="M295 713q0 -256 167 -425t419 -169q251 0 417 169t166 425t-166 425t-418 169t-418 -169q-167 -169 -167 -425zM137 713q0 317 216 529q215 212 527 212t528 -212t216 -529t-216 -529t-527 -213q-311 0 -528 212q-216 213 -216 530zM881 1538q-123 0 -213 78t-107 207
h141q46 -150 178 -150t179 150h141q-16 -129 -106 -207t-213 -78z" />
    <glyph glyph-name="obreve" unicode="&#x14f;" horiz-adv-x="1323" 
d="M264 516q0 -174 113 -290t285 -116t284 116t113 290q0 174 -113 290q-112 116 -284 116t-285 -116t-113 -290zM113 516q0 233 159 390q160 157 390 157t389 -157t159 -390t-160 -390t-388 -157q-229 0 -390 157q-159 157 -159 390zM662 1143q-123 0 -213 78t-107 206h141
q47 -149 179 -149t178 149h141q-16 -129 -106 -207t-213 -77z" />
    <glyph glyph-name="Ohungarumlaut" unicode="&#x150;" horiz-adv-x="1761" 
d="M295 713q0 -256 167 -425t419 -169q251 0 417 169t166 425t-166 425t-418 169t-418 -169q-167 -169 -167 -425zM137 713q0 317 216 529q215 212 527 212t528 -212t216 -529t-216 -529t-527 -213q-311 0 -528 212q-216 213 -216 530zM666 1526l129 297h194l-211 -297h-112
zM981 1526l129 297h195l-211 -297h-113z" />
    <glyph glyph-name="ohungarumlaut" unicode="&#x151;" horiz-adv-x="1323" 
d="M264 516q0 -174 113 -290t285 -116t284 116t113 290q0 174 -113 290q-112 116 -284 116t-285 -116t-113 -290zM113 516q0 233 159 390q160 157 390 157t389 -157t159 -390t-160 -390t-388 -157q-229 0 -390 157q-159 157 -159 390zM442 1130l129 297h195l-211 -297h-113z
M758 1130l129 297h194l-211 -297h-112z" />
    <glyph glyph-name="OE" unicode="&#x152;" horiz-adv-x="2301" 
d="M295 713q0 -256 167 -425t419 -169q251 0 417 169t166 425t-166 425t-418 169t-418 -169q-167 -169 -167 -425zM137 713q0 317 216 529t528 212q381 0 575 -301v274h676v-147h-516v-453h477v-147h-477v-533h530v-147h-690v281q-188 -309 -575 -310q-311 0 -528 212
q-216 213 -216 530z" />
    <glyph glyph-name="oe" unicode="&#x153;" horiz-adv-x="2164" 
d="M264 516q0 -174 113 -290t285 -116t284 116t113 290q0 174 -113 290q-112 116 -284 116t-285 -116t-113 -290zM1569 922q-133 0 -230 -84q-96 -85 -125 -222h709q-29 138 -125 222t-229 84zM113 516q0 233 159 390q160 157 390 157q152 0 274 -72t192 -196
q68 125 184 197t257 71q215 0 365 -157t151 -390q0 -16 -2 -33h-879q6 -168 108 -265t271 -97q227 0 354 137l103 -111q-178 -178 -457 -178q-328 0 -459 260q-70 -123 -190 -191t-272 -69q-229 0 -390 157q-159 157 -159 390z" />
    <glyph glyph-name="Racute" unicode="&#x154;" horiz-adv-x="1202" 
d="M389 754h221q117 0 195 76t78 188q0 114 -78 188t-195 74h-221v-526zM229 0v1427h387q176 0 302 -117q124 -118 124 -292t-118 -289t-295 -115h-21l475 -614h-190l-469 614h-35v-614h-160zM528 1526l109 297h203l-191 -297h-121z" />
    <glyph glyph-name="racute" unicode="&#x155;" horiz-adv-x="821" 
d="M158 0v1032h151v-174q41 86 123 138t195 53q35 0 63 -5v-163q-41 10 -102 10q-121 0 -200 -81t-79 -210v-600h-151zM305 1130l109 297h202l-190 -297h-121z" />
    <glyph glyph-name="Rcommaaccent" unicode="&#x156;" horiz-adv-x="1202" 
d="M389 754h221q117 0 195 76t78 188q0 114 -78 188t-195 74h-221v-526zM229 0v1427h387q176 0 302 -117q124 -118 124 -292t-118 -289t-295 -115h-21l475 -614h-190l-469 614h-35v-614h-160zM563 -98h203l-191 -297h-120z" />
    <glyph glyph-name="rcommaaccent" unicode="&#x157;" horiz-adv-x="821" 
d="M158 -98h202l-190 -297h-121zM158 0v1032h151v-174q41 86 123 138t195 53q35 0 63 -5v-163q-41 10 -102 10q-121 0 -200 -81t-79 -210v-600h-151z" />
    <glyph glyph-name="Rcaron" unicode="&#x158;" horiz-adv-x="1202" 
d="M389 754h221q117 0 195 76t78 188q0 114 -78 188t-195 74h-221v-526zM229 0v1427h387q176 0 302 -117q124 -118 124 -292t-118 -289t-295 -115h-21l475 -614h-190l-469 614h-35v-614h-160zM606 1524l-336 299h183l153 -154l154 154h182z" />
    <glyph glyph-name="rcaron" unicode="&#x159;" horiz-adv-x="821" 
d="M158 0v1032h151v-174q41 86 123 138t195 53q35 0 63 -5v-163q-41 10 -102 10q-121 0 -200 -81t-79 -210v-600h-151zM406 1128l-336 299h182l154 -153l153 153h182z" />
    <glyph glyph-name="Sacute" unicode="&#x15a;" horiz-adv-x="1208" 
d="M621 119q90 -1 152 27t89 73q45 75 45 152q0 117 -71 178q-72 61 -258 143t-275 166q-90 84 -90 240t111 256t280 100q262 0 385 -227l-137 -70q-80 150 -250 150q-96 1 -163 -57t-66 -146q0 -55 17 -95q18 -40 68 -76t84 -53t122 -57q217 -96 310 -189t93 -265
t-118 -285t-331 -113q-170 0 -301 86t-192 256l137 64q106 -258 359 -258zM530 1526l109 297h203l-191 -297h-121z" />
    <glyph glyph-name="sacute" unicode="&#x15b;" horiz-adv-x="929" 
d="M478 117q116 0 166 49q50 50 50 118t-56 108t-200 96t-213 123t-69 183t87 192t224 77q209 0 299 -178l-123 -64q-55 102 -174 103q-72 0 -117 -35t-45 -98t54 -103q55 -40 193 -92q138 -53 215 -128t77 -196t-97 -209t-263 -88q-166 1 -272 65t-136 183l129 49
q20 -66 87 -110q68 -44 184 -45zM369 1130l108 297h203l-191 -297h-120z" />
    <glyph glyph-name="Scircumflex" unicode="&#x15c;" horiz-adv-x="1208" 
d="M621 119q90 -1 152 27t89 73q45 75 45 152q0 117 -71 178q-72 61 -258 143t-275 166q-90 84 -90 240t111 256t280 100q262 0 385 -227l-137 -70q-80 150 -250 150q-96 1 -163 -57t-66 -146q0 -55 17 -95q18 -40 68 -76t84 -53t122 -57q217 -96 310 -189t93 -265
t-118 -285t-331 -113q-170 0 -301 86t-192 256l137 64q106 -258 359 -258zM276 1575l336 299l336 -299h-182l-154 154l-153 -154h-183z" />
    <glyph glyph-name="scircumflex" unicode="&#x15d;" horiz-adv-x="929" 
d="M478 117q116 0 166 49q50 50 50 118t-56 108t-200 96t-213 123t-69 183t87 192t224 77q209 0 299 -178l-123 -64q-55 102 -174 103q-72 0 -117 -35t-45 -98t54 -103q55 -40 193 -92q138 -53 215 -128t77 -196t-97 -209t-263 -88q-166 1 -272 65t-136 183l129 49
q20 -66 87 -110q68 -44 184 -45zM127 1180l336 299l336 -299h-183l-153 153l-154 -153h-182z" />
    <glyph glyph-name="Scedilla" unicode="&#x15e;" horiz-adv-x="1208" 
d="M621 119q90 -1 152 27t89 73q45 75 45 152q0 117 -71 178q-72 61 -258 143t-275 166q-90 84 -90 240t111 256t280 100q262 0 385 -227l-137 -70q-80 150 -250 150q-96 1 -163 -57t-66 -146q0 -55 17 -95q18 -40 68 -76t84 -53t122 -57q217 -96 310 -189t93 -265
t-115 -284t-323 -114l-31 -69q57 0 96 -40t39 -106q0 -166 -211 -166q-92 0 -151 48l39 79q57 -35 103 -35t72 21q25 20 25 61q0 40 -36 58t-113 18l57 140q-134 22 -238 106t-155 227l137 64q106 -258 359 -258z" />
    <glyph glyph-name="scedilla" unicode="&#x15f;" horiz-adv-x="929" 
d="M478 117q116 0 166 49q50 50 50 118t-56 108t-200 96t-213 123t-69 183t87 192t224 77q209 0 299 -178l-123 -64q-55 102 -174 103q-72 0 -117 -35t-45 -98t54 -103q55 -40 193 -92q138 -53 215 -128t77 -192q0 -116 -88 -202t-254 -97l-39 -71q63 0 105 -40t42 -106
q0 -166 -217 -166q-94 0 -162 48l41 79q60 -35 110 -35t78 21q28 20 28 61t-39 59q-39 17 -123 17l63 138q-119 14 -203 76q-83 63 -110 165l129 49q20 -66 87 -110q68 -44 184 -45z" />
    <glyph glyph-name="Scaron" unicode="&#x160;" horiz-adv-x="1208" 
d="M621 119q90 -1 152 27t89 73q45 75 45 152q0 117 -71 178q-72 61 -258 143t-275 166q-90 84 -90 240t111 256t280 100q262 0 385 -227l-137 -70q-80 150 -250 150q-96 1 -163 -57t-66 -146q0 -55 17 -95q18 -40 68 -76t84 -53t122 -57q217 -96 310 -189t93 -265
t-118 -285t-331 -113q-170 0 -301 86t-192 256l137 64q106 -258 359 -258zM631 1524l-336 299h182l154 -154l153 154h183z" />
    <glyph glyph-name="scaron" unicode="&#x161;" horiz-adv-x="929" 
d="M478 117q116 0 166 49q50 50 50 118t-56 108t-200 96t-213 123t-69 183t87 192t224 77q209 0 299 -178l-123 -64q-55 102 -174 103q-72 0 -117 -35t-45 -98t54 -103q55 -40 193 -92q138 -53 215 -128t77 -196t-97 -209t-263 -88q-166 1 -272 65t-136 183l129 49
q20 -66 87 -110q68 -44 184 -45zM469 1128l-336 299h182l154 -153l154 153h182z" />
    <glyph glyph-name="Tcommaaccent" unicode="&#x162;" horiz-adv-x="1060" 
d="M451 0v1280h-349v147h856v-147h-348v-1280h-159zM432 -98h203l-191 -297h-120z" />
    <glyph glyph-name="tcommaaccent" unicode="&#x163;" horiz-adv-x="712" 
d="M233 -98h203l-190 -297h-121zM223 289v602h-121v141h121v395h152v-395h239v-141h-239v-602q0 -98 34 -138t100 -40t105 6v-137q-163 -38 -287 40q-104 67 -104 269z" />
    <glyph glyph-name="Tcaron" unicode="&#x164;" horiz-adv-x="1060" 
d="M451 0v1280h-349v147h856v-147h-348v-1280h-159zM528 1524l-335 299h182l153 -154l154 154h182z" />
    <glyph glyph-name="tcaron" unicode="&#x165;" horiz-adv-x="768" 
d="M494 1130l108 297h203l-191 -297h-120zM223 289v602h-121v141h121v395h152v-395h239v-141h-239v-602q0 -98 34 -138t100 -40t105 6v-137q-163 -38 -287 40q-104 67 -104 269z" />
    <glyph glyph-name="Tbar" unicode="&#x166;" horiz-adv-x="1060" 
d="M451 0v739h-222v142h222v399h-349v147h856v-147h-348v-399h221v-142h-221v-739h-159z" />
    <glyph glyph-name="tbar" unicode="&#x167;" horiz-adv-x="712" 
d="M223 289v313h-131v141h131v148h-121v141h121v395h152v-395h239v-141h-239v-148h229v-141h-229v-313q0 -98 34 -138t100 -40t105 6v-137q-163 -38 -287 40q-104 67 -104 269z" />
    <glyph glyph-name="Utilde" unicode="&#x168;" horiz-adv-x="1507" 
d="M219 500v927h160v-911q0 -193 100 -293q101 -100 275 -100t274 100t100 293v911h160v-927q0 -252 -147 -388t-387 -136t-388 136t-147 388zM622 1749q66 0 141 -40t109 -40q74 0 95 84l100 -8q-23 -201 -188 -201q-57 0 -133 40t-109 40q-72 0 -88 -72l-100 9
q10 82 59 135q48 53 114 53z" />
    <glyph glyph-name="utilde" unicode="&#x169;" horiz-adv-x="1157" 
d="M145 399v633h152v-618q0 -145 75 -221t206 -76q130 0 206 77t76 222v616h152v-618q0 -209 -122 -324t-316 -115q-194 1 -311 111q-118 110 -118 313zM444 1413q66 0 141 -40t109 -40q74 0 94 84l101 -8q-23 -201 -189 -201q-57 0 -132 40t-109 40q-72 0 -88 -71l-101 8
q10 82 60 135q48 53 114 53z" />
    <glyph glyph-name="Umacron" unicode="&#x16a;" horiz-adv-x="1507" 
d="M219 500v927h160v-911q0 -193 100 -293q101 -100 275 -100t274 100t100 293v911h160v-927q0 -252 -147 -388t-387 -136t-388 136t-147 388zM453 1577v141h602v-141h-602z" />
    <glyph glyph-name="umacron" unicode="&#x16b;" horiz-adv-x="1157" 
d="M145 399v633h152v-618q0 -145 75 -221t206 -76q130 0 206 77t76 222v616h152v-618q0 -209 -122 -324t-316 -115q-194 1 -311 111q-118 110 -118 313zM279 1231v141h602v-141h-602z" />
    <glyph glyph-name="Ubreve" unicode="&#x16c;" horiz-adv-x="1507" 
d="M219 500v927h160v-911q0 -193 100 -293q101 -100 275 -100t274 100t100 293v911h160v-927q0 -252 -147 -388t-387 -136t-388 136t-147 388zM754 1538q-123 0 -213 78t-107 207h141q47 -150 179 -150t178 150h141q-16 -129 -106 -207t-213 -78z" />
    <glyph glyph-name="ubreve" unicode="&#x16d;" horiz-adv-x="1157" 
d="M145 399v633h152v-618q0 -145 75 -221t206 -76q130 0 206 77t76 222v616h152v-618q0 -209 -122 -324t-316 -115q-194 1 -311 111q-118 110 -118 313zM580 1143q-123 0 -213 78t-107 206h141q47 -149 179 -149t178 149h141q-16 -129 -106 -207t-213 -77z" />
    <glyph glyph-name="Uring" unicode="&#x16e;" horiz-adv-x="1507" 
d="M219 500v927h160v-911q0 -193 100 -293q101 -100 275 -100t274 100t100 293v911h160v-927q0 -252 -147 -388t-387 -136t-388 136t-147 388zM756 1559q38 1 66 29t28 67t-28 67t-66 27q-38 0 -68 -28q-29 -29 -29 -67t29 -66t68 -29zM954 1654q0 -84 -58 -142t-141 -58
t-142 59q-58 59 -58 141t59 141q60 58 142 58t140 -58t58 -141z" />
    <glyph glyph-name="uring" unicode="&#x16f;" horiz-adv-x="1157" 
d="M145 399v633h152v-618q0 -145 75 -221t206 -76q130 0 206 77t76 222v616h152v-618q0 -209 -122 -324t-316 -115q-194 1 -311 111q-118 110 -118 313zM580 1163q38 0 66 29t28 68q0 38 -28 66t-66 28t-68 -28q-29 -28 -29 -66t29 -68q29 -29 68 -29zM778 1259
q0 -83 -58 -141t-141 -59q-83 0 -142 58q-58 57 -58 141t59 142q60 58 142 58t140 -58t58 -141z" />
    <glyph glyph-name="Uhungarumlaut" unicode="&#x170;" horiz-adv-x="1507" 
d="M219 500v927h160v-911q0 -193 100 -293q101 -100 275 -100t274 100t100 293v911h160v-927q0 -252 -147 -388t-387 -136t-388 136t-147 388zM532 1526l130 297h194l-211 -297h-113zM848 1526l129 297h194l-210 -297h-113z" />
    <glyph glyph-name="uhungarumlaut" unicode="&#x171;" horiz-adv-x="1157" 
d="M145 399v633h152v-618q0 -145 75 -221t206 -76q130 0 206 77t76 222v616h152v-618q0 -209 -122 -324t-316 -115q-194 1 -311 111q-118 110 -118 313zM354 1130l129 297h195l-211 -297h-113zM670 1130l129 297h194l-211 -297h-112z" />
    <glyph glyph-name="Uogonek" unicode="&#x172;" horiz-adv-x="1507" 
d="M823 -194q0 -92 113 -93q53 0 108 31l-26 -121q-57 -29 -129 -29t-133 50t-62 133q0 113 125 203q-49 -4 -74 -5q-233 1 -379 137t-147 388v927h160v-911q0 -193 100 -293q101 -100 275 -100t274 100t100 293v911h160v-923q0 -287 -196 -428q-6 -4 -60 -37t-95 -62
q-40 -29 -77 -77t-37 -94z" />
    <glyph glyph-name="uogonek" unicode="&#x173;" horiz-adv-x="1157" 
d="M776 0q-156 -104 -156 -196t113 -91q53 0 109 31l-27 -121q-57 -29 -129 -29t-133 50t-61 133q0 111 120 200q-25 -2 -41 -2q-190 1 -308 111t-118 313v633h152v-618q0 -145 75 -221t206 -76q130 0 206 77t76 222v616h152v-618q0 -258 -236 -414z" />
    <glyph glyph-name="Wcircumflex" unicode="&#x174;" horiz-adv-x="2021" 
d="M563 -51l-467 1478h168l320 -1007l432 1057l414 -1053l325 1003h168l-477 -1482l-434 1099zM674 1575l336 299l336 -299h-183l-153 154l-154 -154h-182z" />
    <glyph glyph-name="wcircumflex" unicode="&#x175;" horiz-adv-x="1611" 
d="M496 -72l-424 1104h145l279 -729l309 801l309 -801l279 729h145l-424 -1104l-309 801zM465 1180l336 299l336 -299h-183l-153 153l-154 -153h-182z" />
    <glyph glyph-name="Ycircumflex" unicode="&#x176;" horiz-adv-x="1355" 
d="M600 0v586l-502 841h176l408 -684l403 684h172l-497 -841v-586h-160zM342 1575l336 299l336 -299h-183l-153 154l-154 -154h-182z" />
    <glyph glyph-name="ycircumflex" unicode="&#x177;" horiz-adv-x="1110" 
d="M274 -428q-59 0 -102 18v140q43 -16 99 -16t96 27q40 28 77 120l45 116l-417 1055h151l340 -870l328 870h151l-467 -1208q-43 -112 -109 -182t-192 -70zM233 1180l336 299l336 -299h-182l-154 153l-153 -153h-183z" />
    <glyph glyph-name="Ydieresis" unicode="&#x178;" horiz-adv-x="1355" 
d="M600 0v586l-502 841h176l408 -684l403 684h172l-497 -841v-586h-160zM467 1522q-41 0 -72 30t-30 72q0 43 30 73q31 29 72 29t72 -30t31 -72q0 -43 -31 -73q-31 -29 -72 -29zM889 1522q-41 0 -72 30t-31 72q0 43 31 73q31 29 72 29t72 -30t31 -72q0 -43 -31 -73
q-31 -29 -72 -29z" />
    <glyph glyph-name="Zacute" unicode="&#x179;" horiz-adv-x="1390" 
d="M266 1280v147h1024l-893 -1280h865v-147h-1156l893 1280h-733zM678 1526l108 297h203l-190 -297h-121z" />
    <glyph glyph-name="zacute" unicode="&#x17a;" horiz-adv-x="1107" 
d="M143 891v141h861l-691 -891h662v-141h-942l688 891h-578zM471 1130l109 297h202l-190 -297h-121z" />
    <glyph glyph-name="Zdotaccent" unicode="&#x17b;" horiz-adv-x="1390" 
d="M266 1280v147h1024l-893 -1280h865v-147h-1156l893 1280h-733zM782 1563q-42 -1 -72 29t-30 73t31 73t71 30t72 -30q31 -30 31 -73t-31 -73t-72 -29z" />
    <glyph glyph-name="zdotaccent" unicode="&#x17c;" horiz-adv-x="1107" 
d="M143 891v141h861l-691 -891h662v-141h-942l688 891h-578zM582 1200q-41 0 -72 30t-31 73t31 73t72 29q42 0 72 -30q30 -31 30 -73t-30 -72t-72 -30z" />
    <glyph glyph-name="Zcaron" unicode="&#x17d;" horiz-adv-x="1390" 
d="M266 1280v147h1024l-893 -1280h865v-147h-1156l893 1280h-733zM780 1524l-336 299h183l153 -154l154 154h182z" />
    <glyph glyph-name="zcaron" unicode="&#x17e;" horiz-adv-x="1107" 
d="M143 891v141h861l-691 -891h662v-141h-942l688 891h-578zM555 1128l-336 299h182l154 -153l154 153h182z" />
    <glyph glyph-name="florin" unicode="&#x192;" horiz-adv-x="849" 
d="M748 1458q58 0 102 -8l-29 -139q-47 6 -117 6q-137 0 -178 -184l-51 -238h205l-27 -129h-204l-207 -973h-152l207 973h-156l27 129h156l47 219q25 111 66 184q90 160 311 160z" />
    <glyph glyph-name="Aringacute" unicode="&#x1fa;" horiz-adv-x="1517" 
d="M498 500h516l-258 606zM760 1458q38 0 66 29t28 67t-28 67q-28 28 -66 28t-68 -28q-28 -28 -28 -67q0 -40 28 -68t68 -28zM559 1562q0 74 59 132q60 58 142 59q82 0 140 -58q58 -59 58 -135t-42 -130t-107 -70l596 -1360h-174l-154 352h-643l-153 -352h-168l594 1362
q-63 16 -105 70q-42 56 -43 130zM715 1858l108 296h203l-190 -296h-121z" />
    <glyph glyph-name="aringacute" unicode="&#x1fb;" 
d="M276 289q0 -178 258 -178q132 1 214 65t81 172v184q-43 -45 -226 -60t-255 -55t-72 -128zM498 -31q-166 0 -270 85q-103 86 -103 234q0 292 430 324q160 12 217 39t57 101t-54 122q-54 47 -167 48q-168 0 -278 -146l-105 86q137 201 383 201q168 0 270 -87t103 -235v-551
q0 -37 14 -55q15 -18 29 -21t43 -3h18v-109q-35 -23 -104 -22q-111 0 -131 120q-111 -131 -352 -131zM592 1243q38 0 66 29q28 30 28 68t-28 66t-66 28t-68 -28q-28 -28 -28 -67t28 -67t68 -29zM591 1139q-83 0 -141 59t-59 141q-1 83 59 141t142 58t140 -58t58 -142
t-58 -141q-58 -58 -141 -58zM526 1614l109 297h203l-191 -297h-121z" />
    <glyph glyph-name="AEacute" unicode="&#x1fc;" horiz-adv-x="1904" 
d="M1061 500v624l-469 -624h469zM1737 1427v-147h-516v-453h477v-147h-477v-533h530v-147h-690v352h-582l-270 -352h-201l1094 1427h635zM1018 1526l108 297h203l-190 -297h-121z" />
    <glyph glyph-name="aeacute" unicode="&#x1fd;" horiz-adv-x="1904" 
d="M1305 922q-125 0 -220 -85q-93 -86 -120 -221h667q-25 135 -113 221q-89 85 -214 85zM813 348v133q-63 -33 -164 -32h-174q-209 0 -209 -164q0 -90 56 -127t190 -37q134 1 218 65t83 162zM813 739q0 176 -223 183q-182 0 -299 -166l-105 86q145 221 404 221
q123 0 212 -52t128 -143q141 195 379 195q203 0 344 -157t141 -390q0 -16 -2 -33h-838q6 -170 102 -271t257 -101q109 -1 179 33t148 110l101 -98q-170 -186 -432 -186t-398 200q-119 -201 -440 -201q-168 0 -262 87q-94 88 -94 230t98 228t262 86h174q100 0 132 37t32 102z
M877 1130l108 297h203l-191 -297h-120z" />
    <glyph glyph-name="Oslashacute" unicode="&#x1fe;" horiz-adv-x="1761" 
d="M1464 711q0 254 -161 422l-707 -945q129 -70 285 -69q251 0 417 169t166 423zM881 1307q-252 0 -419 -169q-167 -168 -167 -432t182 -434l713 951q-139 84 -309 84zM137 700q0 330 216 542t528 212q215 0 397 -111l119 160l116 -88l-118 -160q229 -217 229 -538
t-216 -533t-527 -213q-201 0 -375 97l-115 -154l-117 86l113 152q-250 218 -250 548zM829 1526l109 297h203l-191 -297h-121z" />
    <glyph glyph-name="oslashacute" unicode="&#x1ff;" horiz-adv-x="1323" 
d="M662 111q172 -1 284 115t113 286q0 170 -105 285l-473 -645q82 -41 181 -41zM662 922q-172 0 -285 -116t-113 -288t109 -287l473 648q-86 43 -184 43zM113 511q0 238 159 395q160 157 390 157q145 0 270 -68l76 105l110 -80l-78 -102q170 -160 170 -398t-160 -394
q-160 -157 -388 -157q-141 0 -267 66l-84 -115l-108 82l82 111q-172 160 -172 398zM621 1130l108 297h203l-191 -297h-120z" />
    <glyph glyph-name="Scommaaccent" unicode="&#x218;" horiz-adv-x="1208" 
d="M391 -395l109 297h202l-190 -297h-121zM621 119q90 -1 152 27t89 73q45 75 45 152q0 117 -71 178q-72 61 -258 143t-275 166q-90 84 -90 240t111 256t280 100q262 0 385 -227l-137 -70q-80 150 -250 150q-96 1 -163 -57t-66 -146q0 -55 17 -95q18 -40 68 -76t84 -53
t122 -57q217 -96 310 -189t93 -265t-118 -285t-331 -113q-170 0 -301 86t-192 256l137 64q106 -258 359 -258z" />
    <glyph glyph-name="scommaaccent" unicode="&#x219;" horiz-adv-x="929" 
d="M332 -98h203l-191 -297h-121zM478 117q116 0 166 49q50 50 50 118t-56 108t-200 96t-213 123t-69 183t87 192t224 77q209 0 299 -178l-123 -64q-55 102 -174 103q-72 0 -117 -35t-45 -98t54 -103q55 -40 193 -92q138 -53 215 -128t77 -196t-97 -209t-263 -88
q-166 1 -272 65t-136 183l129 49q20 -66 87 -110q68 -44 184 -45z" />
    <glyph glyph-name="circumflex" unicode="&#x2c6;" horiz-adv-x="1331" 
d="M330 1180l336 299l335 -299h-182l-153 153l-154 -153h-182z" />
    <glyph glyph-name="caron" unicode="&#x2c7;" horiz-adv-x="1331" 
d="M666 1128l-336 299h182l154 -153l153 153h182z" />
    <glyph glyph-name="breve" unicode="&#x2d8;" horiz-adv-x="1323" 
d="M662 1143q-123 0 -213 78t-107 206h141q47 -149 179 -149t178 149h141q-16 -129 -106 -207t-213 -77z" />
    <glyph glyph-name="dotaccent" unicode="&#x2d9;" horiz-adv-x="1157" 
d="M580 1200q-41 0 -72 30t-31 73t31 73t72 29q42 0 72 -30q30 -31 30 -73t-30 -72t-72 -30z" />
    <glyph glyph-name="ring" unicode="&#x2da;" horiz-adv-x="571" 
d="M287 1163q39 0 67 29t27 68q0 38 -28 66q-29 28 -67 28t-67 -28t-29 -66t29 -68q29 -29 68 -29zM287 1059q-82 0 -142 58q-59 57 -59 141t59 142t141 58t141 -58q58 -58 58 -141t-58 -141t-140 -59z" />
    <glyph glyph-name="ogonek" unicode="&#x2db;" horiz-adv-x="1159" 
d="M492 -195q0 -92 112 -92q53 0 109 31l-27 -121q-57 -29 -129 -29q-71 0 -133 50t-62 133q0 127 154 223h131q-156 -98 -155 -195z" />
    <glyph glyph-name="tilde" unicode="&#x2dc;" horiz-adv-x="1273" 
d="M502 1458q66 0 140 -40q75 -40 110 -40q74 0 94 84l100 -8q-23 -201 -188 -201q-57 0 -132 40t-110 40q-72 0 -88 -71l-100 8q10 82 59 135t115 53z" />
    <glyph glyph-name="hungarumlaut" unicode="&#x2dd;" horiz-adv-x="1280" 
d="M371 1130l129 297h194l-211 -297h-112zM686 1130l129 297h195l-211 -297h-113z" />
    <glyph glyph-name="pi" unicode="&#x3c0;" horiz-adv-x="1280" 
d="M389 891q-137 0 -199 -111l-122 72q45 84 134 131t185 47h817l-33 -139h-149v-645q0 -98 92 -99v-151h-2q-110 0 -176 69t-66 181v645h-323q-2 -243 -41 -485t-109 -406h-164q158 346 162 891h-6z" />
    <glyph glyph-name="Wgrave" unicode="&#x1e80;" horiz-adv-x="2021" 
d="M563 -51l-467 1478h168l320 -1007l432 1057l414 -1053l325 1003h168l-477 -1482l-434 1099zM999 1526l-190 297h203l108 -297h-121z" />
    <glyph glyph-name="wgrave" unicode="&#x1e81;" horiz-adv-x="1611" 
d="M496 -72l-424 1104h145l279 -729l309 801l309 -801l279 729h145l-424 -1104l-309 801zM805 1130l-191 297h203l109 -297h-121z" />
    <glyph glyph-name="Wacute" unicode="&#x1e82;" horiz-adv-x="2021" 
d="M563 -51l-467 1478h168l320 -1007l432 1057l414 -1053l325 1003h168l-477 -1482l-434 1099zM936 1526l108 297h203l-190 -297h-121z" />
    <glyph glyph-name="wacute" unicode="&#x1e83;" horiz-adv-x="1611" 
d="M496 -72l-424 1104h145l279 -729l309 801l309 -801l279 729h145l-424 -1104l-309 801zM727 1130l109 297h202l-190 -297h-121z" />
    <glyph glyph-name="Wdieresis" unicode="&#x1e84;" horiz-adv-x="2021" 
d="M563 -51l-467 1478h168l320 -1007l432 1057l414 -1053l325 1003h168l-477 -1482l-434 1099zM799 1524q-41 0 -72 30t-31 72q0 43 31 73t72 30t71 -30t31 -73q-1 -42 -31 -72t-71 -30zM1221 1524q-41 0 -72 30t-31 72q0 43 31 73t72 30t71 -30t31 -73q-1 -42 -31 -72
t-71 -30z" />
    <glyph glyph-name="wdieresis" unicode="&#x1e85;" horiz-adv-x="1611" 
d="M496 -72l-424 1104h145l279 -729l309 801l309 -801l279 729h145l-424 -1104l-309 801zM594 1200q-41 0 -72 30t-30 73q0 43 30 73t72 29q41 0 72 -30q30 -31 30 -73t-30 -72t-72 -30zM1016 1200q-41 0 -72 30t-31 73t31 73t72 29q42 0 72 -30q30 -31 30 -73t-30 -72
t-72 -30z" />
    <glyph glyph-name="Ygrave" unicode="&#x1ef2;" horiz-adv-x="1355" 
d="M600 0v586l-502 841h176l408 -684l403 684h172l-497 -841v-586h-160zM655 1526l-190 297h203l108 -297h-121z" />
    <glyph glyph-name="ygrave" unicode="&#x1ef3;" horiz-adv-x="1110" 
d="M274 -428q-59 0 -102 18v140q43 -16 99 -16t96 27q40 28 77 120l45 116l-417 1055h151l340 -870l328 870h151l-467 -1208q-43 -112 -109 -182t-192 -70zM537 1130l-191 297h203l108 -297h-120z" />
    <glyph glyph-name="endash" unicode="&#x2013;" horiz-adv-x="1015" 
d="M125 469v141h766v-141h-766z" />
    <glyph glyph-name="emdash" unicode="&#x2014;" horiz-adv-x="1556" 
d="M125 469v141h1307v-141h-1307z" />
    <glyph glyph-name="quoteleft" unicode="&#x2018;" horiz-adv-x="448" 
d="M49 911l268 516h129l-194 -516h-203z" />
    <glyph glyph-name="quoteright" unicode="&#x2019;" horiz-adv-x="464" 
d="M33 911l194 516h203l-268 -516h-129z" />
    <glyph glyph-name="quotesinglbase" unicode="&#x201a;" horiz-adv-x="464" 
d="M152 227h202l-258 -489h-129z" />
    <glyph glyph-name="quotedblleft" unicode="&#x201c;" horiz-adv-x="788" 
d="M49 911l268 516h129l-194 -516h-203zM389 911l268 516h129l-194 -516h-203z" />
    <glyph glyph-name="quotedblright" unicode="&#x201d;" horiz-adv-x="804" 
d="M33 911l194 516h203l-268 -516h-129zM373 911l194 516h203l-268 -516h-129z" />
    <glyph glyph-name="quotedblbase" unicode="&#x201e;" horiz-adv-x="780" 
d="M152 227h202l-258 -489h-129zM307 -262l185 489h202l-258 -489h-129z" />
    <glyph glyph-name="dagger" unicode="&#x2020;" horiz-adv-x="671" 
d="M264 616l10 490l-165 -6v133l161 -6l-6 200h144l-7 -200l162 6v-133l-166 6l11 -490h-144z" />
    <glyph glyph-name="daggerdbl" unicode="&#x2021;" horiz-adv-x="671" 
d="M264 616l6 201l-161 -6v133l165 -6v168l-165 -6v133l161 -6l-6 200h144l-7 -200l162 6v-133l-166 6v-168l166 6v-133l-162 6l7 -201h-144z" />
    <glyph glyph-name="bullet" unicode="&#x2022;" horiz-adv-x="618" 
d="M309 352q-68 0 -118 48t-50 120t50 120t118 48t118 -48t50 -120t-50 -120t-118 -48z" />
    <glyph glyph-name="ellipsis" unicode="&#x2026;" horiz-adv-x="1196" 
d="M131 88q0 43 31 73q32 29 72 29t71 -30t31 -72q0 -43 -31 -73q-31 -29 -72 -29t-71 30t-31 72zM496 88q0 43 30 73q31 29 72 29t72 -30q30 -30 30 -72q0 -43 -30 -73q-30 -29 -72 -29q-41 0 -72 29q-30 30 -30 73zM860 88q0 43 31 73q31 29 72 29t71 -30t31 -72
q0 -43 -31 -73q-32 -29 -72 -29t-71 30t-31 72z" />
    <glyph glyph-name="perthousand" unicode="&#x2030;" horiz-adv-x="2361" 
d="M965 288q0 -81 53 -137q53 -57 130 -57t131 56t54 138q0 81 -54 138t-130 57t-130 -57t-54 -138zM1743 288q0 -81 53 -137q53 -57 130 -57t131 56t54 138q0 81 -54 138t-130 57t-130 -57t-54 -138zM829 289q-1 133 93 226t227 93t226 -93t93 -226t-93 -227t-226 -93
q-133 -1 -227 93t-93 227zM1608 289q0 133 93 226t226 93t226 -93t93 -226t-92 -227q-94 -94 -227 -93q-133 -1 -226 93t-93 227zM250 1138q0 -82 53 -138t130 -56t131 56t54 138t-54 138q-54 57 -130 57t-130 -57t-54 -138zM254 0l924 1427h157l-923 -1427h-158zM434 819
q-131 0 -225 94q-94 93 -94 225t94 226t225 94t225 -94q95 -94 95 -225t-94 -225t-226 -95z" />
    <glyph glyph-name="guilsinglleft" unicode="&#x2039;" horiz-adv-x="610" 
d="M338 160l-225 358l225 359h160l-226 -359l226 -358h-160z" />
    <glyph glyph-name="guilsinglright" unicode="&#x203a;" horiz-adv-x="610" 
d="M113 160l225 358l-225 359h159l226 -359l-226 -358h-159z" />
    <glyph glyph-name="fraction" unicode="&#x2044;" horiz-adv-x="1077" 
d="M-2 0l924 1427h157l-923 -1427h-158z" />
    <glyph glyph-name="zerosuperior" unicode="&#x2070;" horiz-adv-x="817" 
d="M410 768q57 0 100 39t47 96q4 29 4 147t-4 148q-4 57 -47 96t-100 39q-56 0 -98 -39t-52 -96q-2 -30 -2 -148t2 -147q10 -57 52 -96t98 -39zM411 655q-99 0 -174 71t-87 169q-4 31 -5 156q0 125 5 155q12 98 87 168t174 70t175 -68t84 -170q2 -34 2 -156t-2 -155
q-8 -102 -84 -171t-175 -69z" />
    <glyph glyph-name="foursuperior" unicode="&#x2074;" horiz-adv-x="796" 
d="M520 672v149h-446l291 606h120l-237 -495h272v151h117v-411h-117z" />
    <glyph glyph-name="fivesuperior" unicode="&#x2075;" horiz-adv-x="761" 
d="M190 879q54 -111 172 -111q58 0 106 48t48 116t-50 112t-142 46q-92 0 -179 -52l70 389h369v-108h-269l-24 -131q25 12 69 12q111 0 190 -80t79 -192t-81 -193q-80 -80 -180 -80q-190 0 -280 174z" />
    <glyph glyph-name="sixsuperior" unicode="&#x2076;" horiz-adv-x="804" 
d="M402 1079q-66 0 -108 -44q-42 -43 -42 -111t42 -112t108 -44q64 0 111 46q46 46 46 110t-46 109q-46 46 -111 46zM403 655q-111 0 -191 80t-79 193q0 77 43 143q16 27 49 76l189 280h139l-168 -239q12 2 33 2q100 0 177 -77t77 -189t-79 -190q-79 -79 -190 -79z" />
    <glyph glyph-name="sevensuperior" unicode="&#x2077;" horiz-adv-x="780" 
d="M145 1319v108h560l-365 -755h-129l313 647h-379z" />
    <glyph glyph-name="eightsuperior" unicode="&#x2078;" horiz-adv-x="811" 
d="M549 907q0 57 -42 99t-100 41q-57 0 -101 -41q-44 -40 -44 -98t44 -99t101 -41q58 0 100 41t42 98zM315 1237q0 -39 27 -67t65 -29q37 1 63 29t26 67t-26 68t-64 29t-64 -30q-27 -28 -27 -67zM406 655q-108 0 -185 74q-76 74 -76 162t38 143t89 76q-72 47 -71 131
q0 84 60 143q59 60 145 60t145 -60t59 -143q0 -84 -71 -131q51 -20 89 -76t38 -142q0 -87 -76 -162t-184 -75z" />
    <glyph glyph-name="ninesuperior" unicode="&#x2079;" horiz-adv-x="815" 
d="M412 1030q66 0 106 43t41 107q0 64 -44 108q-44 45 -106 45q-63 0 -107 -45t-44 -107t43 -107q45 -44 111 -44zM395 926q-98 0 -174 72t-76 182q0 108 77 186t186 78q110 0 186 -76t76 -177t-101 -251l-180 -268h-137l182 258q-16 -4 -39 -4z" />
    <glyph glyph-name="zero.inferior" unicode="&#x2080;" horiz-adv-x="817" 
d="M410 96q58 0 100 39q43 39 47 96q4 29 4 147t-4 148q-4 56 -47 96t-100 40q-56 0 -98 -39t-52 -97q-2 -30 -2 -148t2 -147q10 -57 51 -96t99 -39zM411 772q99 0 175 -68t84 -169q2 -33 2 -156t-2 -156q-8 -102 -84 -171q-76 -68 -175 -68t-174 70t-87 169q-4 31 -5 156
q0 125 5 156q12 97 87 167t174 70z" />
    <glyph glyph-name="one.inferior" unicode="&#x2081;" horiz-adv-x="536" 
d="M221 0v647h-98v109h215v-756h-117z" />
    <glyph glyph-name="two.inferior" unicode="&#x2082;" horiz-adv-x="747" 
d="M383 662q-45 0 -78 -38t-33 -92h-114q0 100 65 170q66 70 160 70t161 -64q66 -64 66 -157q0 -92 -69 -176l-224 -264h312v-111h-539l354 444q90 112 17 185q-33 33 -78 33z" />
    <glyph glyph-name="three.inferior" unicode="&#x2083;" horiz-adv-x="790" 
d="M377 96q76 0 124 42t48 109t-50 111t-137 43q-87 0 -141 -22l217 268h-272v109h498l-226 -258q29 0 62 -13q72 -27 116 -93t46 -163q0 -98 -81 -172q-81 -73 -191 -73t-188 50q-77 50 -108 136l103 39q43 -113 180 -113z" />
    <glyph glyph-name="four.inferior" unicode="&#x2084;" horiz-adv-x="796" 
d="M520 260v152h117v-412h-117v150h-446l291 606h120l-237 -496h272z" />
    <glyph glyph-name="five.inferior" unicode="&#x2085;" horiz-adv-x="761" 
d="M362 96q58 0 106 48t48 116t-50 113t-142 45t-179 -51l70 389h369v-109h-269l-24 -131q25 12 69 12q111 0 190 -80t79 -192q0 -113 -81 -193q-80 -79 -180 -79q-191 1 -280 174l102 49q55 -111 172 -111z" />
    <glyph glyph-name="six.inferior" unicode="&#x2086;" horiz-adv-x="804" 
d="M252 252q0 -68 42 -112t108 -44q64 0 111 46q46 46 46 110t-46 109q-46 47 -111 47q-66 0 -108 -44t-42 -112zM403 -16q-111 0 -191 80t-79 192q0 77 43 143q16 27 49 76l189 281h139l-168 -240q12 2 33 2q100 0 177 -77t77 -189t-79 -190t-190 -78z" />
    <glyph glyph-name="seven.inferior" unicode="&#x2087;" horiz-adv-x="780" 
d="M145 647v109h560l-365 -756h-129l313 647h-379z" />
    <glyph glyph-name="eight.inferior" unicode="&#x2088;" horiz-adv-x="811" 
d="M262 236q0 -56 43 -98t101 -42t101 41q42 41 42 99t-42 98q-42 41 -100 41q-57 0 -101 -41t-44 -98zM315 565q0 -39 27 -67t65 -29q37 0 63 29q26 30 26 68t-26 67t-64 29t-64 -29q-27 -29 -27 -68zM666 220q0 -86 -76 -162t-184 -74q-108 0 -185 74q-76 74 -76 162
t38 142t89 76q-72 47 -71 131q0 83 60 143q59 60 145 60t145 -59t59 -143t-71 -132q51 -20 89 -76t38 -142z" />
    <glyph glyph-name="nine.inferior" unicode="&#x2089;" horiz-adv-x="790" 
d="M246 509q0 -63 43 -107t109 -44t108 43q41 43 41 107t-44 108q-45 46 -107 46t-106 -46t-44 -107zM383 254q-98 0 -174 73t-76 181t77 186q78 78 186 78t185 -76t77 -177t-101 -251l-180 -268h-137l182 258q-16 -4 -39 -4z" />
    <glyph glyph-name="Euro" unicode="&#x20ac;" horiz-adv-x="1607" 
d="M281 724q0 38 6 85h-187l62 141h151q68 228 245 366t405 138q299 0 499 -217l-112 -100q-150 170 -387 170q-168 1 -297 -97t-187 -260h557l-61 -141h-529q-6 -47 -6 -85t4 -91h461l-61 -141h-371q55 -170 186 -272t304 -101q252 0 403 178l115 -102q-205 -223 -518 -224
q-229 -1 -409 143t-245 378h-252l62 141h166q-4 53 -4 91z" />
    <glyph glyph-name="uni2113" unicode="&#x2113;" horiz-adv-x="1044" 
d="M662 1139q0 178 -134 178q-70 0 -116 -69t-45 -206v-464q295 295 295 561zM215 1008q0 229 89 340q88 110 224 110t210 -86t73 -250q0 -330 -440 -714v-21q2 -279 217 -278q160 0 274 194l88 -86q-139 -248 -405 -248q-152 -1 -239 99t-87 254q-60 -43 -117 -80l-53 102
q102 74 166 121v543z" />
    <glyph glyph-name="uni2116" unicode="&#x2116;" horiz-adv-x="2486" 
d="M1554 297v141h768v-141h-768zM1679 987q0 -109 74 -185t180 -77q106 0 181 77q74 78 74 186t-74 184t-180 77q-106 -1 -181 -77q-74 -76 -74 -185zM1528 987q0 170 119 287t287 117t286 -117q119 -117 119 -287t-119 -287q-119 -116 -287 -116q-169 0 -287 116t-118 287z
M229 0v1479l916 -1104v1052h160v-1478l-916 1104v-1053h-160z" />
    <glyph glyph-name="trademark" unicode="&#x2122;" horiz-adv-x="1806" 
d="M328 668v612h-242v147h637v-147h-242v-612h-153zM817 668v762h14l400 -408l399 408h15v-762h-154v417l-260 -286l-260 286v-417h-154z" />
    <glyph glyph-name="Omega" unicode="&#x2126;" horiz-adv-x="1679" 
d="M166 0v147h231q-123 102 -191 254q-69 152 -69 332q0 309 205 515t498 206q294 0 498 -206t204 -515q0 -180 -68 -332t-192 -254h231v-147h-577q449 287 448 702q0 258 -155 432q-156 173 -389 173t-389 -173t-156 -432q0 -416 448 -702h-577z" />
    <glyph glyph-name="estimated" unicode="&#x212e;" horiz-adv-x="1943" 
d="M451 778h1040v531q-223 186 -520 186t-520 -190v-527zM971 -25q-348 -1 -594 229t-246 554t246 553t594 229t595 -229t246 -553v-23h-1361v-526q223 -190 522 -191q176 0 332 70t262 191h61q-115 -139 -288 -221t-369 -83z" />
    <glyph glyph-name="onethird" unicode="&#x2153;" horiz-adv-x="1607" 
d="M1171 96q76 0 124 42t48 109t-50 111t-137 43q-87 0 -140 -22l217 268h-272v109h497l-225 -258q29 0 61 -13q72 -27 117 -93t45 -146q0 -115 -81 -189q-81 -73 -191 -73t-188 50q-76 50 -107 136l102 39q43 -113 180 -113zM262 672v647h-98v108h215v-755h-117zM201 0
l798 1427h152l-799 -1427h-151z" />
    <glyph glyph-name="twothirds" unicode="&#x2154;" horiz-adv-x="1736" 
d="M1300 96q76 0 124 42t48 109t-50 111t-137 43q-87 0 -140 -22l217 268h-272v109h497l-225 -258q27 0 61 -13q72 -27 117 -93t45 -146q0 -115 -81 -189q-82 -73 -192 -73t-187 50q-76 50 -107 136l102 39q43 -113 180 -113zM401 0l799 1427h152l-799 -1427h-152zM424 1333
q-45 0 -78 -38t-33 -91h-114q0 100 65 170q66 70 160 70t161 -65t67 -157t-70 -175l-224 -265h312v-110h-539l354 444q91 113 17 184q-33 33 -78 33z" />
    <glyph glyph-name="arrowleft" unicode="&#x2190;" horiz-adv-x="1366" 
d="M1270 606v-147h-908l300 -297l-103 -103l-475 473l475 474l103 -103l-297 -297h905z" />
    <glyph glyph-name="arrowup" unicode="&#x2191;" horiz-adv-x="1406" 
d="M625 0v868l-267 -268l-102 102l446 449l447 -449l-102 -102l-267 268v-868h-155z" />
    <glyph glyph-name="arrowright" unicode="&#x2192;" horiz-adv-x="1366" 
d="M94 459v147h905l-297 297l103 103l475 -474l-475 -473l-103 103l299 297h-907z" />
    <glyph glyph-name="arrowdown" unicode="&#x2193;" horiz-adv-x="1406" 
d="M625 1032h155v-835l267 268l102 -103l-447 -448l-446 448l102 103l267 -268v835z" />
    <glyph glyph-name="arrowboth" unicode="&#x2194;" horiz-adv-x="1914" 
d="M559 59l-475 473l475 474l103 -103l-297 -297h1183l-297 297l103 103l475 -474l-475 -473l-103 103l299 297h-1188l300 -297z" />
    <glyph glyph-name="arrowupdn" unicode="&#x2195;" horiz-adv-x="1406" 
d="M299 254l102 102l224 -225v856l-224 -225l-102 102l403 406l404 -406l-102 -102l-224 225v-856l224 225l102 -102l-404 -406z" />
    <glyph glyph-name="arrownorthwest" unicode="&#x2196;" horiz-adv-x="1406" 
d="M285 281v671h671v-151h-417l630 -629l-104 -104l-625 624v-411h-155z" />
    <glyph glyph-name="arrownortheast" unicode="&#x2197;" horiz-adv-x="1406" 
d="M451 801v151h671v-671h-155v411l-625 -624l-104 104l630 629h-417z" />
    <glyph glyph-name="arrowsoutheast" unicode="&#x2198;" horiz-adv-x="1406" 
d="M451 98v152h417l-630 629l104 104l625 -625v412h155v-672h-671z" />
    <glyph glyph-name="arrowsouthwest" unicode="&#x2199;" horiz-adv-x="1406" 
d="M285 98v672h155v-412l625 625l104 -104l-630 -629h417v-152h-671z" />
    <glyph glyph-name="partialdiff" unicode="&#x2202;" horiz-adv-x="1120" 
d="M266 399q0 -117 62 -201t176 -83q82 0 150 53q144 112 145 324q0 118 -69 196q-68 78 -178 78t-198 -100t-88 -267zM115 426q0 190 125 334t313 145q84 0 163 -38t122 -111v2q0 188 -60 353q-74 203 -282 203q-112 0 -183 -89l-108 96q131 137 307 137q264 0 385 -250
q86 -176 86 -430q0 -442 -154 -637q-133 -172 -320 -172t-291 133q-103 134 -103 324z" />
    <glyph glyph-name="Delta" unicode="&#x2206;" horiz-adv-x="1357" 
d="M307 147h744l-371 953zM90 0l590 1458l588 -1458h-1178z" />
    <glyph glyph-name="product" unicode="&#x220f;" horiz-adv-x="1423" 
d="M315 0v1286h-211v141h1215v-141h-211v-1286h-152v1286h-489v-1286h-152z" />
    <glyph glyph-name="summation" unicode="&#x2211;" horiz-adv-x="1253" 
d="M1083 1427v-147h-692l418 -541l-432 -592h729v-147h-1014l545 758l-518 669h964z" />
    <glyph glyph-name="minus" unicode="&#x2212;" horiz-adv-x="868" 
d="M127 641v141h614v-141h-614z" />
    <glyph glyph-name="radical" unicode="&#x221a;" horiz-adv-x="1540" 
d="M158 631l-45 106l311 131l350 -819l506 1589h147l-636 -1974l-447 1045z" />
    <glyph glyph-name="infinity" unicode="&#x221e;" horiz-adv-x="1699" 
d="M464 500q64 0 118 30t90 62q35 31 88 84q-162 174 -275 174q-80 0 -133 -52t-53 -127t51 -123q50 -48 114 -48zM1217 500q78 0 131 50t53 125t-50 125q-49 50 -113 50q-100 0 -202 -95q-31 -30 -84 -89q158 -166 265 -166zM467 356q-143 0 -236 89q-92 89 -92 223
q-1 134 99 228q100 95 247 95q72 0 144 -37q73 -36 111 -72t104 -106q199 215 389 215q143 0 235 -90t92 -224t-100 -227t-248 -94q-70 0 -138 34t-108 70q-38 36 -106 105q-200 -209 -393 -209z" />
    <glyph glyph-name="integral" unicode="&#x222b;" horiz-adv-x="729" 
d="M309 278q0 92 -13 398q-13 305 -13 457q0 483 288 483q39 0 76 -8v-129q-25 10 -67 10t-74 -30q-70 -68 -70 -339q0 -128 14 -450t15 -418q0 -252 -71 -356t-210 -105q-51 0 -102 19v129q39 -15 86 -15t77 24t43 76t17 107t4 147z" />
    <glyph glyph-name="approxequal" unicode="&#x2248;" horiz-adv-x="950" 
d="M310 686q79 0 179 -40t148 -40q86 0 115 84l100 -8q-27 -201 -209 -201q-78 0 -177 40t-147 40q-88 0 -108 -72l-100 9q10 82 65 135t134 53zM625 883q86 0 114 84l101 -9q-27 -201 -209 -200q-78 0 -177 40t-147 40q-88 0 -108 -72l-101 8q10 82 66 135t134 53
q79 0 179 -39q100 -40 148 -40z" />
    <glyph glyph-name="notequal" unicode="&#x2260;" horiz-adv-x="954" 
d="M127 487v142h229l115 194h-344v142h428l129 219l100 -60l-94 -159h137v-142h-221l-114 -194h335v-142h-417l-138 -233l-100 59l102 174h-147z" />
    <glyph glyph-name="lessequal" unicode="&#x2264;" horiz-adv-x="929" 
d="M82 0v141h700v-141h-700zM63 729l719 457v-160l-467 -297l467 -295v-160z" />
    <glyph glyph-name="greaterequal" unicode="&#x2265;" horiz-adv-x="929" 
d="M147 0v141h701v-141h-701zM147 274v160l467 295l-467 297v160l719 -457z" />
    <glyph glyph-name="triagup" unicode="&#x25b2;" 
d="M215 270l367 645l389 -645h-756z" />
    <glyph glyph-name="triagrt" unicode="&#x25ba;" 
d="M319 152v755l646 -366z" />
    <glyph glyph-name="triagdn" unicode="&#x25bc;" 
d="M582 147l-367 646h756z" />
    <glyph glyph-name="triaglf" unicode="&#x25c4;" 
d="M221 541l645 366v-755z" />
    <glyph glyph-name="lozenge" unicode="&#x25ca;" horiz-adv-x="1171" 
d="M586 201l305 512l-305 504l-305 -504zM586 -72l-473 787l473 764l473 -764z" />
    <glyph glyph-name="uni25E2" unicode="&#x25e2;" 
d="M197 385l534 535l197 -715z" />
    <glyph glyph-name="uni25E3" unicode="&#x25e3;" 
d="M258 205l197 715l534 -535z" />
    <glyph glyph-name="uni25E4" unicode="&#x25e4;" 
d="M455 141l-197 715l731 -180z" />
    <glyph glyph-name="uni25E5" unicode="&#x25e5;" 
d="M213 659l715 197l-180 -731z" />
    <glyph glyph-name="fl" unicode="&#xfb02;" horiz-adv-x="1265" 
d="M952 270q0 -162 115 -160q57 0 88 9v-142q-33 -8 -79 -8q-191 0 -249 134q-26 63 -26 157v1167h151v-1157zM270 0v891h-166v141h166v86q0 199 101 281q68 59 211 59q47 0 80 -8v-143q-39 10 -106 10q-66 0 -100 -41t-34 -137v-107h194v-141h-194v-891h-152z" />
    <glyph glyph-name="ffl" unicode="&#xfb04;" horiz-adv-x="1724" 
d="M1411 270q0 -162 115 -160q57 0 88 9v-142q-33 -8 -79 -8q-191 0 -249 134q-26 63 -26 157v1167h151v-1157zM270 0v891h-166v141h166v86q0 212 105 283q85 57 207 57q47 0 80 -8v-143q-39 10 -106 10q-66 0 -100 -41t-34 -137v-107h328v86q0 213 104 283q85 57 207 57
q47 0 80 -8v-143q-39 10 -106 10t-101 -41t-33 -137v-107h195v-141h-195v-891h-151v891h-328v-891h-152z" />
    <glyph glyph-name="space.frac" horiz-adv-x="61" 
 />
    <glyph glyph-name="Q.alt" horiz-adv-x="1761" 
d="M295 713q0 -256 167 -425t419 -169q180 0 325 94l-233 287l112 92l232 -285q147 168 147 415t-166 416t-418 169t-418 -169q-167 -169 -167 -425zM137 713q0 317 216 529q215 212 527 212t528 -212t216 -526t-209 -528l152 -186l-113 -92l-151 186q-186 -125 -422 -125
q-311 0 -528 212q-216 213 -216 530z" />
    <glyph glyph-name="C.alt" horiz-adv-x="1517" 
d="M137 713q0 317 216 529t528 212q270 0 448 -151v-185q-182 188 -441 188t-425 -168q-166 -169 -166 -425t166 -425t427 -169t439 188v-184q-178 -152 -448 -152q-311 0 -528 212q-216 213 -216 530z" />
    <glyph glyph-name="G.alt" horiz-adv-x="1728" 
d="M137 713q0 317 216 529t528 212q250 0 428 -135v-180q-178 168 -429 168t-418 -169t-167 -425t167 -425t411 -169t390 137t169 375h-467v147h622q4 -23 4 -65q1 -336 -197 -539t-511 -203t-530 212q-216 213 -216 530z" />
    <glyph glyph-name="K.alt" horiz-adv-x="1339" 
d="M229 0v1427h160v-659l631 659h201l-666 -690l686 -737h-207l-645 692v-692h-160z" />
    <glyph glyph-name="M.alt" horiz-adv-x="1798" 
d="M96 0l234 1489l569 -1204l569 1204l234 -1489h-162l-143 963l-498 -1012l-496 1012l-145 -963h-162z" />
    <glyph glyph-name="S.alt" 
d="M569 119q150 -1 230 69t80 156q0 122 -67 186t-206 136t-191 106q-154 98 -195 194q-26 60 -25 138q0 156 115 253q116 97 302 97t299 -98v-180q-131 131 -290 131q-125 1 -196 -55t-71 -146t62 -145t190 -120q126 -65 190 -106t124 -99q119 -115 119 -278
q-1 -164 -127 -276t-330 -111q-271 0 -447 170v197q184 -219 434 -219z" />
    <glyph glyph-name="W.alt" horiz-adv-x="2019" 
d="M694 -51l-598 1478h168l430 -1073l228 559l-211 514h168l131 -335l133 335h168l-211 -514l227 -559l430 1073h168l-598 -1478l-317 788z" />
    <glyph glyph-name="Cacute.alt" horiz-adv-x="1517" 
d="M137 713q0 317 216 529t528 212q270 0 448 -151v-185q-182 188 -441 188t-425 -168q-166 -169 -166 -425t166 -425t427 -169t439 188v-184q-178 -152 -448 -152q-311 0 -528 212q-216 213 -216 530zM811 1526l109 297h202l-190 -297h-121z" />
    <glyph glyph-name="Ccircumflex.alt" horiz-adv-x="1517" 
d="M137 713q0 317 216 529t528 212q270 0 448 -151v-185q-182 188 -441 188t-425 -168q-166 -169 -166 -425t166 -425t427 -169t439 188v-184q-178 -152 -448 -152q-311 0 -528 212q-216 213 -216 530zM549 1575l336 299l336 -299h-183l-153 154l-154 -154h-182z" />
    <glyph glyph-name="Ccaron.alt" horiz-adv-x="1517" 
d="M137 713q0 317 216 529t528 212q270 0 448 -151v-185q-182 188 -441 188t-425 -168q-166 -169 -166 -425t166 -425t427 -169t439 188v-184q-178 -152 -448 -152q-311 0 -528 212q-216 213 -216 530zM883 1524l-336 299h182l154 -154l153 154h183z" />
    <glyph glyph-name="Cdotaccent.alt" horiz-adv-x="1517" 
d="M137 713q0 317 216 529t528 212q270 0 448 -151v-185q-182 188 -441 188t-425 -168q-166 -169 -166 -425t166 -425t427 -169t439 188v-184q-178 -152 -448 -152q-311 0 -528 212q-216 213 -216 530zM870 1563q-42 -1 -72 29t-30 73t31 73t71 30t72 -30q31 -30 31 -73
t-31 -73t-72 -29z" />
    <glyph glyph-name="Ccedilla.alt" horiz-adv-x="1517" 
d="M137 713q0 317 216 529t528 212q270 0 448 -151v-185q-182 188 -441 188t-425 -168q-166 -169 -166 -425t166 -425t427 -169t439 188v-184q-178 -152 -448 -152q-35 0 -54 2l-30 -67q57 0 96 -40t39 -106q0 -166 -211 -166q-92 0 -152 48l39 79q58 -35 104 -35t72 21
q26 20 25 61q0 40 -36 58t-114 18l60 144q-254 53 -418 252t-164 473z" />
    <glyph glyph-name="Gcircumflex.alt" horiz-adv-x="1728" 
d="M137 713q0 317 216 529t528 212q250 0 428 -135v-180q-178 168 -429 168t-418 -169t-167 -425t167 -425t411 -169t390 137t169 375h-467v147h622q4 -23 4 -65q1 -336 -197 -539t-511 -203t-530 212q-216 213 -216 530zM543 1575l336 299l335 -299h-182l-153 154
l-154 -154h-182z" />
    <glyph glyph-name="Gbreve.alt" horiz-adv-x="1728" 
d="M137 713q0 317 216 529t528 212q250 0 428 -135v-180q-178 168 -429 168t-418 -169t-167 -425t167 -425t411 -169t390 137t169 375h-467v147h622q4 -23 4 -65q1 -336 -197 -539t-511 -203t-530 212q-216 213 -216 530zM874 1538q-122 0 -212 78t-107 207h141
q47 -150 178 -150t179 150h141q-16 -129 -106 -207t-214 -78z" />
    <glyph glyph-name="Gdotaccent.alt" horiz-adv-x="1728" 
d="M137 713q0 317 216 529t528 212q250 0 428 -135v-180q-178 168 -429 168t-418 -169t-167 -425t167 -425t411 -169t390 137t169 375h-467v147h622q4 -23 4 -65q1 -336 -197 -539t-511 -203t-530 212q-216 213 -216 530zM883 1563q-41 -1 -72 29t-31 73t31 73t72 30t71 -30
t31 -73q-1 -43 -31 -73t-71 -29z" />
    <glyph glyph-name="Gcommaaccent.alt" horiz-adv-x="1728" 
d="M137 713q0 317 216 529t528 212q250 0 428 -135v-180q-178 168 -429 168t-418 -169t-167 -425t167 -425t411 -169t390 137t169 375h-467v147h622q4 -23 4 -65q1 -336 -197 -539t-511 -203t-530 212q-216 213 -216 530zM674 -395l108 297h203l-190 -297h-121z" />
    <glyph glyph-name="Kcommaaccent.alt" horiz-adv-x="1308" 
d="M600 -98h203l-191 -297h-120zM229 0v1427h160v-659l631 659h201l-666 -690l686 -737h-207l-645 692v-692h-160z" />
    <glyph glyph-name="Sacute.alt" 
d="M569 119q150 -1 230 69t80 156q0 122 -67 186t-206 136t-191 106q-154 98 -195 194q-26 60 -25 138q0 156 115 253q116 97 302 97t299 -98v-180q-131 131 -290 131q-125 1 -196 -55t-71 -146t62 -145t190 -120q126 -65 190 -106t124 -99q119 -115 119 -278
q-1 -164 -127 -276t-330 -111q-271 0 -447 170v197q184 -219 434 -219zM530 1526l109 297h203l-191 -297h-121z" />
    <glyph glyph-name="Scircumflex.alt" 
d="M569 119q150 -1 230 69t80 156q0 122 -67 186t-206 136t-191 106q-154 98 -195 194q-26 60 -25 138q0 156 115 253q116 97 302 97t299 -98v-180q-131 131 -290 131q-125 1 -196 -55t-71 -146t62 -145t190 -120q126 -65 190 -106t124 -99q119 -115 119 -278
q-1 -164 -127 -276t-330 -111q-271 0 -447 170v197q184 -219 434 -219zM276 1575l336 299l336 -299h-182l-154 154l-153 -154h-183z" />
    <glyph glyph-name="Scaron.alt" 
d="M569 119q150 -1 230 69t80 156q0 122 -67 186t-206 136t-191 106q-154 98 -195 194q-26 60 -25 138q0 156 115 253q116 97 302 97t299 -98v-180q-131 131 -290 131q-125 1 -196 -55t-71 -146t62 -145t190 -120q126 -65 190 -106t124 -99q119 -115 119 -278
q-1 -164 -127 -276t-330 -111q-271 0 -447 170v197q184 -219 434 -219zM631 1524l-336 299h182l154 -154l153 154h183z" />
    <glyph glyph-name="Scommaaccent.alt" 
d="M500 -98h202l-190 -297h-121zM569 119q150 -1 230 69t80 156q0 122 -67 186t-206 136t-191 106q-154 98 -195 194q-26 60 -25 138q0 156 115 253q116 97 302 97t299 -98v-180q-131 131 -290 131q-125 1 -196 -55t-71 -146t62 -145t190 -120q126 -65 190 -106t124 -99
q119 -115 119 -278q-1 -164 -127 -276t-330 -111q-271 0 -447 170v197q184 -219 434 -219z" />
    <glyph glyph-name="Scedilla.alt" 
d="M569 119q150 -1 230 69t80 156q0 122 -67 186t-206 136t-191 106q-154 98 -195 194q-26 60 -25 138q0 156 115 253q116 97 302 97t299 -98v-180q-131 131 -290 131q-125 1 -196 -55t-71 -146t62 -145t190 -120q126 -65 190 -106t124 -99q119 -115 118 -292
q0 -139 -112 -248t-295 -123l-33 -71q57 0 96 -40t39 -106q0 -166 -211 -166q-92 0 -151 48l39 79q57 -35 103 -35t72 21q25 20 25 61q0 40 -36 58t-113 18l55 135q-229 19 -381 166v197q184 -219 434 -219z" />
    <glyph glyph-name="Wgrave.alt" horiz-adv-x="2019" 
d="M694 -51l-598 1478h168l430 -1073l228 559l-211 514h168l131 -335l133 335h168l-211 -514l227 -559l430 1073h168l-598 -1478l-317 788zM954 1526l-190 297h203l108 -297h-121z" />
    <glyph glyph-name="Wacute.alt" horiz-adv-x="2019" 
d="M694 -51l-598 1478h168l430 -1073l228 559l-211 514h168l131 -335l133 335h168l-211 -514l227 -559l430 1073h168l-598 -1478l-317 788zM946 1526l109 297h202l-190 -297h-121z" />
    <glyph glyph-name="Wcircumflex.alt" horiz-adv-x="2019" 
d="M694 -51l-598 1478h168l430 -1073l228 559l-211 514h168l131 -335l133 335h168l-211 -514l227 -559l430 1073h168l-598 -1478l-317 788zM674 1575l336 299l336 -299h-183l-153 154l-154 -154h-182z" />
    <glyph glyph-name="Wdieresis.alt" horiz-adv-x="2019" 
d="M694 -51l-598 1478h168l430 -1073l228 559l-211 514h168l131 -335l133 335h168l-211 -514l227 -559l430 1073h168l-598 -1478l-317 788zM778 1524q-42 0 -72 30t-30 72q0 43 31 73t71 30t72 -30q31 -30 31 -73q0 -42 -31 -72t-72 -30zM1235 1524q-41 0 -72 30t-30 72
q0 43 30 73q31 30 72 30t72 -30t31 -73t-31 -73q-31 -29 -72 -29z" />
    <glyph glyph-name="a.alt" horiz-adv-x="1308" 
d="M264 516q0 -174 106 -290t268 -116t272 116t110 290t-110 290t-272 116t-268 -116t-106 -290zM113 516q0 233 151 390q152 157 371 157q139 0 230 -53t136 -131v153h152v-1032h-152v154q-45 -78 -136 -131t-230 -54q-219 0 -371 157q-151 157 -151 390z" />
    <glyph glyph-name="c.alt" horiz-adv-x="1120" 
d="M113 516q0 233 159 390q160 157 380 157t356 -117v-174q-146 150 -332 150t-299 -116t-113 -290t113 -290t285 -115q203 0 346 149v-174q-133 -117 -354 -117t-382 157q-159 157 -159 390z" />
    <glyph glyph-name="e.alt" horiz-adv-x="1216" 
d="M942 616q0 123 -92 212q-92 90 -227 90t-238 -88t-111 -214h668zM113 502v10q0 246 145 396q146 150 364 151q218 -1 350 -147t132 -363q0 -35 -2 -66h-838q6 -172 106 -274q100 -103 252 -103t247 44t145 104v-172q-152 -117 -382 -117q-230 1 -374 147t-145 390z" />
    <glyph glyph-name="g.alt" horiz-adv-x="1310" 
d="M264 524q0 -170 106 -282t268 -113q162 0 272 113q110 112 110 282t-110 284t-272 114t-268 -114t-106 -284zM635 -12q-219 0 -371 152t-151 384q0 231 151 385q152 154 371 154q139 0 230 -53t136 -131v153h152v-860q0 -200 -30 -316t-138 -198q-141 -109 -358 -109
q-289 0 -437 127v172q133 -158 437 -157q170 0 264 76q111 88 110 319v86q-45 -78 -136 -131t-230 -53z" />
    <glyph glyph-name="j.alt" horiz-adv-x="466" 
d="M158 -395v1427h151v-1427h-151zM233 1200q-41 0 -71 30t-31 73q0 43 31 73q32 30 72 29q40 0 71 -30q31 -31 31 -73t-31 -72t-72 -30z" />
    <glyph glyph-name="k.alt" horiz-adv-x="1001" 
d="M158 0v1427h151v-847l412 452h178l-440 -485l487 -547h-190l-447 502v-502h-151z" />
    <glyph glyph-name="l.alt" horiz-adv-x="471" 
d="M160 0v1427h151v-1427h-151z" />
    <glyph glyph-name="r.alt" horiz-adv-x="786" 
d="M158 0v743q0 319 356 320q74 0 137 -14v-144q-57 17 -121 17t-95 -6q-87 -19 -110 -86q-15 -42 -16 -109v-721h-151z" />
    <glyph glyph-name="s.alt" horiz-adv-x="901" 
d="M152 797q0 121 86 193t233 73q147 0 236 -66v-155q-100 80 -222 80q-182 0 -182 -125q0 -51 29 -80t76 -55q46 -26 114 -60q193 -100 231 -155q64 -93 64 -189t-87 -189t-292 -93t-338 124v176q141 -160 357 -159q100 0 154 40q55 40 55 92t-14 83q-21 51 -118 104
q-30 16 -133 67t-158 100q-55 48 -73 92t-18 102z" />
    <glyph glyph-name="t.alt" horiz-adv-x="712" 
d="M233 0v891h-131v141h131v395h152v-395h229v-141h-229v-891h-152z" />
    <glyph glyph-name="u.alt" horiz-adv-x="1130" 
d="M145 373v659h152v-626q0 -129 69 -205q70 -76 190 -76t199 81t79 210v616h151v-1032h-151v174q-41 -86 -123 -138t-195 -52q-170 0 -270 106t-101 283z" />
    <glyph glyph-name="w.alt" horiz-adv-x="1609" 
d="M547 -72l-475 1104h149l326 -758l172 357l-189 401h156l119 -260l121 260h155l-188 -401l172 -357l326 758h149l-475 -1104l-260 557z" />
    <glyph glyph-name="y.alt" horiz-adv-x="1146" 
d="M483 -6l-411 1038h153l338 -856l357 856h155l-606 -1427h-152z" />
    <glyph glyph-name="agrave.alt" horiz-adv-x="1308" 
d="M264 516q0 -174 106 -290t268 -116t272 116t110 290t-110 290t-272 116t-268 -116t-106 -290zM113 516q0 233 151 390q152 157 371 157q139 0 230 -53t136 -131v153h152v-1032h-152v154q-45 -78 -136 -131t-230 -54q-219 0 -371 157q-151 157 -151 390zM586 1130
l-191 297h203l109 -297h-121z" />
    <glyph glyph-name="aacute.alt" horiz-adv-x="1308" 
d="M264 516q0 -174 106 -290t268 -116t272 116t110 290t-110 290t-272 116t-268 -116t-106 -290zM113 516q0 233 151 390q152 157 371 157q139 0 230 -53t136 -131v153h152v-1032h-152v154q-45 -78 -136 -131t-230 -54q-219 0 -371 157q-151 157 -151 390zM575 1130l109 297
h203l-191 -297h-121z" />
    <glyph glyph-name="acircumflex.alt" horiz-adv-x="1308" 
d="M264 516q0 -174 106 -290t268 -116t272 116t110 290t-110 290t-272 116t-268 -116t-106 -290zM113 516q0 233 151 390q152 157 371 157q139 0 230 -53t136 -131v153h152v-1032h-152v154q-45 -78 -136 -131t-230 -54q-219 0 -371 157q-151 157 -151 390zM334 1180l336 299
l336 -299h-183l-153 153l-154 -153h-182z" />
    <glyph glyph-name="atilde.alt" horiz-adv-x="1308" 
d="M264 516q0 -174 106 -290t268 -116t272 116t110 290t-110 290t-272 116t-268 -116t-106 -290zM113 516q0 233 151 390q152 157 371 157q139 0 230 -53t136 -131v153h152v-1032h-152v154q-45 -78 -136 -131t-230 -54q-219 0 -371 157q-151 157 -151 390zM528 1413
q66 0 141 -40t109 -40q74 0 94 84l101 -8q-23 -201 -189 -201q-57 0 -132 40t-109 40q-72 0 -88 -71l-101 8q10 82 60 135q48 53 114 53z" />
    <glyph glyph-name="adieresis.alt" horiz-adv-x="1308" 
d="M264 516q0 -174 106 -290t268 -116t272 116t110 290t-110 290t-272 116t-268 -116t-106 -290zM113 516q0 233 151 390q152 157 371 157q139 0 230 -53t136 -131v153h152v-1032h-152v154q-45 -78 -136 -131t-230 -54q-219 0 -371 157q-151 157 -151 390zM449 1200
q-41 0 -72 30t-31 73t31 73t72 29q41 0 71 -30q30 -31 31 -73q-1 -42 -31 -72t-71 -30zM870 1200q-42 0 -72 30t-30 73t31 73t71 29q40 0 72 -30q31 -31 31 -73t-31 -72t-72 -30z" />
    <glyph glyph-name="amacron.alt" horiz-adv-x="1308" 
d="M264 516q0 -174 106 -290t268 -116t272 116t110 290t-110 290t-272 116t-268 -116t-106 -290zM113 516q0 233 151 390q152 157 371 157q139 0 230 -53t136 -131v153h152v-1032h-152v154q-45 -78 -136 -131t-230 -54q-219 0 -371 157q-151 157 -151 390zM369 1231v141h602
v-141h-602z" />
    <glyph glyph-name="abreve.alt" horiz-adv-x="1308" 
d="M264 516q0 -174 106 -290t268 -116t272 116t110 290t-110 290t-272 116t-268 -116t-106 -290zM113 516q0 233 151 390q152 157 371 157q139 0 230 -53t136 -131v153h152v-1032h-152v154q-45 -78 -136 -131t-230 -54q-219 0 -371 157q-151 157 -151 390zM637 1143
q-123 0 -213 78t-107 206h142q47 -149 178 -149t178 149h141q-16 -129 -106 -207t-213 -77z" />
    <glyph glyph-name="aring.alt" horiz-adv-x="1308" 
d="M264 516q0 -174 106 -290t268 -116t272 116t110 290t-110 290t-272 116t-268 -116t-106 -290zM113 516q0 233 151 390q152 157 371 157q139 0 230 -53t136 -131v153h152v-1032h-152v154q-45 -78 -136 -131t-230 -54q-219 0 -371 157q-151 157 -151 390zM666 1243
q38 0 66 29q28 30 28 68t-28 66t-66 28t-68 -28q-29 -28 -29 -67t29 -67t68 -29zM665 1139q-83 0 -142 59q-58 59 -58 141q0 83 59 141q60 58 142 58t140 -58t58 -142t-58 -141q-58 -58 -141 -58z" />
    <glyph glyph-name="aringacute.alt" horiz-adv-x="1308" 
d="M264 516q0 -174 106 -290t268 -116t272 116t110 290t-110 290t-272 116t-268 -116t-106 -290zM113 516q0 233 151 390q152 157 371 157q139 0 230 -53t136 -131v153h152v-1032h-152v154q-45 -78 -136 -131t-230 -54q-219 0 -371 157q-151 157 -151 390zM655 1243
q39 0 67 29q28 30 28 68t-28 66t-67 28t-67 -28t-29 -67q1 -39 29 -67t67 -29zM655 1139q-82 0 -141 59t-59 141q0 83 59 141t141 58q83 0 141 -58t58 -142t-58 -141q-58 -58 -141 -58zM590 1614l108 297h203l-190 -297h-121z" />
    <glyph glyph-name="aogonek.alt" horiz-adv-x="1308" 
d="M264 516q0 -174 106 -290t268 -116t272 116t110 290t-110 290t-272 116t-268 -116t-106 -290zM113 516q0 233 151 390q152 157 371 157q139 0 230 -53t136 -131v153h152v-1024q-168 -106 -168 -203q0 -45 30 -69q31 -24 83 -23q52 0 108 31l-26 -121q-57 -29 -129 -29
t-133 50t-62 133q0 125 145 217v160q-45 -78 -136 -131t-230 -54q-219 0 -371 157q-151 157 -151 390z" />
    <glyph glyph-name="cacute.alt" horiz-adv-x="1120" 
d="M113 516q0 233 159 390q160 157 380 157t356 -117v-174q-146 150 -332 150t-299 -116t-113 -290t113 -290t285 -115q203 0 346 149v-174q-133 -117 -354 -117t-382 157q-159 157 -159 390zM598 1130l109 297h202l-190 -297h-121z" />
    <glyph glyph-name="ccircumflex.alt" horiz-adv-x="1120" 
d="M113 516q0 233 159 390q160 157 380 157t356 -117v-174q-146 150 -332 150t-299 -116t-113 -290t113 -290t285 -115q203 0 346 149v-174q-133 -117 -354 -117t-382 157q-159 157 -159 390zM332 1180l336 299l336 -299h-183l-153 153l-154 -153h-182z" />
    <glyph glyph-name="ccaron.alt" horiz-adv-x="1120" 
d="M113 516q0 233 159 390q160 157 380 157t356 -117v-174q-146 150 -332 150t-299 -116t-113 -290t113 -290t285 -115q203 0 346 149v-174q-133 -117 -354 -117t-382 157q-159 157 -159 390zM655 1128l-336 299h183l153 -153l154 153h182z" />
    <glyph glyph-name="cdotaccent.alt" horiz-adv-x="1120" 
d="M113 516q0 233 159 390q160 157 380 157t356 -117v-174q-146 150 -332 150t-299 -116t-113 -290t113 -290t285 -115q203 0 346 149v-174q-133 -117 -354 -117t-382 157q-159 157 -159 390zM655 1200q-41 0 -71 30t-31 73q0 43 31 73q32 30 72 29q40 0 71 -30
q31 -31 31 -73t-31 -72t-72 -30z" />
    <glyph glyph-name="ccedilla.alt" horiz-adv-x="1120" 
d="M113 533q0 216 159 373q160 157 380 157t356 -117v-174q-146 150 -332 150t-299 -116t-113 -290t113 -290t285 -115q203 0 346 149v-174q-133 -117 -346 -117h-19l-29 -63q56 0 96 -40t40 -106q0 -166 -211 -166q-92 0 -152 48l39 79q58 -35 104 -35t72 21q26 20 25 61
q0 40 -36 58t-114 18l58 140q-184 41 -304 187q-118 146 -118 362z" />
    <glyph glyph-name="egrave.alt" horiz-adv-x="1216" 
d="M942 616q0 123 -92 212q-92 90 -227 90t-238 -88t-111 -214h668zM113 502v10q0 246 145 396q146 150 364 151q218 -1 350 -147t132 -363q0 -35 -2 -66h-838q6 -172 106 -274q100 -103 252 -103t247 44t145 104v-172q-152 -117 -382 -117q-230 1 -374 147t-145 390z
M590 1130l-191 297h203l109 -297h-121z" />
    <glyph glyph-name="eacute.alt" horiz-adv-x="1216" 
d="M942 616q0 123 -92 212q-92 90 -227 90t-238 -88t-111 -214h668zM113 502v10q0 246 145 396q146 150 364 151q218 -1 350 -147t132 -363q0 -35 -2 -66h-838q6 -172 106 -274q100 -103 252 -103t247 44t145 104v-172q-152 -117 -382 -117q-230 1 -374 147t-145 390z
M559 1130l109 297h202l-190 -297h-121z" />
    <glyph glyph-name="ecircumflex.alt" horiz-adv-x="1216" 
d="M942 616q0 123 -92 212q-92 90 -227 90t-238 -88t-111 -214h668zM113 502v10q0 246 145 396q146 150 364 151q218 -1 350 -147t132 -363q0 -35 -2 -66h-838q6 -172 106 -274q100 -103 252 -103t247 44t145 104v-172q-152 -117 -382 -117q-230 1 -374 147t-145 390z
M291 1180l336 299l336 -299h-183l-153 153l-154 -153h-182z" />
    <glyph glyph-name="ecaron.alt" horiz-adv-x="1216" 
d="M942 616q0 123 -92 212q-92 90 -227 90t-238 -88t-111 -214h668zM113 502v10q0 246 145 396q146 150 364 151q218 -1 350 -147t132 -363q0 -35 -2 -66h-838q6 -172 106 -274q100 -103 252 -103t247 44t145 104v-172q-152 -117 -382 -117q-230 1 -374 147t-145 390z
M631 1128l-336 299h182l154 -153l153 153h183z" />
    <glyph glyph-name="edieresis.alt" horiz-adv-x="1216" 
d="M942 616q0 123 -92 212q-92 90 -227 90t-238 -88t-111 -214h668zM113 502v10q0 246 145 396q146 150 364 151q218 -1 350 -147t132 -363q0 -35 -2 -66h-838q6 -172 106 -274q100 -103 252 -103t247 44t145 104v-172q-152 -117 -382 -117q-230 1 -374 147t-145 390z
M418 1200q-41 0 -72 30t-31 73t31 73t72 29q42 0 72 -30q30 -31 30 -73t-30 -72t-72 -30zM840 1200q-41 0 -72 30t-31 73t31 73t72 29q42 0 72 -30q30 -31 30 -73t-30 -72t-72 -30z" />
    <glyph glyph-name="emacron.alt" horiz-adv-x="1216" 
d="M942 616q0 123 -92 212q-92 90 -227 90t-238 -88t-111 -214h668zM113 502v10q0 246 145 396q146 150 364 151q218 -1 350 -147t132 -363q0 -35 -2 -66h-838q6 -172 106 -274q100 -103 252 -103t247 44t145 104v-172q-152 -117 -382 -117q-230 1 -374 147t-145 390z
M322 1231v141h602v-141h-602z" />
    <glyph glyph-name="ebreve.alt" horiz-adv-x="1216" 
d="M942 616q0 123 -92 212q-92 90 -227 90t-238 -88t-111 -214h668zM113 502v10q0 246 145 396q146 150 364 151q218 -1 350 -147t132 -363q0 -35 -2 -66h-838q6 -172 106 -274q100 -103 252 -103t247 44t145 104v-172q-152 -117 -382 -117q-230 1 -374 147t-145 390z
M633 1143q-123 0 -213 78t-107 206h142q47 -149 178 -149t178 149h141q-16 -129 -106 -207t-213 -77z" />
    <glyph glyph-name="edotaccent.alt" horiz-adv-x="1216" 
d="M942 616q0 123 -92 212q-92 90 -227 90t-238 -88t-111 -214h668zM113 502v10q0 246 145 396q146 150 364 151q218 -1 350 -147t132 -363q0 -35 -2 -66h-838q6 -172 106 -274q100 -103 252 -103t247 44t145 104v-172q-152 -117 -382 -117q-230 1 -374 147t-145 390z
M629 1200q-41 0 -72 30t-31 73t31 73t72 29q41 0 71 -30q30 -31 31 -73q-1 -42 -31 -72t-71 -30z" />
    <glyph glyph-name="eogonek.alt" horiz-adv-x="1216" 
d="M942 616q0 125 -92 215q-92 91 -227 91t-238 -90t-111 -216h668zM113 504v8q0 248 145 400q146 152 364 151t350 -149t132 -365q0 -35 -2 -66h-838q6 -170 106 -271t250 -101t245 48t141 111v-166q-21 -24 -86 -59q-162 -87 -200 -161q-18 -34 -18 -74t28 -65
q28 -24 78 -24t103 31l-26 -121q-53 -29 -122 -29t-129 51q-60 49 -60 145t106 179q-23 -4 -47 -4q-231 -1 -375 145t-145 386z" />
    <glyph glyph-name="gcircumflex.alt" horiz-adv-x="1310" 
d="M264 524q0 -170 106 -282t268 -113q162 0 272 113q110 112 110 282t-110 284t-272 114t-268 -114t-106 -284zM635 -12q-219 0 -371 152t-151 384q0 231 151 385q152 154 371 154q139 0 230 -53t136 -131v153h152v-860q0 -200 -30 -316t-138 -198q-141 -109 -358 -109
q-289 0 -437 127v172q133 -158 437 -157q170 0 264 76q111 88 110 319v86q-45 -78 -136 -131t-230 -53zM319 1180l336 299l336 -299h-182l-154 153l-153 -153h-183z" />
    <glyph glyph-name="gbreve.alt" horiz-adv-x="1310" 
d="M264 524q0 -170 106 -282t268 -113q162 0 272 113q110 112 110 282t-110 284t-272 114t-268 -114t-106 -284zM635 -12q-219 0 -371 152t-151 384q0 231 151 385q152 154 371 154q139 0 230 -53t136 -131v153h152v-860q0 -200 -30 -316t-138 -198q-141 -109 -358 -109
q-289 0 -437 127v172q133 -158 437 -157q170 0 264 76q111 88 110 319v86q-45 -78 -136 -131t-230 -53zM641 1143q-123 0 -213 78t-106 206h141q47 -149 178 -149t178 149h142q-17 -129 -107 -207t-213 -77z" />
    <glyph glyph-name="gdotaccent.alt" horiz-adv-x="1310" 
d="M264 524q0 -170 106 -282t268 -113q162 0 272 113q110 112 110 282t-110 284t-272 114t-268 -114t-106 -284zM635 -12q-219 0 -371 152t-151 384q0 231 151 385q152 154 371 154q139 0 230 -53t136 -131v153h152v-860q0 -200 -30 -316t-138 -198q-141 -109 -358 -109
q-289 0 -437 127v172q133 -158 437 -157q170 0 264 76q111 88 110 319v86q-45 -78 -136 -131t-230 -53zM655 1200q-41 0 -71 30t-31 73q0 43 31 73q32 30 72 29q40 0 71 -30q31 -31 31 -73t-31 -72t-72 -30z" />
    <glyph glyph-name="gcommaaccent.alt" horiz-adv-x="1310" 
d="M264 524q0 -170 106 -282t268 -113q162 0 272 113q110 112 110 282t-110 284t-272 114t-268 -114t-106 -284zM635 -12q-219 0 -371 152t-151 384q0 231 151 385q152 154 371 154q139 0 230 -53t136 -131v153h152v-860q0 -200 -30 -316t-138 -198q-141 -109 -358 -109
q-289 0 -437 127v172q133 -158 437 -157q170 0 264 76q111 88 110 319v86q-45 -78 -136 -131t-230 -53zM563 1130l109 297h202l-190 -297h-121z" />
    <glyph glyph-name="jcircumflex.alt" horiz-adv-x="507" 
d="M178 -395v1427h152v-1427h-152zM-23 1180l279 299l279 -299h-183l-96 147l-96 -147h-183z" />
    <glyph glyph-name="kcommaaccent.alt" horiz-adv-x="1001" 
d="M430 -98h203l-191 -297h-120zM158 0v1427h151v-847l412 452h178l-440 -485l487 -547h-190l-447 502v-502h-151z" />
    <glyph glyph-name="lacute.alt" horiz-adv-x="471" 
d="M160 0v1427h151v-1427h-151zM162 1479l108 297h203l-190 -297h-121z" />
    <glyph glyph-name="lcaron.alt" horiz-adv-x="704" 
d="M160 0v1427h151v-1427h-151zM391 1130l109 297h202l-190 -297h-121z" />
    <glyph glyph-name="lcommaaccent.alt" horiz-adv-x="471" 
d="M156 -98h202l-190 -297h-121zM160 0v1427h151v-1427h-151z" />
    <glyph glyph-name="ldot.alt" horiz-adv-x="724" 
d="M494 651q-41 0 -72 30t-31 73q0 42 31 72t72 30q42 0 72 -30t30 -72t-30 -73q-30 -30 -72 -30zM160 0v1427h151v-1427h-151z" />
    <glyph glyph-name="lslash.alt" horiz-adv-x="528" 
d="M188 0v635l-139 -82v158l139 82v634h152v-544l174 104v-158l-174 -104v-725h-152z" />
    <glyph glyph-name="racute.alt" horiz-adv-x="786" 
d="M305 1130l109 297h202l-190 -297h-121zM158 0v743q0 319 356 320q74 0 137 -14v-144q-57 17 -121 17t-95 -6q-87 -19 -110 -86q-15 -42 -16 -109v-721h-151z" />
    <glyph glyph-name="rcommaaccent.alt" horiz-adv-x="786" 
d="M158 -98h202l-190 -297h-121zM158 0v743q0 319 356 320q74 0 137 -14v-144q-57 17 -121 17t-95 -6q-87 -19 -110 -86q-15 -42 -16 -109v-721h-151z" />
    <glyph glyph-name="rcaron.alt" horiz-adv-x="786" 
d="M406 1128l-336 299h182l154 -153l153 153h182zM158 0v743q0 319 356 320q74 0 137 -14v-144q-57 17 -121 17t-95 -6q-87 -19 -110 -86q-15 -42 -16 -109v-721h-151z" />
    <glyph glyph-name="sacute.alt" horiz-adv-x="901" 
d="M152 797q0 121 86 193t233 73q147 0 236 -66v-155q-100 80 -222 80q-182 0 -182 -125q0 -51 29 -80t76 -55q46 -26 114 -60q193 -100 231 -155q64 -93 64 -189t-87 -189t-292 -93t-338 124v176q141 -160 357 -159q100 0 154 40q55 40 55 92t-14 83q-21 51 -118 104
q-30 16 -133 67t-158 100q-55 48 -73 92t-18 102zM369 1130l108 297h203l-191 -297h-120z" />
    <glyph glyph-name="scircumflex.alt" horiz-adv-x="901" 
d="M152 797q0 121 86 193t233 73q147 0 236 -66v-155q-100 80 -222 80q-182 0 -182 -125q0 -51 29 -80t76 -55q46 -26 114 -60q193 -100 231 -155q64 -93 64 -189t-87 -189t-292 -93t-338 124v176q141 -160 357 -159q100 0 154 40q55 40 55 92t-14 83q-21 51 -118 104
q-30 16 -133 67t-158 100q-55 48 -73 92t-18 102zM139 1180l336 299l336 -299h-182l-154 153l-153 -153h-183z" />
    <glyph glyph-name="scaron.alt" horiz-adv-x="901" 
d="M152 797q0 121 86 193t233 73q147 0 236 -66v-155q-100 80 -222 80q-182 0 -182 -125q0 -51 29 -80t76 -55q46 -26 114 -60q193 -100 231 -155q64 -93 64 -189t-87 -189t-292 -93t-338 124v176q141 -160 357 -159q100 0 154 40q55 40 55 92t-14 83q-21 51 -118 104
q-30 16 -133 67t-158 100q-55 48 -73 92t-18 102zM479 1128l-336 299h183l153 -153l154 153h182z" />
    <glyph glyph-name="scommaaccent.alt" horiz-adv-x="901" 
d="M332 -98h203l-191 -297h-121zM152 797q0 121 86 193t233 73q147 0 236 -66v-155q-100 80 -222 80q-182 0 -182 -125q0 -51 29 -80t76 -55q46 -26 114 -60q193 -100 231 -155q64 -93 64 -189t-87 -189t-292 -93t-338 124v176q141 -160 357 -159q100 0 154 40q55 40 55 92
t-14 83q-21 51 -118 104q-30 16 -133 67t-158 100q-55 48 -73 92t-18 102z" />
    <glyph glyph-name="scedilla.alt" horiz-adv-x="901" 
d="M152 797q0 121 86 193t233 73q147 0 236 -66v-155q-100 80 -222 80q-182 0 -182 -125q0 -51 29 -80t76 -55q46 -26 114 -60q193 -100 231 -155q64 -93 64 -186t-76 -182t-241 -102l-37 -71q61 0 104 -40t43 -106q0 -166 -223 -166q-92 0 -156 48l39 79q58 -35 110 -35
t79 21q27 20 27 61q0 40 -40 58q-39 18 -122 18l63 136q-176 18 -287 120v176q141 -160 357 -159q100 0 154 40q55 40 55 92t-14 83q-21 51 -118 104q-30 16 -133 67t-158 100q-55 48 -73 92t-18 102z" />
    <glyph glyph-name="germandbls.alt" horiz-adv-x="1208" 
d="M156 0v1106q0 148 101 250t249 102t250 -102t102 -242t-92 -231q131 -25 235 -140q105 -115 105 -307t-140 -330q-140 -137 -356 -137q-47 0 -104 11v155q49 -18 104 -18q139 0 238 96q98 96 98 232q0 135 -98 231t-238 96q-55 0 -104 -18v143q193 37 192 209
q0 84 -56 144t-136 60t-135 -58q-55 -60 -56 -146v-1106h-159z" />
    <glyph glyph-name="tcaron.alt" horiz-adv-x="757" 
d="M233 0v891h-131v141h131v395h152v-395h229v-141h-229v-891h-152zM477 1130l107 297h188l-174 -297h-121z" />
    <glyph glyph-name="tcommaaccent.alt" horiz-adv-x="712" 
d="M233 -98h203l-190 -297h-121zM233 0v891h-131v141h131v395h152v-395h229v-141h-229v-891h-152z" />
    <glyph glyph-name="tbar.alt" horiz-adv-x="712" 
d="M233 0v602h-131v141h131v148h-131v141h131v395h152v-395h229v-141h-229v-148h229v-141h-229v-602h-152z" />
    <glyph glyph-name="ugrave.alt" horiz-adv-x="1130" 
d="M145 373v659h152v-626q0 -129 69 -205q70 -76 190 -76t199 81t79 210v616h151v-1032h-151v174q-41 -86 -123 -138t-195 -52q-170 0 -270 106t-101 283zM526 1130l-190 297h203l108 -297h-121z" />
    <glyph glyph-name="uacute.alt" horiz-adv-x="1130" 
d="M145 373v659h152v-626q0 -129 69 -205q70 -76 190 -76t199 81t79 210v616h151v-1032h-151v174q-41 -86 -123 -138t-195 -52q-170 0 -270 106t-101 283zM508 1130l108 297h203l-190 -297h-121z" />
    <glyph glyph-name="ucircumflex.alt" horiz-adv-x="1130" 
d="M145 373v659h152v-626q0 -129 69 -205q70 -76 190 -76t199 81t79 210v616h151v-1032h-151v174q-41 -86 -123 -138t-195 -52q-170 0 -270 106t-101 283zM244 1180l336 299l335 -299h-182l-153 153l-154 -153h-182z" />
    <glyph glyph-name="utilde.alt" horiz-adv-x="1130" 
d="M145 373v659h152v-626q0 -129 69 -205q70 -76 190 -76t199 81t79 210v616h151v-1032h-151v174q-41 -86 -123 -138t-195 -52q-170 0 -270 106t-101 283zM444 1413q66 0 141 -40t109 -40q74 0 94 84l101 -8q-23 -201 -189 -201q-57 0 -132 40t-109 40q-72 0 -88 -71l-101 8
q10 82 60 135q48 53 114 53z" />
    <glyph glyph-name="udieresis.alt" horiz-adv-x="1130" 
d="M145 373v659h152v-626q0 -129 69 -205q70 -76 190 -76t199 81t79 210v616h151v-1032h-151v174q-41 -86 -123 -138t-195 -52q-170 0 -270 106t-101 283zM369 1200q-41 0 -72 30t-31 73t31 73t72 29q41 0 71 -30q30 -31 31 -73q-1 -42 -31 -72t-71 -30zM791 1200
q-41 0 -72 30t-31 73t31 73t72 29q41 0 71 -30q30 -31 31 -73q-1 -42 -31 -72t-71 -30z" />
    <glyph glyph-name="umacron.alt" horiz-adv-x="1130" 
d="M145 373v659h152v-626q0 -129 69 -205q70 -76 190 -76t199 81t79 210v616h151v-1032h-151v174q-41 -86 -123 -138t-195 -52q-170 0 -270 106t-101 283zM279 1231v141h602v-141h-602z" />
    <glyph glyph-name="ubreve.alt" horiz-adv-x="1130" 
d="M145 373v659h152v-626q0 -129 69 -205q70 -76 190 -76t199 81t79 210v616h151v-1032h-151v174q-41 -86 -123 -138t-195 -52q-170 0 -270 106t-101 283zM580 1143q-123 0 -213 78t-107 206h141q47 -149 179 -149t178 149h141q-16 -129 -106 -207t-213 -77z" />
    <glyph glyph-name="uring.alt" horiz-adv-x="1130" 
d="M145 373v659h152v-626q0 -129 69 -205q70 -76 190 -76t199 81t79 210v616h151v-1032h-151v174q-41 -86 -123 -138t-195 -52q-170 0 -270 106t-101 283zM580 1163q38 0 66 29t28 68q0 38 -28 66t-66 28t-68 -28q-29 -28 -29 -66t29 -68q29 -29 68 -29zM778 1259
q0 -83 -58 -141t-141 -59q-83 0 -142 58q-58 57 -58 141t59 142q60 58 142 58t140 -58t58 -141z" />
    <glyph glyph-name="uhungarumlaut.alt" horiz-adv-x="1130" 
d="M145 373v659h152v-626q0 -129 69 -205q70 -76 190 -76t199 81t79 210v616h151v-1032h-151v174q-41 -86 -123 -138t-195 -52q-170 0 -270 106t-101 283zM354 1130l129 297h195l-211 -297h-113zM670 1130l129 297h194l-211 -297h-112z" />
    <glyph glyph-name="uogonek.alt" horiz-adv-x="1157" 
d="M844 -195q0 -92 112 -92q53 0 109 31l-27 -121q-56 -29 -128 -29t-134 50t-61 133q0 125 145 217v180q-41 -86 -128 -138t-204 -52q-176 0 -280 106t-103 283v659h152v-626q0 -131 72 -206q73 -75 199 -75t209 81t83 210v616h152v-1024q-168 -106 -168 -203z" />
    <glyph glyph-name="wgrave.alt" horiz-adv-x="1609" 
d="M547 -72l-475 1104h149l326 -758l172 357l-189 401h156l119 -260l121 260h155l-188 -401l172 -357l326 758h149l-475 -1104l-260 557zM748 1130l-191 297h203l108 -297h-120z" />
    <glyph glyph-name="wacute.alt" horiz-adv-x="1609" 
d="M547 -72l-475 1104h149l326 -758l172 357l-189 401h156l119 -260l121 260h155l-188 -401l172 -357l326 758h149l-475 -1104l-260 557zM741 1130l109 297h203l-191 -297h-121z" />
    <glyph glyph-name="wcircumflex.alt" horiz-adv-x="1609" 
d="M547 -72l-475 1104h149l326 -758l172 357l-189 401h156l119 -260l121 260h155l-188 -401l172 -357l326 758h149l-475 -1104l-260 557zM469 1180l336 299l336 -299h-183l-153 153l-154 -153h-182z" />
    <glyph glyph-name="wdieresis.alt" horiz-adv-x="1609" 
d="M547 -72l-475 1104h149l326 -758l172 357l-189 401h156l119 -260l121 260h155l-188 -401l172 -357l326 758h149l-475 -1104l-260 557zM578 1200q-41 0 -72 30t-31 73t31 73t72 29q42 0 72 -30q30 -31 30 -73t-30 -72t-72 -30zM1032 1200q-42 0 -72 30t-30 73t31 73t71 29
q40 0 72 -30q31 -31 31 -73t-31 -72t-72 -30z" />
    <glyph glyph-name="ygrave.alt" horiz-adv-x="1138" 
d="M483 -6l-411 1038h153l336 -860l359 860h147l-602 -1427h-148zM537 1130l-191 297h203l108 -297h-120z" />
    <glyph glyph-name="yacute.alt" horiz-adv-x="1138" 
d="M483 -6l-411 1038h153l336 -860l359 860h147l-602 -1427h-148zM498 1130l108 297h203l-191 -297h-120z" />
    <glyph glyph-name="ycircumflex.alt" horiz-adv-x="1138" 
d="M483 -6l-411 1038h153l336 -860l359 860h147l-602 -1427h-148zM233 1180l336 299l336 -299h-182l-154 153l-153 -153h-183z" />
    <glyph glyph-name="ydieresis.alt" horiz-adv-x="1138" 
d="M483 -6l-411 1038h153l336 -860l359 860h147l-602 -1427h-148zM358 1200q-42 0 -72 30t-30 73t31 73t71 29q40 0 72 -30q31 -31 31 -73t-31 -72t-72 -30zM780 1200q-42 0 -72 30t-30 73t31 73t71 29q40 0 72 -30q31 -31 31 -73t-31 -72t-72 -30z" />
    <glyph glyph-name="fj.alt" horiz-adv-x="1058" 
d="M270 0v891h-166v141h166v86q0 199 101 281q82 59 252 59q59 0 100 -8v-143q-45 10 -129 10t-128 -41t-44 -137v-107h479v-1427h-151v1286h-328v-891h-152z" />
    <glyph glyph-name="fl.alt" horiz-adv-x="1112" 
d="M801 0v1427h151v-1427h-151zM270 0v891h-166v141h166v86q0 199 101 281q68 59 211 59q47 0 80 -8v-143q-39 10 -106 10q-66 0 -100 -41t-34 -137v-107h194v-141h-194v-891h-152z" />
    <glyph glyph-name="ffj.alt" horiz-adv-x="1538" 
d="M270 0v891h-166v141h166v86q0 212 105 283q85 57 207 57q47 0 80 -8v-143q-39 10 -106 10q-66 0 -100 -41t-34 -137v-107h328v86q0 199 100 281q82 59 252 59q59 0 100 -8v-143q-45 10 -129 10t-128 -41t-44 -137v-107h479v-1427h-151v1286h-328v-891h-151v891h-328v-891
h-152z" />
    <glyph glyph-name="ffl.alt" horiz-adv-x="1570" 
d="M1260 0v1427h151v-1427h-151zM270 0v891h-166v141h166v86q0 212 105 283q85 57 207 57q47 0 80 -8v-143q-39 10 -106 10q-66 0 -100 -41t-34 -137v-107h328v86q0 213 104 283q85 57 207 57q47 0 80 -8v-143q-39 10 -106 10t-101 -41t-33 -137v-107h195v-141h-195v-891
h-151v891h-328v-891h-152z" />
    <glyph glyph-name="zero.onum" horiz-adv-x="1212" 
d="M606 123q127 0 221 86t107 215q4 53 4 93t-4 93q-12 129 -106 215t-222 86q-127 0 -221 -86t-106 -215q-4 -27 -4 -93t4 -93q12 -129 106 -215t221 -86zM123 518q0 76 2 105q19 188 157 314t324 126t324 -126t155 -314q8 -117 0 -211q-18 -188 -155 -314
q-138 -126 -324 -127q-186 1 -324 127t-157 314q-2 30 -2 106z" />
    <glyph glyph-name="one.onum" horiz-adv-x="806" 
d="M424 0v823l-250 -127l-68 133l478 240v-1069h-160z" />
    <glyph glyph-name="two.onum" horiz-adv-x="1067" 
d="M768 735q0 76 -63 126t-165 50q-102 -1 -175 -75q-74 -74 -74 -179h-152q0 168 119 287t284 119t271 -95t107 -233q0 -92 -38 -172t-147 -174l-278 -242h518v-147h-918l578 502q61 53 93 100t36 71t4 62z" />
    <glyph glyph-name="three.onum" horiz-adv-x="1124" 
d="M542 -98q128 0 217 78t89 200t-89 200q-89 79 -242 79t-226 -27l381 453h-490v147h824l-383 -440h2q155 -10 265 -128t110 -293t-134 -298q-133 -123 -336 -123q-164 0 -288 73t-172 200l143 55q31 -82 116 -129t213 -47z" />
    <glyph glyph-name="four.onum" horiz-adv-x="1218" 
d="M874 147v312h160v-854h-160v395h-782l473 1032h172l-403 -885h540z" />
    <glyph glyph-name="five.onum" horiz-adv-x="1140" 
d="M539 -98q147 0 236 81t89 215t-90 217t-235 83q-217 0 -349 -138l121 672h650v-147h-515l-45 -256q72 20 138 20q207 0 342 -125q135 -126 135 -328t-135 -324t-342 -122q-137 0 -255 70t-175 188l135 68q38 -80 118 -127t177 -47z" />
    <glyph glyph-name="six.onum" horiz-adv-x="1167" 
d="M274 428q0 -127 90 -217t218 -90q127 0 218 90t91 217t-91 218t-218 91q-128 0 -218 -91t-90 -218zM123 428q-1 82 21 133t31 76t40 75t54 88t96 144l325 483h189l-373 -548q37 10 98 10q176 0 307 -136q131 -137 131 -325t-136 -324t-324 -135q-188 0 -324 136
q-135 137 -135 323z" />
    <glyph glyph-name="seven.onum" horiz-adv-x="1093" 
d="M104 885v147h920l-621 -1427h-167l548 1280h-680z" />
    <glyph glyph-name="eight.onum" horiz-adv-x="1191" 
d="M279 432q0 -129 93 -220t224 -91t224 91t93 220t-93 220t-224 91t-224 -91t-93 -220zM596 872q88 0 149 64t61 154t-60 153q-62 63 -150 63t-150 -62q-62 -64 -61 -154q-1 -90 61 -154t150 -64zM119 432q0 145 71 247q72 101 183 146q-145 101 -145 259t108 266t260 108
t260 -108t109 -266q0 -158 -146 -259q111 -45 183 -146t71 -247q0 -190 -139 -326t-338 -137q-199 1 -338 137t-139 326z" />
    <glyph glyph-name="nine.onum" horiz-adv-x="1165" 
d="M584 690q127 0 217 91t90 218t-90 217t-217 91q-127 0 -218 -90q-92 -89 -92 -217t92 -219t218 -91zM561 539q-176 0 -307 136t-131 324q0 187 136 323q135 136 323 136t324 -135t136 -324q0 -135 -98 -300q-35 -58 -113 -171l-356 -528h-188l372 549q-37 -10 -98 -10z
" />
    <glyph glyph-name="zero.tnum" horiz-adv-x="1163" 
d="M582 121q116 0 202 81t99 204q6 61 6 308t-6 308q-13 123 -99 204t-202 81t-203 -81q-86 -81 -98 -204q-6 -61 -6 -308t6 -308q12 -123 98 -204t203 -81zM123 714q0 249 6 318q19 182 149 304t304 122t304 -122t148 -304q6 -70 6 -318t-6 -319q-18 -182 -148 -304
t-304 -122t-304 122t-149 304q-6 70 -6 319z" />
    <glyph glyph-name="one.tnum" horiz-adv-x="1163" 
d="M662 0v1214l-414 -237l-68 133l641 369v-1479h-159z" />
    <glyph glyph-name="two.tnum" horiz-adv-x="1163" 
d="M588 1307q-104 0 -178 -75t-74 -179h-158q0 169 121 287t291 118t291 -119t120 -286q0 -51 -6 -88t-36 -101t-87 -133l-479 -584h643v-147h-970l671 821q105 125 105 231t-75 181q-75 74 -179 74z" />
    <glyph glyph-name="three.tnum" horiz-adv-x="1163" 
d="M564 121q134 0 230 93q95 92 95 238t-97 243t-246 97t-257 -40l420 528h-519v147h838l-407 -507h2q172 0 295 -136q122 -136 122 -340t-139 -340t-354 -135q-164 0 -288 76t-173 207l143 53q31 -86 116 -135t219 -49z" />
    <glyph glyph-name="four.tnum" horiz-adv-x="1163" 
d="M856 465v311h160v-776h-160v317h-782l532 1110h172l-454 -962h532z" />
    <glyph glyph-name="five.tnum" horiz-adv-x="1163" 
d="M530 121q141 0 241 104q99 103 99 249t-99 250t-241 105q-219 0 -346 -137l131 735h617v-147h-481l-58 -324q63 25 137 25q204 0 348 -150q144 -149 144 -359t-144 -356t-348 -147q-145 0 -267 80t-181 211l137 66q41 -94 126 -150t185 -55z" />
    <glyph glyph-name="six.tnum" horiz-adv-x="1167" 
d="M285 430q0 -133 87 -221t213 -88t217 91t91 218t-90 217t-219 90t-214 -87t-85 -220zM123 436q0 94 38 172t52 106q13 28 65 112t64 104l293 497h178l-334 -567q43 23 125 23q176 0 308 -130t132 -321t-134 -327t-324 -136t-327 136q-136 136 -136 331z" />
    <glyph glyph-name="seven.tnum" horiz-adv-x="1163" 
d="M98 1280v147h1041l-670 -1427h-176l600 1280h-795z" />
    <glyph glyph-name="eight.tnum" horiz-adv-x="1163" 
d="M279 432q0 -129 89 -220t214 -91t214 91t89 220t-89 220t-214 91t-214 -91t-89 -220zM582 872q82 0 139 64t57 154t-57 153t-139 63t-140 -62q-58 -64 -57 -154q-1 -90 57 -154t140 -64zM119 432q0 145 71 247q72 101 183 146q-145 101 -145 259t104 266t250 108
t249 -108q105 -108 105 -266t-145 -259q111 -45 183 -146t70 -247q0 -190 -135 -326t-327 -137q-192 1 -328 137q-135 136 -135 326z" />
    <glyph glyph-name="nine.tnum" horiz-adv-x="1163" 
d="M883 997q0 133 -87 221t-213 89t-217 -91q-92 -92 -92 -218t90 -217t220 -91q129 0 214 87t85 220zM123 996q0 190 134 326q135 136 325 136t326 -136t136 -331q0 -94 -38 -172q-38 -77 -64 -129t-117 -192l-293 -498h-178l334 567q-43 -23 -125 -22q-176 0 -308 130
q-132 131 -132 321z" />
    <glyph glyph-name="four.alt" horiz-adv-x="1239" 
d="M795 401v631l-469 -631h469zM954 401h174v-147h-174v-254h-159v254h-762l921 1245v-1098z" />
    <glyph glyph-name="four.onum.alt" horiz-adv-x="1161" 
d="M717 147v480l-377 -480h377zM877 147h159v-147h-159v-395h-160v395h-686l846 1083v-936z" />
    <glyph glyph-name="four.tnum.alt" horiz-adv-x="1163" 
d="M719 401v605l-404 -605h404zM879 401h147v-147h-147v-254h-160v254h-686l846 1245v-1098z" />
    <glyph glyph-name="foursuperior.alt" horiz-adv-x="827" 
d="M487 909v252q-69 -94 -184 -252h184zM604 909h90v-110h-90v-127h-117v127h-401l518 682v-572z" />
    <glyph glyph-name="four.inferior.alt" horiz-adv-x="827" 
d="M487 238v251q-69 -93 -184 -251h184zM604 238h90v-111h-90v-127h-117v127h-401l518 682v-571z" />
    <glyph glyph-name="onequarter.alt" horiz-adv-x="1462" 
d="M1102 238v251q-69 -93 -184 -251h184zM262 672v647h-98v108h215v-755h-117zM1219 238h90v-111h-90v-127h-117v127h-402l519 682v-571zM201 0l798 1427h152l-799 -1427h-151z" />
    <glyph glyph-name="threequarters.alt" horiz-adv-x="1662" 
d="M1303 238v251q-70 -93 -185 -251h185zM410 655q-110 1 -188 51q-77 50 -107 136l102 39q43 -113 180 -113q76 0 124 42t48 109t-50 111t-137 43q-87 0 -140 -22l217 268h-273v108h498l-225 -258q27 0 61 -12q72 -27 117 -93t45 -146q0 -115 -81 -189t-191 -74zM1419 238
h90v-111h-90v-127h-116v127h-402l518 682v-571zM401 0l799 1427h152l-799 -1427h-152z" />
    <glyph glyph-name="published" horiz-adv-x="1744" 
d="M776 711h152q63 0 104 42q41 41 41 107t-41 107t-104 41h-152v-297zM637 244v899h293q118 0 200 -82t82 -202t-82 -201t-200 -80h-154v-334h-139zM217 713q0 -272 193 -467q192 -195 462 -195t463 195t193 467t-193 466q-193 193 -463 193t-462 -194t-193 -465zM127 713
q0 307 219 525t526 218q306 0 526 -218t220 -525t-219 -527t-527 -219q-308 -1 -526 219q-219 220 -219 527z" />
    <glyph glyph-name="colon.case" horiz-adv-x="466" 
d="M233 315q-41 0 -71 30t-31 73q0 42 31 72q32 30 72 30t71 -30t31 -72t-31 -73q-31 -30 -72 -30zM233 881q-41 -1 -71 29t-31 73q0 43 31 73q32 30 72 30t71 -30t31 -73t-31 -73t-72 -29z" />
    <glyph glyph-name="semicolon.case" horiz-adv-x="569" 
d="M31 0l172 457h203l-240 -457h-135zM295 881q-41 -1 -72 29t-30 73q0 43 30 73q31 30 72 30t72 -30t31 -73t-31 -73q-31 -29 -72 -29z" />
    <glyph glyph-name="bullet.case" horiz-adv-x="618" 
d="M309 545q-68 0 -118 48t-50 120t50 120t118 48t118 -48t50 -120t-50 -120t-118 -48z" />
    <glyph glyph-name="periodcentered.case" horiz-adv-x="466" 
d="M233 608q-41 0 -71 30t-31 73q0 43 31 73q32 30 72 29q40 0 71 -30q31 -31 31 -73t-31 -72t-72 -30z" />
    <glyph glyph-name="guilsinglleft.case" horiz-adv-x="610" 
d="M338 356l-225 359l225 358h160l-226 -358l226 -359h-160z" />
    <glyph glyph-name="guilsinglright.case" horiz-adv-x="610" 
d="M113 356l225 359l-225 358h159l226 -358l-226 -359h-159z" />
    <glyph glyph-name="guillemotleft.case" horiz-adv-x="929" 
d="M338 356l-225 359l225 358h160l-226 -358l226 -359h-160zM657 356l-225 359l225 358h160l-225 -358l225 -359h-160z" />
    <glyph glyph-name="guillemotright.case" horiz-adv-x="929" 
d="M113 356l225 359l-225 358h159l226 -358l-226 -359h-159zM432 356l225 359l-225 358h160l225 -358l-225 -359h-160z" />
    <glyph glyph-name="slash.case" horiz-adv-x="946" 
d="M84 -166l645 1759h139l-643 -1759h-141z" />
    <glyph glyph-name="backslash.case" horiz-adv-x="946" 
d="M727 -166l-643 1759h139l645 -1759h-141z" />
    <glyph glyph-name="hyphen.case" horiz-adv-x="868" 
d="M127 643v141h614v-141h-614z" />
    <glyph glyph-name="endash.case" horiz-adv-x="1015" 
d="M125 643v141h766v-141h-766z" />
    <glyph glyph-name="emdash.case" horiz-adv-x="1556" 
d="M125 643v141h1307v-141h-1307z" />
    <glyph glyph-name="parenleft.case" horiz-adv-x="684" 
d="M137 700q0 575 463 983l76 -81q-387 -382 -387 -902t387 -901l-76 -82q-463 408 -463 983z" />
    <glyph glyph-name="parenright.case" horiz-adv-x="684" 
d="M395 700q0 520 -387 902l76 81q463 -408 463 -983t-463 -983l-76 82q387 381 387 901z" />
    <glyph glyph-name="bracketleft.case" horiz-adv-x="710" 
d="M213 -197v1823h461v-147h-301v-1528h301v-148h-461z" />
    <glyph glyph-name="bracketright.case" horiz-adv-x="710" 
d="M37 -49h301v1528h-301v147h461v-1823h-461v148z" />
    <glyph glyph-name="braceleft.case" horiz-adv-x="733" 
d="M424 434v-366q0 -58 27 -100t84 -42h75v-121h-92q-106 0 -176 74t-70 189v389q0 163 -125 201q-23 7 -36 10h-13v98q47 2 92 29q82 49 82 182v389q0 114 70 188t176 74h92v-121h-75q-57 0 -84 -42t-27 -99v-367q0 -217 -152 -282q152 -65 152 -283z" />
    <glyph glyph-name="braceright.case" horiz-adv-x="733" 
d="M309 999v367q0 57 -26 99q-27 42 -84 42h-76v121h92q106 0 176 -74t70 -188v-389q0 -159 125 -202q23 -7 37 -9h12v-98q-47 -2 -92 -29q-82 -49 -82 -182v-389q0 -115 -70 -189t-176 -74h-92v121h76q57 0 84 42t26 100v366q0 156 70 225q35 37 82 58q-152 65 -152 282z
" />
    <glyph glyph-name="exclamdown.case" horiz-adv-x="573" 
d="M190 0l33 1110h127l33 -1110h-193zM287 1253q-41 0 -72 30t-31 73q0 42 31 72t72 30t71 -30t31 -72q-1 -42 -31 -73q-30 -30 -71 -30z" />
    <glyph glyph-name="questiondown.case" horiz-adv-x="1191" 
d="M735 1356q-1 -43 -31 -73t-71 -30t-72 30t-31 73q0 42 31 72t72 30t71 -30t31 -72zM1044 389q0 -174 -126 -297t-316 -123q-188 0 -313 122t-125 297t75 264q40 50 67 76q28 26 85 71t88 75t59 90q28 58 27 130v8h160v-15q0 -173 -77 -264q-42 -51 -70 -77t-83 -70
q-56 -44 -85 -72q-29 -27 -58 -84t-28 -127q0 -115 78 -195t202 -81q123 0 203 81t80 191h157z" />
    <glyph glyph-name="at.case" horiz-adv-x="1726" 
d="M1071 704q0 96 -61 160q-60 64 -154 64t-154 -64t-61 -161q0 -97 60 -160q61 -63 153 -63t155 64q62 64 62 160zM119 702q0 200 93 371q93 170 266 278t384 107q301 0 523 -205t223 -505q0 -209 -83 -321t-237 -112t-207 138q-90 -109 -231 -109t-244 102
q-102 102 -102 256t102 256t240 102t215 -89v71h139v-469q0 -90 39 -113q26 -16 56 -16q122 0 156 134q17 68 17 170q0 242 -178 412t-428 169q-250 0 -427 -181t-177 -435t177 -434t427 -181q147 0 283 80l65 -123q-160 -86 -349 -86t-358 93q-169 92 -277 266t-107 374z
" />
    <glyph glyph-name="Agrave.alt1" horiz-adv-x="1474" 
d="M506 500h463l-232 489zM82 0l586 1194h137l588 -1194h-179l-174 352h-608l-172 -352h-178zM668 1229l-158 198h223l70 -198h-135z" />
    <glyph glyph-name="Aacute.alt1" horiz-adv-x="1474" 
d="M506 500h463l-232 489zM82 0l586 1194h137l588 -1194h-179l-174 352h-608l-172 -352h-178zM672 1229l69 198h224l-158 -198h-135z" />
    <glyph glyph-name="Acircumflex.alt1" horiz-adv-x="1474" 
d="M506 500h463l-232 489zM82 0l588 1194h137l586 -1194h-179l-172 352h-608l-174 -352h-178zM471 1229l264 229l264 -229h-174l-90 108l-90 -108h-174z" />
    <glyph glyph-name="Atilde.alt1" horiz-adv-x="1474" 
d="M506 500h463l-232 489zM82 0l586 1194h137l588 -1194h-179l-174 352h-608l-172 -352h-178zM602 1442q66 0 140 -40q75 -40 110 -40q74 0 94 84l101 -8q-23 -201 -189 -201q-57 0 -132 40t-110 40q-72 0 -88 -72l-100 8q10 81 59 135t115 54z" />
    <glyph glyph-name="Adieresis.alt1" horiz-adv-x="1517" 
d="M498 500h516l-258 606zM461 1288q-41 0 -72 30t-31 73t31 73t72 29q41 0 71 -30q30 -31 31 -73q-1 -42 -31 -72t-71 -30zM1061 1288q-41 0 -72 30t-31 73t31 73t72 29q41 0 72 -30q31 -31 31 -73t-32 -72q-30 -30 -71 -30zM113 0l645 1479l647 -1479h-174l-154 352h-643
l-153 -352h-168z" />
    <glyph glyph-name="Amacron.alt1" horiz-adv-x="1474" 
d="M494 500h487l-244 538zM82 0l586 1251h139l586 -1251h-179l-163 352h-627l-166 -352h-176zM436 1300v127h602v-127h-602z" />
    <glyph glyph-name="Abreve.alt1" horiz-adv-x="1474" 
d="M506 500h463l-232 489zM82 0l586 1194h137l588 -1194h-179l-174 352h-608l-172 -352h-178zM737 1235q-100 0 -172 52t-86 140h131q31 -67 127 -67t127 67h131q-14 -88 -86 -140t-172 -52z" />
    <glyph glyph-name="Aring.alt1" horiz-adv-x="1472" 
d="M492 500h489l-244 540zM737 1159q39 0 67 29q28 30 28 68t-28 66t-67 28t-67 -28t-29 -67q1 -39 29 -67t67 -29zM537 1252q0 86 59 144t141 58q83 0 141 -58t58 -144t-64 -144l519 -1108h-177l-163 352h-627l-166 -352h-176l518 1108q-63 59 -63 144z" />
    <glyph glyph-name="Aringacute.alt1" horiz-adv-x="1398" 
d="M508 500h383l-191 389zM700 1057q31 1 54 23t22 53q0 31 -22 53t-54 20q-30 0 -52 -22t-22 -52t22 -52q21 -22 52 -23zM881 1128q0 -72 -60 -129l496 -999h-178l-174 352h-531l-174 -352h-178l496 1001q-56 55 -56 131t52 126q52 52 126 53h13l41 116h223l-141 -178
q45 -49 45 -121z" />
    <glyph glyph-name="Aogonek.alt1" horiz-adv-x="1382" 
d="M467 500h516l-258 606zM1059 144q1 -54 73 -54t128 31l-27 -121q-47 -29 -120 -29t-128 40t-55 108q0 102 139 180l-22 53h-644l-153 -352h-168l645 1479l510 -1164q-63 -18 -121 -67q-58 -50 -57 -104z" />
    <glyph glyph-name="AEacute.alt1" horiz-adv-x="2054" 
d="M1110 500v446l-401 -446h401zM1915 1194v-147h-645v-342h606v-148h-606v-410h659v-147h-819v352h-526l-326 -352h-201l1094 1194h764zM1159 1229l70 198h223l-158 -198h-135z" />
    <glyph glyph-name="Cacute.alt1" horiz-adv-x="1366" 
d="M137 580q-1 258 187 433t454 175q121 0 251 -58t226 -176l-108 -96q-147 182 -361 182t-351 -133q-138 -133 -138 -327t138 -328q138 -133 355 -133t361 196l111 -96q-78 -100 -208 -174t-276 -74q-266 -1 -454 175t-187 434zM700 1229l70 198h223l-157 -198h-136z" />
    <glyph glyph-name="Ccircumflex.alt1" horiz-adv-x="1366" 
d="M137 580q-1 258 187 433t454 175q121 0 251 -58t226 -176l-108 -96q-147 182 -361 182t-351 -133q-138 -133 -138 -327t138 -328q138 -133 355 -133t361 196l111 -96q-78 -100 -208 -174t-276 -74q-266 -1 -454 175t-187 434zM500 1229l264 229l264 -229h-174l-90 108
l-90 -108h-174z" />
    <glyph glyph-name="Ccaron.alt1" horiz-adv-x="1366" 
d="M137 580q-1 258 187 433t454 175q121 0 251 -58t226 -176l-108 -96q-147 182 -361 182t-351 -133q-138 -133 -138 -327t138 -328q138 -133 355 -133t361 196l111 -96q-78 -100 -208 -174t-276 -74q-266 -1 -454 175t-187 434zM764 1217l-264 210h174l90 -90l90 90h174z
" />
    <glyph glyph-name="Cdotaccent.alt1" horiz-adv-x="1366" 
d="M137 580q-1 258 187 433t454 175q121 0 251 -58t226 -176l-108 -96q-147 182 -361 182t-351 -133q-138 -133 -138 -327t138 -328q138 -133 355 -133t361 196l111 -96q-78 -100 -208 -174t-276 -74q-266 -1 -454 175t-187 434zM766 1288q-41 0 -72 30t-30 73q0 43 30 73
t72 29q41 0 72 -30q30 -31 30 -73t-30 -72t-72 -30z" />
    <glyph glyph-name="Ccedilla.alt1" horiz-adv-x="1366" 
d="M137 854q-1 250 187 425t454 175q121 0 251 -57t226 -176l-108 -97q-147 182 -361 182t-351 -132q-138 -133 -138 -328t138 -328t355 -133t361 197l111 -97q-72 -94 -192 -166t-255 -81h-2l-20 -48q57 0 96 -30t39 -87q0 -58 -45 -93t-131 -35t-146 47l39 80
q57 -35 115 -35t57 46q0 46 -149 46l47 111q-246 24 -412 194t-166 420z" />
    <glyph glyph-name="Dcaron.alt1" horiz-adv-x="1486" 
d="M389 147h289q248 0 377 122t129 327t-130 328t-378 123h-287v-900zM229 0v1194h459q305 0 480 -165t175 -433t-174 -432t-479 -164h-461zM748 1217l-265 210h174l91 -90l90 90h174z" />
    <glyph glyph-name="Egrave.alt1" horiz-adv-x="1122" 
d="M229 0v1194h723v-147h-563v-342h524v-148h-524v-410h578v-147h-738zM565 1229l-157 198h223l69 -198h-135z" />
    <glyph glyph-name="Eacute.alt1" horiz-adv-x="1122" 
d="M229 0v1194h723v-147h-563v-342h524v-148h-524v-410h578v-147h-738zM508 1229l70 198h223l-158 -198h-135z" />
    <glyph glyph-name="Ecircumflex.alt1" horiz-adv-x="1122" 
d="M330 1229l264 229l264 -229h-174l-90 108l-90 -108h-174zM229 0v1194h723v-147h-563v-342h524v-148h-524v-410h578v-147h-738z" />
    <glyph glyph-name="Ecaron.alt1" horiz-adv-x="1122" 
d="M592 1217l-264 210h174l90 -90l90 90h174zM229 0v1194h723v-147h-563v-342h524v-148h-524v-410h578v-147h-738z" />
    <glyph glyph-name="Edieresis.alt1" horiz-adv-x="1122" 
d="M229 0v1194h723v-147h-563v-342h524v-148h-524v-410h578v-147h-738zM379 1288q-41 0 -72 30t-31 73t31 73t72 29q41 0 72 -30q31 -31 31 -73t-32 -72q-30 -30 -71 -30zM801 1288q-41 0 -72 30t-31 73t31 73t72 29q41 0 71 -30q30 -31 31 -73q-1 -42 -31 -72t-71 -30z" />
    <glyph glyph-name="Emacron.alt1" horiz-adv-x="1122" 
d="M229 0v1194h723v-147h-563v-342h524v-148h-524v-410h578v-147h-738zM285 1300v127h602v-127h-602z" />
    <glyph glyph-name="Ebreve.alt1" horiz-adv-x="1122" 
d="M229 0v1194h723v-147h-563v-342h524v-148h-524v-410h578v-147h-738zM592 1235q-100 0 -172 52t-86 140h131q31 -67 127 -67t127 67h131q-14 -88 -86 -140t-172 -52z" />
    <glyph glyph-name="Edotaccent.alt1" horiz-adv-x="1122" 
d="M229 0v1194h723v-147h-563v-342h524v-148h-524v-410h578v-147h-738zM600 1288q-41 0 -72 30t-30 73q0 43 30 73t72 29q41 0 72 -30q30 -31 30 -73t-30 -72t-72 -30z" />
    <glyph glyph-name="Eogonek.alt1" horiz-adv-x="1122" 
d="M229 233v1194h723v-147h-563v-342h524v-147h-524v-410h578v-148q-45 -14 -86 -50q-41 -35 -41 -73t56 -38t99 26l-26 -102q-39 -25 -105 -25q-143 0 -143 109q0 47 48 94t97 59h-637z" />
    <glyph glyph-name="Gcircumflex.alt1" horiz-adv-x="1536" 
d="M492 1229l264 229l264 -229h-174l-90 108l-90 -108h-174zM137 580q-1 260 187 434t454 174q148 0 278 -58t218 -159l-115 -103q-141 172 -381 172q-207 0 -345 -131t-138 -329t138 -330q139 -131 331 -131t319 106t156 273h-412v147h568q4 -37 4 -65q0 -260 -179 -434
q-180 -174 -444 -175q-264 1 -452 175t-187 434z" />
    <glyph glyph-name="Gbreve.alt1" horiz-adv-x="1536" 
d="M137 580q-1 260 187 434t454 174q148 0 278 -58t218 -159l-115 -103q-141 172 -381 172q-207 0 -345 -131t-138 -329t138 -330q139 -131 331 -131t319 106t156 273h-412v147h568q4 -37 4 -65q0 -260 -179 -434q-180 -174 -444 -175q-264 1 -452 175t-187 434zM768 1235
q-100 0 -172 52t-86 140h131q31 -67 127 -67t127 67h131q-14 -88 -86 -140t-172 -52z" />
    <glyph glyph-name="Gdotaccent.alt1" horiz-adv-x="1536" 
d="M137 580q-1 260 187 434t454 174q148 0 278 -58t218 -159l-115 -103q-141 172 -381 172q-207 0 -345 -131t-138 -329t138 -330q139 -131 331 -131t319 106t156 273h-412v147h568q4 -37 4 -65q0 -260 -179 -434q-180 -174 -444 -175q-264 1 -452 175t-187 434zM768 1288
q-41 0 -72 30t-30 73q0 43 30 73t72 29q41 0 72 -30q30 -31 30 -73t-30 -72t-72 -30z" />
    <glyph glyph-name="Gcommaaccent.alt1" horiz-adv-x="1536" 
d="M137 846q-1 260 187 434t454 174q148 0 278 -57t218 -160l-115 -102q-141 172 -381 172q-207 0 -345 -131t-138 -330t138 -330q139 -131 331 -131q192 1 319 107t156 272h-412v147h568q4 -37 4 -65q0 -260 -179 -434q-180 -174 -444 -174t-452 174t-187 434zM573 0
l70 199h223l-157 -199h-136z" />
    <glyph glyph-name="Hcircumflex.alt1" horiz-adv-x="1570" 
d="M229 0v1427h160v-596h793v596h159v-1427h-159v684h-793v-684h-160zM522 1229l264 229l265 -229h-174l-91 108l-90 -108h-174z" />
    <glyph glyph-name="Igrave.alt1" horiz-adv-x="634" 
d="M238 0v1194h159v-1194h-159zM256 1229l-158 198h224l69 -198h-135z" />
    <glyph glyph-name="Iacute.alt1" horiz-adv-x="634" 
d="M238 0v1194h159v-1194h-159zM242 1229l69 198h224l-158 -198h-135z" />
    <glyph glyph-name="Icircumflex.alt1" horiz-adv-x="634" 
d="M238 0v1194h159v-1194h-159zM53 1229l264 229l265 -229h-174l-91 108l-90 -108h-174z" />
    <glyph glyph-name="Itilde.alt1" horiz-adv-x="634" 
d="M238 0v1194h159v-1194h-159zM186 1442q66 0 141 -40t109 -40q74 0 94 84l101 -8q-23 -201 -189 -201q-57 0 -132 40t-109 40q-72 0 -88 -72l-101 8q10 81 60 135q48 54 114 54z" />
    <glyph glyph-name="Idieresis.alt1" horiz-adv-x="634" 
d="M238 0v1194h159v-1194h-159zM150 1288q-41 0 -72 30t-31 73t31 73t72 29q42 0 72 -30q30 -31 30 -73t-30 -72t-72 -30zM485 1288q-41 0 -71 30t-31 73q0 43 31 73q32 30 72 29q40 0 71 -30q31 -31 31 -73t-31 -72t-72 -30z" />
    <glyph glyph-name="Imacron.alt1" horiz-adv-x="634" 
d="M238 0v1194h159v-1194h-159zM37 1300v127h561v-127h-561z" />
    <glyph glyph-name="Ibreve.alt1" horiz-adv-x="634" 
d="M238 0v1194h159v-1194h-159zM317 1235q-100 0 -172 52t-86 140h131q31 -67 127 -67t127 67h131q-14 -88 -86 -140t-172 -52z" />
    <glyph glyph-name="Idotaccent.alt1" horiz-adv-x="634" 
d="M238 0v1194h159v-1194h-159zM317 1288q-41 0 -71 30t-31 73q0 43 31 73q32 30 72 29q40 0 71 -30q31 -31 31 -73t-31 -72t-72 -30z" />
    <glyph glyph-name="Iogonek.alt1" horiz-adv-x="634" 
d="M152 80q0 66 86 125v1222h159v-1194q-45 -14 -86 -50q-41 -35 -41 -73t56 -38t100 26l-27 -102q-39 -25 -104 -25q-143 0 -143 109z" />
    <glyph glyph-name="Jcircumflex.alt1" horiz-adv-x="716" 
d="M338 387v807h160v-801q0 -248 -78 -335q-80 -87 -242 -87q-57 1 -108 19v155q38 -25 106 -25t105 40q37 39 47 92t10 135zM152 1229l264 229l264 -229h-174l-90 108l-90 -108h-174z" />
    <glyph glyph-name="Kcommaaccent.alt1" horiz-adv-x="1388" 
d="M541 0l63 199h211l-139 -199h-135zM229 0v1427h160v-757l686 757h197l-570 -622l586 -805h-192l-500 688l-207 -225v-463h-160z" />
    <glyph glyph-name="Lacute.alt1" horiz-adv-x="1097" 
d="M229 0v1194h160v-1047h588v-147h-748zM236 1229l69 198h223l-157 -198h-135z" />
    <glyph glyph-name="Lcommaaccent.alt1" horiz-adv-x="1097" 
d="M457 0l63 199h211l-139 -199h-135zM229 233v1194h160v-1046h588v-148h-748z" />
    <glyph glyph-name="Nacute.alt1" horiz-adv-x="1619" 
d="M698 1229l70 198h223l-157 -198h-136zM229 0v1479l1002 -1131v1079h160v-1478l-1002 1130v-1079h-160z" />
    <glyph glyph-name="Ncaron.alt1" horiz-adv-x="1619" 
d="M801 1217l-264 210h174l90 -90l90 90h174zM229 0v1479l1002 -1131v1079h160v-1478l-1002 1130v-1079h-160z" />
    <glyph glyph-name="Ntilde.alt1" horiz-adv-x="1619" 
d="M686 1442q64 0 134 -40q71 -40 104 -40q68 0 88 84l100 -8q-23 -201 -182 -201q-55 0 -126 40t-104 40q-66 0 -82 -72l-100 8q10 81 57 135t111 54zM229 0v1479l1002 -1131v1079h160v-1478l-1002 1130v-1079h-160z" />
    <glyph glyph-name="Ncommaaccent.alt1" horiz-adv-x="1619" 
d="M664 0l63 199h211l-139 -199h-135zM229 0v1479l1002 -1131v1079h160v-1478l-1002 1130v-1079h-160z" />
    <glyph glyph-name="Ograve.alt1" horiz-adv-x="1556" 
d="M295 580q0 -199 138 -330t345 -131t344 131t138 330q0 200 -138 330t-344 130q-207 0 -345 -130t-138 -330zM137 580q-1 260 187 434t454 174t454 -174t187 -434q0 -260 -187 -434q-188 -174 -454 -175q-266 1 -454 175t-187 434zM741 1229l-157 198h223l70 -198h-136z
" />
    <glyph glyph-name="Oacute.alt1" horiz-adv-x="1556" 
d="M295 580q0 -199 138 -330t345 -131t344 131t138 330q0 200 -138 330t-344 130q-207 0 -345 -130t-138 -330zM137 580q-1 260 187 434t454 174t454 -174t187 -434q0 -260 -187 -434q-188 -174 -454 -175q-266 1 -454 175t-187 434zM702 1229l70 198h223l-157 -198h-136z
" />
    <glyph glyph-name="Ocircumflex.alt1" horiz-adv-x="1556" 
d="M295 580q0 -199 138 -330t345 -131t344 131t138 330q0 200 -138 330t-344 130q-207 0 -345 -130t-138 -330zM137 580q-1 260 187 434t454 174t454 -174t187 -434q0 -260 -187 -434q-188 -174 -454 -175q-266 1 -454 175t-187 434zM520 1229l264 229l265 -229h-175
l-90 108l-90 -108h-174z" />
    <glyph glyph-name="Otilde.alt1" horiz-adv-x="1556" 
d="M295 580q0 -199 138 -330t345 -131t344 131t138 330q0 200 -138 330t-344 130q-207 0 -345 -130t-138 -330zM137 580q-1 260 187 434t454 174t454 -174t187 -434q0 -260 -187 -434q-188 -174 -454 -175q-266 1 -454 175t-187 434zM630 1442q66 0 141 -40t110 -40
q74 0 94 84l100 -8q-23 -201 -188 -201q-57 0 -132 40t-110 40q-72 0 -88 -72l-100 8q10 81 59 135q48 54 114 54z" />
    <glyph glyph-name="Odieresis.alt1" horiz-adv-x="1720" 
d="M295 692q0 -246 162 -410q161 -164 403 -163q242 0 403 164q161 163 161 409t-161 410t-403 164t-404 -164t-161 -410zM137 692q0 309 210 515t513 206t513 -206t210 -515t-210 -515t-513 -206t-513 206t-210 515zM276 1288q-42 0 -72 30t-30 73t31 73t71 29q40 0 72 -30
q31 -31 31 -73t-31 -72t-72 -30zM1341 1391q0 43 31 73t72 29q41 0 72 -30q30 -31 30 -73t-30 -72t-72 -30q-41 0 -72 30t-31 73z" />
    <glyph glyph-name="Omacron.alt1" horiz-adv-x="1556" 
d="M295 580q0 -199 138 -330t345 -131t344 131t138 330q0 200 -138 330t-344 130q-207 0 -345 -130t-138 -330zM137 580q-1 260 187 434t454 174t454 -174t187 -434q0 -260 -187 -434q-188 -174 -454 -175q-266 1 -454 175t-187 434zM481 1300v127h602v-127h-602z" />
    <glyph glyph-name="Obreve.alt1" horiz-adv-x="1556" 
d="M295 580q0 -199 138 -330t345 -131t344 131t138 330q0 200 -138 330t-344 130q-207 0 -345 -130t-138 -330zM137 580q-1 260 187 434t454 174t454 -174t187 -434q0 -260 -187 -434q-188 -174 -454 -175q-266 1 -454 175t-187 434zM776 1235q-100 0 -172 52t-86 140h131
q31 -67 127 -67t127 67h131q-14 -88 -86 -140t-172 -52z" />
    <glyph glyph-name="Ohungarumlaut.alt1" horiz-adv-x="1556" 
d="M295 580q0 -199 138 -330t345 -131t344 131t138 330q0 200 -138 330t-344 130q-207 0 -345 -130t-138 -330zM137 580q-1 260 187 434t454 174t454 -174t187 -434q0 -260 -187 -434q-188 -174 -454 -175q-266 1 -454 175t-187 434zM553 1229l109 198h182l-178 -198h-113z
M834 1229l108 198h182l-178 -198h-112z" />
    <glyph glyph-name="Oslashacute.alt1" horiz-adv-x="1556" 
d="M778 121q207 0 344 131q138 131 138 333t-148 333l-559 -748q98 -49 225 -49zM778 1042q-207 0 -345 -131t-138 -329t137 -330l557 745q-96 45 -211 45zM137 574q-1 268 187 442t454 174q164 0 303 -70l105 140l117 -89l-99 -131q215 -182 215 -450t-187 -442t-454 -175
q-172 0 -317 76l-101 -135l-116 86l98 131q-205 175 -205 443zM727 1229l70 198h223l-158 -198h-135z" />
    <glyph glyph-name="Racute.alt1" horiz-adv-x="1202" 
d="M469 1229l70 198h223l-158 -198h-135zM389 662h295q84 0 141 55t58 137t-57 137t-142 56h-295v-385zM229 0v1194h461q148 0 250 -97t102 -243t-102 -242q-102 -98 -250 -98h-39l404 -514h-193l-397 514h-76v-514h-160z" />
    <glyph glyph-name="Rcaron.alt1" horiz-adv-x="1202" 
d="M639 1217l-264 210h174l90 -90l90 90h174zM389 662h295q84 0 141 55t58 137t-57 137t-142 56h-295v-385zM229 0v1194h461q148 0 250 -97t102 -243t-102 -242q-102 -98 -250 -98h-39l404 -514h-193l-397 514h-76v-514h-160z" />
    <glyph glyph-name="Rcommaaccent.alt1" horiz-adv-x="1202" 
d="M389 754h221q117 0 195 76t78 188q0 114 -78 188t-195 74h-221v-526zM229 0v1427h387q176 0 302 -117q124 -118 124 -292t-118 -289t-295 -115h-21l475 -614h-190l-469 614h-35v-614h-160zM455 0l63 199h211l-139 -199h-135z" />
    <glyph glyph-name="Sacute.alt1" horiz-adv-x="1112" 
d="M545 123q216 0 258 135q8 27 8 51q0 91 -63 141t-178 94t-164 68q-137 68 -179 153q-25 50 -24 116q0 133 100 220t250 87q246 0 342 -207l-135 -70q-59 129 -211 129q-80 0 -132 -41t-52 -111t54 -105q17 -11 26 -18t35 -19q40 -18 84 -34q229 -88 318 -172
q89 -85 89 -231q0 -145 -110 -239t-283 -94q-341 -1 -455 280l137 61q35 -86 113 -140t172 -54zM492 1229l69 198h223l-157 -198h-135z" />
    <glyph glyph-name="Scircumflex.alt1" horiz-adv-x="1118" 
d="M545 123q216 0 258 135q8 27 8 51q0 91 -63 141t-178 94t-164 68q-137 68 -179 153q-25 50 -24 116q0 133 100 220t250 87q246 0 342 -207l-135 -70q-59 129 -211 129q-80 0 -132 -41t-52 -111t54 -105q17 -11 26 -18t35 -19q40 -18 84 -34q229 -88 318 -172
q89 -85 89 -231q0 -145 -110 -239t-283 -94q-341 -1 -455 280l137 61q35 -86 113 -140t172 -54zM268 1229l264 229l265 -229h-174l-91 108l-90 -108h-174z" />
    <glyph glyph-name="Scaron.alt1" horiz-adv-x="1118" 
d="M545 123q216 0 258 135q8 27 8 51q0 91 -63 141t-178 94t-164 68q-137 68 -179 153q-25 50 -24 116q0 133 100 220t250 87q246 0 342 -207l-135 -70q-59 129 -211 129q-80 0 -132 -41t-52 -111t54 -105q17 -11 26 -18t35 -19q40 -18 84 -34q229 -88 318 -172
q89 -85 89 -231q0 -145 -110 -239t-283 -94q-341 -1 -455 280l137 61q35 -86 113 -140t172 -54zM551 1217l-264 210h174l90 -90l90 90h174z" />
    <glyph glyph-name="Scommaaccent.alt1" horiz-adv-x="1118" 
d="M369 0l69 199h224l-158 -199h-135zM545 389q172 0 227 76q39 56 39 110q0 91 -63 141t-178 94t-164 69q-138 71 -179 152q-25 50 -24 116q0 133 100 220t250 87q246 0 342 -207l-135 -69q-59 129 -211 129q-80 0 -132 -41t-52 -115q0 -67 52 -100q19 -11 28 -19t35 -19
t38 -17t46 -18q229 -88 318 -172t89 -230t-110 -240t-283 -94q-342 0 -455 280l137 62q35 -86 113 -140t172 -55z" />
    <glyph glyph-name="Scedilla.alt1" horiz-adv-x="1118" 
d="M545 389q172 0 227 76q39 56 39 110q0 91 -63 141t-178 94t-164 69q-138 71 -179 152q-25 50 -24 116q0 133 100 220t250 87q246 0 342 -207l-135 -69q-59 129 -211 129q-80 0 -132 -41t-52 -115q0 -67 52 -100q19 -11 28 -19t35 -19t38 -17t46 -18q229 -88 318 -172
q89 -85 89 -226q1 -140 -99 -234t-276 -104l-25 -52q57 0 97 -29q39 -30 39 -88t-45 -93t-131 -35t-146 47l39 80q56 -35 114 -35t58 46t-150 46l50 115q-273 30 -373 278l137 62q35 -86 113 -140t172 -55z" />
    <glyph glyph-name="Tcaron.alt1" horiz-adv-x="1060" 
d="M528 1217l-264 210h174l90 -90l90 90h175zM451 0v1047h-349v147h856v-147h-348v-1047h-159z" />
    <glyph glyph-name="Tcommaaccent.alt1" horiz-adv-x="1060" 
d="M350 0l80 199h195l-140 -199h-135zM451 233v1047h-349v147h856v-147h-348v-1047h-159z" />
    <glyph glyph-name="Ugrave.alt1" horiz-adv-x="1507" 
d="M741 1229l-157 198h223l70 -198h-136zM219 500v927h160v-911q0 -193 100 -293q101 -100 275 -100t274 100t100 293v911h160v-927q0 -252 -147 -388t-387 -136t-388 136t-147 388z" />
    <glyph glyph-name="Uacute.alt1" horiz-adv-x="1507" 
d="M629 1229l69 198h224l-158 -198h-135zM219 500v927h160v-911q0 -193 100 -293q101 -100 275 -100t274 100t100 293v911h160v-927q0 -252 -147 -388t-387 -136t-388 136t-147 388z" />
    <glyph glyph-name="Ucircumflex.alt1" horiz-adv-x="1507" 
d="M219 500v927h160v-911q0 -193 100 -293q101 -100 275 -100t274 100t100 293v911h160v-927q0 -252 -147 -388t-387 -136t-388 136t-147 388zM487 1229l265 229l264 -229h-174l-90 108l-90 -108h-175z" />
    <glyph glyph-name="Utilde.alt1" horiz-adv-x="1507" 
d="M219 500v927h160v-911q0 -193 100 -293q101 -100 275 -100t274 100t100 293v911h160v-927q0 -252 -147 -388t-387 -136t-388 136t-147 388zM616 1442q66 0 141 -40t109 -40q74 0 95 84l100 -8q-23 -201 -189 -201q-57 0 -132 40t-109 40q-72 0 -88 -72l-101 8
q10 81 60 135q48 54 114 54z" />
    <glyph glyph-name="Udieresis.alt1" horiz-adv-x="1507" 
d="M219 500v927h160v-911q0 -193 100 -293q101 -100 275 -100t274 100t100 293v911h160v-927q0 -252 -147 -388t-387 -136t-388 136t-147 388zM596 1288q-41 0 -72 30t-30 73q0 43 30 73t72 29q41 0 72 -30q30 -31 30 -73t-30 -72t-72 -30zM911 1288q-41 0 -71 30t-31 73
q0 43 31 73q32 30 72 29q40 0 71 -30q31 -31 31 -73t-31 -72t-72 -30z" />
    <glyph glyph-name="Umacron.alt1" horiz-adv-x="1507" 
d="M471 1300v127h565v-127h-565zM219 500v927h160v-911q0 -193 100 -293q101 -100 275 -100t274 100t100 293v911h160v-927q0 -252 -147 -388t-387 -136t-388 136t-147 388z" />
    <glyph glyph-name="Ubreve.alt1" horiz-adv-x="1507" 
d="M758 1235q-100 0 -172 52t-86 140h131q31 -67 127 -67t127 67h131q-14 -88 -86 -140t-172 -52zM219 500v927h160v-911q0 -193 100 -293q101 -100 275 -100t274 100t100 293v911h160v-927q0 -252 -147 -388t-387 -136t-388 136t-147 388z" />
    <glyph glyph-name="Uring.alt1" horiz-adv-x="1507" 
d="M756 1198q38 0 66 29t28 67t-28 67q-28 28 -66 28t-68 -28q-29 -28 -29 -67q0 -40 29 -68t68 -28zM755 1094q-83 0 -142 59q-58 59 -58 141t59 140q60 58 142 59q82 0 140 -58q58 -57 58 -141t-58 -142t-141 -58zM219 500v927h160v-911q0 -193 100 -293
q101 -100 275 -100t274 100t100 293v911h160v-927q0 -252 -147 -388t-387 -136t-388 136t-147 388z" />
    <glyph glyph-name="Uhungarumlaut.alt1" horiz-adv-x="1507" 
d="M481 1229l109 198h182l-178 -198h-113zM762 1229l108 198h183l-179 -198h-112zM219 500v927h160v-911q0 -193 100 -293q101 -100 275 -100t274 100t100 293v911h160v-927q0 -252 -147 -388t-387 -136t-388 136t-147 388z" />
    <glyph glyph-name="Uogonek.alt1" horiz-adv-x="1509" 
d="M754 108q0 66 116 140q-68 -10 -125 -10q-233 0 -379 136t-147 388v665h160v-649q0 -195 100 -296q99 -101 275 -101t276 102t100 297v647h160v-647q0 -311 -215 -452q-6 -4 -39 -24t-79 -52q-78 -56 -78 -109q0 -61 90 -61q63 0 118 31l-26 -113q-57 -29 -126 -29
t-125 35q-56 36 -56 102z" />
    <glyph glyph-name="Wgrave.alt1" horiz-adv-x="2027" 
d="M985 1229l-158 198h224l69 -198h-135zM616 -55l-524 1482h170l377 -1058l375 792l375 -794l376 1060h170l-526 -1482l-395 854z" />
    <glyph glyph-name="Wacute.alt1" horiz-adv-x="2027" 
d="M913 1229l70 198h223l-157 -198h-136zM616 -55l-524 1482h170l377 -1058l375 792l375 -794l376 1060h170l-526 -1482l-395 854z" />
    <glyph glyph-name="Wcircumflex.alt1" horiz-adv-x="2027" 
d="M616 -55l-524 1482h170l377 -1058l375 792l375 -794l376 1060h170l-526 -1482l-395 854zM750 1229l264 229l264 -229h-174l-90 108l-90 -108h-174z" />
    <glyph glyph-name="Wdieresis.alt1" horiz-adv-x="2027" 
d="M803 1288q-41 0 -72 30t-31 73t31 73t72 29q41 0 71 -30q30 -31 31 -73q-1 -42 -31 -72t-71 -30zM1225 1288q-41 0 -72 30t-31 73t31 73t72 29q41 0 71 -30q30 -31 31 -73q-1 -42 -31 -72t-71 -30zM616 -55l-524 1482h170l377 -1058l375 792l375 -794l376 1060h170
l-526 -1482l-395 854z" />
    <glyph glyph-name="Ygrave.alt1" horiz-adv-x="1372" 
d="M668 1229l-158 198h223l70 -198h-135zM608 0v586l-510 841h176l416 -684l412 684h172l-506 -841v-586h-160z" />
    <glyph glyph-name="Yacute.alt1" horiz-adv-x="1372" 
d="M573 1229l70 198h223l-157 -198h-136zM608 0v586l-510 841h176l416 -684l412 684h172l-506 -841v-586h-160z" />
    <glyph glyph-name="Ycircumflex.alt1" horiz-adv-x="1372" 
d="M608 0v586l-510 841h176l416 -684l412 684h172l-506 -841v-586h-160zM426 1229l264 229l264 -229h-174l-90 108l-90 -108h-174z" />
    <glyph glyph-name="Ydieresis.alt1" horiz-adv-x="1372" 
d="M528 1288q-42 0 -72 30t-30 73t31 73t71 29q40 0 72 -30q31 -31 31 -73t-31 -72t-72 -30zM850 1288q-41 0 -72 30t-30 73q0 43 30 73t72 29q41 0 72 -30q30 -31 30 -73t-30 -72t-72 -30zM608 0v586l-510 841h176l416 -684l412 684h172l-506 -841v-586h-160z" />
    <glyph glyph-name="Zacute.alt1" horiz-adv-x="1390" 
d="M266 1047v147h1024l-870 -1047h842v-147h-1156l873 1047h-713zM666 1229l69 198h223l-157 -198h-135z" />
    <glyph glyph-name="Zcaron.alt1" horiz-adv-x="1390" 
d="M266 1047v147h1024l-870 -1047h842v-147h-1156l873 1047h-713zM762 1217l-264 210h174l90 -90l90 90h174z" />
    <glyph glyph-name="Zdotaccent.alt1" horiz-adv-x="1390" 
d="M266 1047v147h1024l-870 -1047h842v-147h-1156l873 1047h-713zM762 1288q-41 0 -72 30t-31 73t31 73t72 29q41 0 72 -30q30 -31 30 -73t-30 -72t-72 -30z" />
    <glyph glyph-name="Eng.alt1" horiz-adv-x="1619" 
d="M229 0v1479l985 -1223q16 63 17 188v983h160v-978q0 -283 -103 -379q-43 -41 -122 -70t-171 -29t-192 23v156q53 -29 153 -29t146 14l-713 897v-1032h-160z" />
    <glyph glyph-name="Cacute.alt2" horiz-adv-x="1363" 
d="M137 580q-1 258 187 433t445 175t427 -154v-188q-178 195 -418 194q-205 0 -343 -133t-138 -327t138 -328q138 -133 343 -133q238 0 418 192v-186q-170 -154 -427 -154q-257 -1 -445 175t-187 434zM700 1229l70 198h223l-157 -198h-136z" />
    <glyph glyph-name="Ccircumflex.alt2" horiz-adv-x="1363" 
d="M137 580q-1 258 187 433t445 175t427 -154v-188q-178 195 -418 194q-205 0 -343 -133t-138 -327t138 -328q138 -133 343 -133q238 0 418 192v-186q-170 -154 -427 -154q-257 -1 -445 175t-187 434zM500 1229l264 229l264 -229h-174l-90 108l-90 -108h-174z" />
    <glyph glyph-name="Ccaron.alt2" horiz-adv-x="1363" 
d="M137 580q-1 258 187 433t445 175t427 -154v-188q-178 195 -418 194q-205 0 -343 -133t-138 -327t138 -328q138 -133 343 -133q238 0 418 192v-186q-170 -154 -427 -154q-257 -1 -445 175t-187 434zM764 1217l-264 210h174l90 -90l90 90h174z" />
    <glyph glyph-name="Cdotaccent.alt2" horiz-adv-x="1363" 
d="M137 580q-1 258 187 433t445 175t427 -154v-188q-178 195 -418 194q-205 0 -343 -133t-138 -327t138 -328q138 -133 343 -133q238 0 418 192v-186q-170 -154 -427 -154q-257 -1 -445 175t-187 434zM766 1288q-41 0 -72 30t-30 73q0 43 30 73t72 29q41 0 72 -30
q30 -31 30 -73t-30 -72t-72 -30z" />
    <glyph glyph-name="Ccedilla.alt2" horiz-adv-x="1363" 
d="M137 854q-1 250 187 425t445 175t427 -154v-188q-178 195 -418 195q-205 0 -343 -133t-138 -328t138 -328t343 -133q238 0 418 193v-187q-156 -141 -381 -153h-2l-20 -48q57 0 96 -30t39 -87q0 -58 -45 -93t-131 -35t-146 47l39 80q57 -35 115 -35t57 46q0 46 -149 46
l47 111q-244 24 -411 194t-167 420z" />
    <glyph glyph-name="Gcircumflex.alt2" horiz-adv-x="1536" 
d="M492 1229l264 229l264 -229h-174l-90 108l-90 -108h-174zM137 580q-1 260 187 434t440 174t412 -139v-181q-176 172 -390 172t-353 -131q-138 -131 -138 -329t138 -330q139 -131 331 -131t319 106t156 273h-412v147h568q4 -37 4 -65q0 -260 -179 -434
q-180 -174 -444 -175q-264 1 -452 175t-187 434z" />
    <glyph glyph-name="Gbreve.alt2" horiz-adv-x="1536" 
d="M137 580q-1 260 187 434t440 174t412 -139v-181q-176 172 -390 172t-353 -131q-138 -131 -138 -329t138 -330q139 -131 331 -131t319 106t156 273h-412v147h568q4 -37 4 -65q0 -260 -179 -434q-180 -174 -444 -175q-264 1 -452 175t-187 434zM768 1235q-100 0 -172 52
t-86 140h131q31 -67 127 -67t127 67h131q-14 -88 -86 -140t-172 -52z" />
    <glyph glyph-name="Gdotaccent.alt2" horiz-adv-x="1536" 
d="M137 580q-1 260 187 434t440 174t412 -139v-181q-176 172 -390 172t-353 -131q-138 -131 -138 -329t138 -330q139 -131 331 -131t319 106t156 273h-412v147h568q4 -37 4 -65q0 -260 -179 -434q-180 -174 -444 -175q-264 1 -452 175t-187 434zM768 1288q-41 0 -72 30
t-30 73q0 43 30 73t72 29q41 0 72 -30q30 -31 30 -73t-30 -72t-72 -30z" />
    <glyph glyph-name="Gcommaaccent.alt2" horiz-adv-x="1536" 
d="M137 846q-1 260 187 434t440 174t412 -139v-180q-176 172 -390 172t-353 -131q-138 -131 -138 -330t138 -330q139 -131 331 -131q192 1 319 107t156 272h-412v147h568q4 -37 4 -65q0 -260 -179 -434q-180 -174 -444 -174t-452 174t-187 434zM573 0l70 199h223l-157 -199
h-136z" />
    <glyph glyph-name="Kcommaaccent.alt2" horiz-adv-x="1308" 
d="M475 0l64 199h211l-140 -199h-135zM229 0v1427h160v-659l631 659h201l-666 -690l686 -737h-207l-645 692v-692h-160z" />
    <glyph glyph-name="Sacute.alt2" horiz-adv-x="1116" 
d="M540 123q122 0 195 54q74 54 74 130t-50 118q-50 41 -167 99t-156 77t-97 56t-82 65q-62 72 -62 163q0 141 103 222q102 81 274 81t278 -90v-168q-76 59 -139 85q-63 25 -155 25t-147 -42t-55 -105t54 -101t216 -110q161 -72 253 -156t92 -220t-118 -233t-310 -98
q-123 0 -231 38t-175 108v196q57 -80 170 -137t235 -57zM485 1229l70 198h223l-157 -198h-136z" />
    <glyph glyph-name="Scircumflex.alt2" horiz-adv-x="1116" 
d="M540 123q122 0 195 54q74 54 74 130t-50 118q-50 41 -167 99t-156 77t-97 56t-82 65q-62 72 -62 163q0 141 103 222q102 81 274 81t278 -90v-168q-76 59 -139 85q-63 25 -155 25t-147 -42t-55 -105t54 -101t216 -110q161 -72 253 -156t92 -220t-118 -233t-310 -98
q-123 0 -231 38t-175 108v196q57 -80 170 -137t235 -57zM289 1229l264 229l264 -229h-174l-90 108l-90 -108h-174z" />
    <glyph glyph-name="Scaron.alt2" horiz-adv-x="1116" 
d="M540 123q122 0 195 54q74 54 74 130t-50 118q-50 41 -167 99t-156 77t-97 56t-82 65q-62 72 -62 163q0 141 103 222q102 81 274 81t278 -90v-168q-76 59 -139 85q-63 25 -155 25t-147 -42t-55 -105t54 -101t216 -110q161 -72 253 -156t92 -220t-118 -233t-310 -98
q-123 0 -231 38t-175 108v196q57 -80 170 -137t235 -57zM551 1217l-264 210h174l90 -90l90 90h174z" />
    <glyph glyph-name="Scommaaccent.alt2" horiz-adv-x="1116" 
d="M540 389q122 0 195 54q74 54 74 130t-50 118q-50 41 -167 99t-156 77t-97 57t-82 64q-62 71 -62 163q0 141 103 222q102 81 274 81t278 -90v-168q-76 59 -139 85t-155 26t-147 -42q-55 -41 -55 -105t54 -102t216 -110q161 -72 253 -155q92 -85 92 -221t-118 -233
t-310 -97q-123 0 -231 38t-175 107v197q57 -80 170 -138t235 -57zM358 0l70 199h223l-157 -199h-136z" />
    <glyph glyph-name="Scedilla.alt2" horiz-adv-x="1116" 
d="M540 389q122 0 195 54q74 54 74 130t-50 118q-50 41 -167 99t-156 77t-97 57t-82 64q-62 71 -62 163q0 141 103 222q102 81 274 81t278 -90v-168q-76 59 -139 85t-155 26t-147 -42q-55 -41 -55 -105t54 -102t216 -110q161 -72 253 -155t92 -215q-1 -132 -103 -226
t-270 -108l-25 -54q57 0 97 -29q39 -30 39 -88t-45 -93t-131 -35t-146 47l39 80q56 -35 114 -35t58 46t-150 46l48 113q-240 16 -359 145v197q57 -80 170 -138t235 -57z" />
    <glyph glyph-name="Wgrave.alt2" horiz-adv-x="1908" 
d="M651 -51l-555 1245h172l389 -872l203 419l-219 453h172l139 -297l142 297h172l-219 -453l204 -419l389 872h172l-555 -1245l-303 641zM911 1229l-157 198h223l70 -198h-136z" />
    <glyph glyph-name="Wacute.alt2" horiz-adv-x="1908" 
d="M651 -51l-555 1245h172l389 -872l203 419l-219 453h172l139 -297l142 297h172l-219 -453l204 -419l389 872h172l-555 -1245l-303 641zM868 1229l70 198h223l-157 -198h-136z" />
    <glyph glyph-name="Wcircumflex.alt2" horiz-adv-x="1908" 
d="M651 -51l-555 1245h172l389 -872l203 419l-219 453h172l139 -297l142 297h172l-219 -453l204 -419l389 872h172l-555 -1245l-303 641zM664 1229l288 229l289 -229h-174l-115 108l-114 -108h-174z" />
    <glyph glyph-name="Wdieresis.alt2" horiz-adv-x="1908" 
d="M651 -51l-555 1245h172l389 -872l203 419l-219 453h172l139 -297l142 297h172l-219 -453l204 -419l389 872h172l-555 -1245l-303 641zM743 1288q-41 0 -71 30t-31 73q0 43 31 73q32 30 72 29q40 0 71 -30q31 -31 31 -73t-31 -72t-72 -30zM1165 1288q-41 0 -71 30t-31 73
q0 43 31 73q32 30 72 29q40 0 71 -30q31 -31 31 -73t-31 -72t-72 -30z" />
    <glyph glyph-name="A.smcp" horiz-adv-x="1335" 
d="M461 406h405l-202 438zM106 0l560 1190l563 -1190h-172l-127 262h-531l-127 -262h-166z" />
    <glyph glyph-name="B.smcp" horiz-adv-x="1067" 
d="M360 143h213q95 -1 155 57t60 142t-60 138t-155 55h-213v-392zM360 676h170q76 0 125 46t49 115t-48 115q-50 46 -124 45h-172v-321zM203 0v1143h348q133 0 222 -85t89 -214q0 -160 -137 -223q109 -25 165 -98t56 -177q0 -150 -102 -248t-260 -98h-381z" />
    <glyph glyph-name="C.smcp" horiz-adv-x="1249" 
d="M121 569q0 256 173 426t423 170q131 0 248 -52t190 -142l-106 -94q-127 143 -325 143t-322 -128q-126 -128 -126 -323t125 -323t325 -127q200 0 327 151l108 -96q-75 -92 -193 -145t-251 -54q-250 0 -423 169t-173 425z" />
    <glyph glyph-name="D.smcp" horiz-adv-x="1359" 
d="M365 145h229q240 0 360 116q120 117 119 311q0 194 -120 309t-361 114h-227v-850zM203 -2v1147h401q293 0 461 -159t168 -416q0 -256 -167 -414t-460 -158h-403z" />
    <glyph glyph-name="E.smcp" horiz-adv-x="956" 
d="M203 0v1143h602v-146h-445v-323h412v-144h-412v-387h457v-143h-614z" />
    <glyph glyph-name="F.smcp" horiz-adv-x="880" 
d="M203 0v1143h549v-146h-392v-331h349v-144h-349v-522h-157z" />
    <glyph glyph-name="G.smcp" horiz-adv-x="1413" 
d="M121 571q0 256 174 425t424 169q162 -1 294 -75t210 -205l-125 -74q-56 99 -156 155t-223 56q-191 0 -317 -129t-126 -323t125 -322t307 -129q182 0 296 100q113 100 135 268h-367v146h518q2 -20 2 -62q0 -264 -160 -430t-412 -166q-251 0 -425 170t-174 426z" />
    <glyph glyph-name="H.smcp" horiz-adv-x="1372" 
d="M203 0v1143h157v-465h652v465h157v-1143h-157v535h-652v-535h-157z" />
    <glyph glyph-name="I.smcp" horiz-adv-x="575" 
d="M209 0v1143h158v-1143h-158z" />
    <glyph glyph-name="J.smcp" horiz-adv-x="690" 
d="M184 121q84 0 112 53t28 143v826h157v-819q0 -76 -8 -125t-35 -107q-55 -119 -254 -119q-51 1 -90 17v149q41 -18 90 -18z" />
    <glyph glyph-name="K.smcp" horiz-adv-x="1214" 
d="M203 0v1143h157v-565l549 565h201l-481 -500l495 -643h-190l-412 535l-162 -166v-369h-157z" />
    <glyph glyph-name="L.smcp" horiz-adv-x="958" 
d="M203 0v1143h157v-1000h488v-143h-645z" />
    <glyph glyph-name="M.smcp" horiz-adv-x="1601" 
d="M203 0v1182l598 -748l598 748v-1182h-158v725l-440 -537l-441 537v-725h-157z" />
    <glyph glyph-name="N.smcp" horiz-adv-x="1413" 
d="M203 0v1190l852 -858v811h155v-1190l-850 858v-811h-157z" />
    <glyph glyph-name="O.smcp" horiz-adv-x="1435" 
d="M276 570q0 -194 126 -322t316 -127q190 0 315 128q124 127 124 321t-124 321q-123 127 -315 127t-317 -127t-125 -321zM117 570q0 257 175 427t427 170t426 -170t174 -427t-175 -427t-426 -170t-426 170t-175 427z" />
    <glyph glyph-name="P.smcp" horiz-adv-x="1019" 
d="M360 621h181q84 0 142 52t58 136t-57 136t-143 52h-181v-376zM203 0v1143h344q143 0 247 -95q104 -94 105 -238q0 -144 -104 -240t-248 -95h-187v-475h-157z" />
    <glyph glyph-name="Q.smcp.alt" horiz-adv-x="1437" 
d="M274 569q0 -195 126 -323t319 -127q129 0 233 63l-172 209l111 90l170 -207q100 126 100 308t-125 310q-126 128 -318 128t-318 -128t-126 -323zM121 569q0 256 174 426t424 170t424 -170t174 -419t-160 -418l121 -148l-111 -90l-120 148q-145 -92 -328 -93
q-250 0 -424 169t-174 425z" />
    <glyph glyph-name="R.smcp" horiz-adv-x="1077" 
d="M360 621h197q84 0 142 52t59 136q0 84 -58 136t-143 52h-197v-376zM203 0v1143h360q143 0 247 -95q104 -94 105 -234q0 -140 -94 -234t-229 -105h-2l368 -475h-184l-360 475h-54v-475h-157z" />
    <glyph glyph-name="S.smcp" horiz-adv-x="1042" 
d="M764 307q0 86 -58 131t-214 109q-156 63 -234 131t-78 196t95 211q95 84 241 84q229 0 330 -198l-135 -68q-55 121 -197 121q-76 0 -126 -38t-50 -102t42 -106q15 -16 54 -38t63 -32q254 -101 340 -180q85 -80 85 -221t-102 -234t-267 -93q-333 0 -438 272l135 63
q88 -193 285 -192q170 0 213 105q16 40 16 79z" />
    <glyph glyph-name="T.smcp" horiz-adv-x="925" 
d="M385 0v997h-291v146h737v-146h-290v-997h-156z" />
    <glyph glyph-name="U.smcp" horiz-adv-x="1320" 
d="M195 412v731h155v-715q0 -154 82 -232t227 -77q145 0 228 78q82 78 82 233v713h157v-713q0 -217 -132 -335t-339 -118t-333 113t-127 322z" />
    <glyph glyph-name="V.smcp" horiz-adv-x="1275" 
d="M637 -47l-533 1190h168l365 -795l364 795h170z" />
    <glyph glyph-name="W.smcp" horiz-adv-x="1744" 
d="M481 -47l-391 1190h164l260 -760l363 803l346 -803l264 760h166l-402 -1194l-379 850z" />
    <glyph glyph-name="X.smcp" horiz-adv-x="1239" 
d="M115 0l403 592l-377 551h174l306 -447l301 447h170l-375 -553l407 -590h-178l-334 481l-329 -481h-168z" />
    <glyph glyph-name="Y.smcp" horiz-adv-x="1193" 
d="M520 0v461l-428 682h174l336 -529l330 529h170l-424 -682v-461h-158z" />
    <glyph glyph-name="Z.smcp" horiz-adv-x="1214" 
d="M233 997v146h887l-729 -1000h705v-143h-992l730 997h-601z" />
    <glyph glyph-name="Agrave.smcp" horiz-adv-x="1335" 
d="M461 406h405l-202 438zM106 0l560 1190l563 -1190h-172l-127 262h-531l-127 -262h-166zM621 1221l-168 237h198l86 -237h-116z" />
    <glyph glyph-name="Aacute.smcp" horiz-adv-x="1335" 
d="M461 406h405l-202 438zM106 0l560 1190l563 -1190h-172l-127 262h-531l-127 -262h-166zM592 1221l86 237h201l-170 -237h-117z" />
    <glyph glyph-name="Acircumflex.smcp" horiz-adv-x="1335" 
d="M461 406h405l-202 438zM106 0l560 1190l563 -1190h-172l-127 262h-531l-127 -262h-166zM373 1260l293 245l295 -245h-181l-114 104l-115 -104h-178z" />
    <glyph glyph-name="Atilde.smcp" horiz-adv-x="1335" 
d="M461 406h405l-202 438zM106 0l560 1190l563 -1190h-172l-127 262h-531l-127 -262h-166zM552 1407q58 0 120 -29t88 -28q59 0 76 59l98 -8q-20 -174 -168 -174q-48 -1 -110 29t-89 30q-55 0 -71 -53l-97 8q7 74 51 120t102 46z" />
    <glyph glyph-name="Adieresis.smcp" horiz-adv-x="1335" 
d="M461 406h405l-202 438zM106 0l560 1190l563 -1190h-172l-127 262h-531l-127 -262h-166zM485 1204q-39 0 -69 29t-29 70q0 41 30 69q31 28 69 29q38 0 68 -29q30 -30 30 -70t-30 -69t-69 -29zM844 1204q-39 0 -69 29t-30 70t30 69t69 29q38 0 68 -29q30 -30 30 -70
t-30 -69t-68 -29z" />
    <glyph glyph-name="Amacron.smcp" horiz-adv-x="1335" 
d="M461 406h405l-202 438zM106 0l560 1190l563 -1190h-172l-127 262h-531l-127 -262h-166zM410 1260v139h512v-139h-512z" />
    <glyph glyph-name="Abreve.smcp" horiz-adv-x="1335" 
d="M461 406h405l-202 438zM106 0l560 1190l563 -1190h-172l-127 262h-531l-127 -262h-166zM666 1231q-111 -1 -193 69t-96 183h137q46 -121 152 -121t151 121h139q-14 -113 -96 -183t-194 -69z" />
    <glyph glyph-name="Aring.smcp" horiz-adv-x="1335" 
d="M461 406h405l-202 438zM668 1167q32 0 56 23q24 24 24 54t-24 52t-56 23q-32 0 -58 -23q-24 -24 -24 -54t24 -52t58 -23zM485 1250q-1 66 53 117q54 52 130 52t129 -52q53 -53 53 -119t-37 -113t-96 -64l512 -1071h-172l-127 262h-531l-127 -262h-166l510 1073
q-57 15 -94 63t-37 114z" />
    <glyph glyph-name="Aringacute.smcp" horiz-adv-x="1335" 
d="M461 406h405l-202 438zM668 1167q32 0 56 23q24 24 24 54t-24 52t-56 23q-32 0 -58 -23q-24 -24 -24 -54t24 -52t58 -23zM485 1250q-1 66 53 117q54 52 130 52t129 -52q53 -53 53 -119t-37 -113t-96 -64l512 -1071h-172l-127 262h-531l-127 -262h-166l510 1073
q-57 15 -94 63t-37 114zM625 1511l86 238h200l-168 -238h-118z" />
    <glyph glyph-name="Aogonek.smcp" horiz-adv-x="1335" 
d="M461 406h405l-202 438zM1178 -217q40 0 94 24l-27 -116q-49 -23 -111 -23t-117 42q-56 42 -56 121t100 151l2 2l-133 278h-531l-127 -262h-166l560 1190l563 -1190q-45 -10 -93 -56t-49 -94q1 -67 91 -67z" />
    <glyph glyph-name="AE.smcp" horiz-adv-x="1634" 
d="M911 414v446l-356 -446h356zM1483 1143v-146h-414v-323h381v-144h-381v-387h426v-143h-584v270h-469l-221 -270h-198l929 1143h531z" />
    <glyph glyph-name="AEacute.smcp" horiz-adv-x="1634" 
d="M911 414v446l-356 -446h356zM1483 1143v-146h-414v-323h381v-144h-381v-387h426v-143h-584v270h-469l-221 -270h-198l929 1143h531zM868 1221l88 237h199l-168 -237h-119z" />
    <glyph glyph-name="Cacute.smcp" horiz-adv-x="1249" 
d="M121 569q0 256 173 426t423 170q131 0 248 -52t190 -142l-106 -94q-127 143 -325 143t-322 -128q-126 -128 -126 -323t125 -323t325 -127q200 0 327 151l108 -96q-75 -92 -193 -145t-251 -54q-250 0 -423 169t-173 425zM649 1221l80 237h197l-160 -237h-117z" />
    <glyph glyph-name="Ccircumflex.smcp" horiz-adv-x="1249" 
d="M121 569q0 256 173 426t423 170q131 0 248 -52t190 -142l-106 -94q-127 143 -325 143t-322 -128q-126 -128 -126 -323t125 -323t325 -127q200 0 327 151l108 -96q-75 -92 -193 -145t-251 -54q-250 0 -423 169t-173 425zM442 1260l279 245l278 -245h-178l-100 104
l-103 -104h-176z" />
    <glyph glyph-name="Ccaron.smcp" horiz-adv-x="1249" 
d="M121 569q0 256 173 426t423 170q131 0 248 -52t190 -142l-106 -94q-127 143 -325 143t-322 -128q-126 -128 -126 -323t125 -323t325 -127q200 0 327 151l108 -96q-75 -92 -193 -145t-251 -54q-250 0 -423 169t-173 425zM719 1212l-279 246h176l103 -104l100 104h178z" />
    <glyph glyph-name="Cdotaccent.smcp" horiz-adv-x="1249" 
d="M121 569q0 256 173 426t423 170q131 0 248 -52t190 -142l-106 -94q-127 143 -325 143t-322 -128q-126 -128 -126 -323t125 -323t325 -127q200 0 327 151l108 -96q-75 -92 -193 -145t-251 -54q-250 0 -423 169t-173 425zM707 1243q-39 0 -69 29q-30 30 -30 70t30 69t69 29
t69 -29t29 -70q1 -41 -29 -69t-69 -29z" />
    <glyph glyph-name="Ccedilla.smcp" horiz-adv-x="1249" 
d="M562 -252q80 0 80 65q0 33 -29 47q-28 14 -91 17l45 113q-197 48 -321 206t-125 373q0 256 173 426t423 170q131 0 248 -52t190 -142l-106 -94q-127 143 -325 143t-322 -128q-126 -128 -126 -323t125 -323t325 -127q200 0 327 151l108 -96q-75 -92 -193 -145t-251 -54
q-31 0 -43 2l-21 -43q45 -2 76 -36t31 -91q0 -147 -191 -147q-82 0 -129 37l37 78q49 -27 85 -27z" />
    <glyph glyph-name="Dcaron.smcp" horiz-adv-x="1361" 
d="M365 145h231q238 0 358 116q120 117 119 311q0 194 -120 309t-359 114h-229v-850zM203 -2v1147h403q291 0 460 -159t169 -416q0 -256 -168 -414t-461 -158h-403zM616 1212l-294 246h180l114 -104l113 104h180z" />
    <glyph glyph-name="Dcroat.smcp" horiz-adv-x="1349" 
d="M360 143h232q240 0 360 117q120 118 121 312q0 194 -121 310t-362 115h-230v-340h252v-143h-252v-371zM203 0v514h-117v143h117v486h399q293 0 460 -159t167 -415q0 -257 -167 -413t-458 -156h-401z" />
    <glyph glyph-name="Egrave.smcp" horiz-adv-x="956" 
d="M203 0v1143h602v-146h-445v-323h412v-144h-412v-387h457v-143h-614zM475 1221l-168 237h199l86 -237h-117z" />
    <glyph glyph-name="Eacute.smcp" horiz-adv-x="956" 
d="M203 0v1143h602v-146h-445v-323h412v-144h-412v-387h457v-143h-614zM434 1221l86 237h201l-168 -237h-119z" />
    <glyph glyph-name="Ecircumflex.smcp" horiz-adv-x="956" 
d="M203 0v1143h602v-146h-445v-323h412v-144h-412v-387h457v-143h-614zM221 1260l279 245l278 -245h-178l-100 104l-103 -104h-176z" />
    <glyph glyph-name="Ecaron.smcp" horiz-adv-x="956" 
d="M203 0v1143h602v-146h-445v-323h412v-144h-412v-387h457v-143h-614zM508 1212l-279 246h177l102 -104l100 104h178z" />
    <glyph glyph-name="Edieresis.smcp" horiz-adv-x="956" 
d="M203 0v1143h602v-146h-445v-323h412v-144h-412v-387h457v-143h-614zM338 1243q-39 0 -70 29q-30 30 -30 70t30 69q31 29 70 29t69 -29q29 -29 29 -70t-30 -69t-68 -29zM696 1243q-40 0 -70 29q-30 30 -30 70t31 69t69 29t69 -29q30 -29 30 -70t-30 -69t-69 -29z" />
    <glyph glyph-name="Emacron.smcp" horiz-adv-x="956" 
d="M203 0v1143h602v-146h-445v-323h412v-144h-412v-387h457v-143h-614zM252 1260v139h512v-139h-512z" />
    <glyph glyph-name="Ebreve.smcp" horiz-adv-x="956" 
d="M203 0v1143h602v-146h-445v-323h412v-144h-412v-387h457v-143h-614zM504 1231q-111 -1 -194 69t-97 183h139q46 -121 152 -121t151 121h140q-14 -113 -97 -183t-194 -69z" />
    <glyph glyph-name="Edotaccent.smcp" horiz-adv-x="956" 
d="M203 0v1143h602v-146h-445v-323h412v-144h-412v-387h457v-143h-614zM512 1243q-39 0 -69 29q-29 30 -29 70t29 69q30 29 69 29t70 -29q30 -29 30 -70t-30 -69t-70 -29z" />
    <glyph glyph-name="Eogonek.smcp" horiz-adv-x="956" 
d="M688 -150q0 -67 90 -67q40 0 94 24l-24 -116q-50 -23 -112 -23t-119 42q-56 42 -56 114q0 100 129 176h-487v1143h602v-146h-445v-323h412v-144h-412v-387h457v-143q-129 -74 -129 -150z" />
    <glyph glyph-name="Gcircumflex.smcp" horiz-adv-x="1413" 
d="M121 571q0 256 174 425t424 169q162 -1 294 -75t210 -205l-125 -74q-56 99 -156 155t-223 56q-191 0 -317 -129t-126 -323t125 -322t307 -129q182 0 296 100q113 100 135 268h-367v146h518q2 -20 2 -62q0 -264 -160 -430t-412 -166q-251 0 -425 170t-174 426zM444 1260
l279 245l278 -245h-178l-100 104l-102 -104h-177z" />
    <glyph glyph-name="Gbreve.smcp" horiz-adv-x="1413" 
d="M121 571q0 256 174 425t424 169q162 -1 294 -75t210 -205l-125 -74q-56 99 -156 155t-223 56q-191 0 -317 -129t-126 -323t125 -322t307 -129q182 0 296 100q113 100 135 268h-367v146h518q2 -20 2 -62q0 -264 -160 -430t-412 -166q-251 0 -425 170t-174 426zM713 1231
q-106 0 -187 69q-80 70 -94 183h137q45 -121 145 -121t140 121h139q-14 -113 -94 -183t-186 -69z" />
    <glyph glyph-name="Gdotaccent.smcp" horiz-adv-x="1413" 
d="M121 571q0 256 174 425t424 169q162 -1 294 -75t210 -205l-125 -74q-56 99 -156 155t-223 56q-191 0 -317 -129t-126 -323t125 -322t307 -129q182 0 296 100q113 100 135 268h-367v146h518q2 -20 2 -62q0 -264 -160 -430t-412 -166q-251 0 -425 170t-174 426zM721 1243
q-39 0 -69 29q-30 30 -30 70t30 69t69 29t67 -29t29 -70q-1 -41 -29 -69t-67 -29z" />
    <glyph glyph-name="Gcommaaccent.smcp" horiz-adv-x="1413" 
d="M121 571q0 256 174 425t424 169q162 -1 294 -75t210 -205l-125 -74q-56 99 -156 155t-223 56q-191 0 -317 -129t-126 -323t125 -322t307 -129q182 0 296 100q113 100 135 268h-367v146h518q2 -20 2 -62q0 -264 -160 -430t-412 -166q-251 0 -425 170t-174 426zM543 -315
l80 237h198l-159 -237h-119z" />
    <glyph glyph-name="Hcircumflex.smcp" horiz-adv-x="1372" 
d="M203 0v1143h157v-465h652v465h157v-1143h-157v535h-652v-535h-157zM391 1260l293 245l293 -245h-178l-115 104l-115 -104h-178z" />
    <glyph glyph-name="Hbar.smcp" horiz-adv-x="1372" 
d="M360 678h652v139h-652v-139zM203 0v817h-103v135h103v191h157v-191h652v191h157v-191h103v-135h-103v-817h-157v535h-652v-535h-157z" />
    <glyph glyph-name="Igrave.smcp" horiz-adv-x="575" 
d="M209 0v1143h158v-1143h-158zM236 1221l-168 237h198l86 -237h-116z" />
    <glyph glyph-name="Iacute.smcp" horiz-adv-x="575" 
d="M209 0v1143h158v-1143h-158zM219 1221l86 237h201l-170 -237h-117z" />
    <glyph glyph-name="Icircumflex.smcp" horiz-adv-x="575" 
d="M209 0v1143h158v-1143h-158zM-4 1260l293 245l293 -245h-179l-114 104l-115 -104h-178z" />
    <glyph glyph-name="Itilde.smcp" horiz-adv-x="575" 
d="M171 1407q59 0 121 -29t89 -28q57 0 76 59l98 -8q-23 -174 -168 -174q-49 -1 -111 29t-90 30q-55 0 -69 -53l-99 8q8 74 52 120t101 46zM209 0v1143h158v-1143h-158z" />
    <glyph glyph-name="Idieresis.smcp" horiz-adv-x="575" 
d="M209 0v1143h158v-1143h-158zM133 1243q-39 0 -69 29q-30 30 -29 70q0 40 30 69q31 29 69 29t68 -29t30 -70t-30 -69t-69 -29zM442 1243q-38 0 -68 29q-30 30 -30 70t30 69t68 29t70 -29q31 -29 31 -70t-31 -69t-70 -29z" />
    <glyph glyph-name="Imacron.smcp" horiz-adv-x="575" 
d="M209 0v1143h158v-1143h-158zM33 1260v139h512v-139h-512z" />
    <glyph glyph-name="Ibreve.smcp" horiz-adv-x="575" 
d="M209 0v1143h158v-1143h-158zM289 1231q-111 -1 -194 69t-97 183h139q45 -121 151 -121t152 121h138q-14 -113 -96 -183t-193 -69z" />
    <glyph glyph-name="Idotaccent.smcp" horiz-adv-x="575" 
d="M209 0v1143h158v-1143h-158zM289 1243q-39 0 -70 29q-31 30 -31 70t31 69t70 29t69 -29t29 -70q1 -41 -29 -69t-69 -29z" />
    <glyph glyph-name="Iogonek.smcp" horiz-adv-x="575" 
d="M209 1143h158v-1143q-39 -8 -87 -56t-48 -88q-1 -74 81 -73q47 0 101 24l-25 -116q-51 -23 -111 -23t-117 42t-57 124t105 150v1159z" />
    <glyph glyph-name="IJ.smcp" horiz-adv-x="1052" 
d="M238 289v854h157v-854h-157zM676 418v725h158v-705q0 -273 -94 -370t-256 -97q-163 0 -251 23v147q101 -23 195 -23t137 20q43 19 65 44q46 52 46 236z" />
    <glyph glyph-name="Jcircumflex.smcp" horiz-adv-x="690" 
d="M184 121q84 0 112 53t28 143v826h157v-819q0 -76 -8 -125t-35 -107q-55 -119 -254 -119q-51 1 -90 17v149q41 -18 90 -18zM102 1260l293 245l293 -245h-178l-115 104l-114 -104h-179z" />
    <glyph glyph-name="Kcommaaccent.smcp" horiz-adv-x="1196" 
d="M422 -315l88 237h199l-168 -237h-119zM203 0v1143h157v-565l549 565h201l-481 -500l495 -643h-190l-412 535l-162 -166v-369h-157z" />
    <glyph glyph-name="Lacute.smcp" horiz-adv-x="958" 
d="M203 0v1143h157v-1000h488v-143h-645zM238 1221l88 237h198l-168 -237h-118z" />
    <glyph glyph-name="Lcaron.smcp" horiz-adv-x="958" 
d="M479 905l86 238h201l-170 -238h-117zM203 0v1143h157v-1000h488v-143h-645z" />
    </font>
</defs>
</svg>
